<svg width="451" height="288" viewBox="0 0 451 288" fill="none" xmlns="http://www.w3.org/2000/svg">
<mask id="path-1-inside-1_8_128" fill="white">
<path d="M632.65 335.379L595.454 335.379L595.454 298.184L632.65 298.184L632.65 335.379Z"/>
<path d="M595.454 335.379L558.259 335.379L558.259 298.184L595.454 298.184L595.454 335.379Z"/>
<path d="M558.259 335.379L521.064 335.379L521.064 298.184L558.259 298.184L558.259 335.379Z"/>
<path d="M521.064 335.379L483.868 335.379L483.868 298.184L521.064 298.184L521.064 335.379Z"/>
<path d="M483.868 335.379L446.673 335.379L446.673 298.184L483.868 298.184L483.868 335.379Z"/>
<path d="M446.673 335.379L409.477 335.379L409.477 298.184L446.673 298.184L446.673 335.379Z"/>
<path d="M409.477 335.379L372.282 335.379L372.282 298.184L409.477 298.184L409.477 335.379Z"/>
<path d="M372.282 335.379L335.087 335.379L335.087 298.184L372.282 298.184L372.282 335.379Z"/>
<path d="M335.087 335.379L297.891 335.379L297.891 298.184L335.087 298.184L335.087 335.379Z"/>
<path d="M297.891 335.379L260.696 335.379L260.696 298.184L297.891 298.184L297.891 335.379Z"/>
<path d="M260.696 335.379L223.501 335.379L223.501 298.184L260.696 298.184L260.696 335.379Z"/>
<path d="M223.501 335.379L186.305 335.379L186.305 298.184L223.501 298.184L223.501 335.379Z"/>
<path d="M186.305 335.379L149.11 335.379L149.11 298.184L186.305 298.184L186.305 335.379Z"/>
<path d="M149.11 335.379L111.914 335.379L111.914 298.184L149.11 298.184L149.11 335.379Z"/>
<path d="M111.914 335.379L74.719 335.379L74.719 298.184L111.914 298.184L111.914 335.379Z"/>
<path d="M74.719 335.379L37.5236 335.379L37.5236 298.184L74.719 298.184L74.719 335.379Z"/>
<path d="M37.5236 335.379L0.32825 335.379L0.328253 298.184L37.5236 298.184L37.5236 335.379Z"/>
<path d="M632.65 298.184L595.454 298.184L595.454 260.989L632.65 260.989L632.65 298.184Z"/>
<path d="M595.454 298.184L558.259 298.184L558.259 260.989L595.454 260.989L595.454 298.184Z"/>
<path d="M558.259 298.184L521.064 298.184L521.064 260.989L558.259 260.989L558.259 298.184Z"/>
<path d="M521.064 298.184L483.868 298.184L483.868 260.989L521.064 260.989L521.064 298.184Z"/>
<path d="M483.868 298.184L446.673 298.184L446.673 260.989L483.868 260.989L483.868 298.184Z"/>
<path d="M446.673 298.184L409.477 298.184L409.477 260.989L446.673 260.989L446.673 298.184Z"/>
<path d="M409.477 298.184L372.282 298.184L372.282 260.989L409.477 260.989L409.477 298.184Z"/>
<path d="M372.282 298.184L335.087 298.184L335.087 260.989L372.282 260.989L372.282 298.184Z"/>
<path d="M335.087 298.184L297.891 298.184L297.891 260.989L335.087 260.989L335.087 298.184Z"/>
<path d="M297.891 298.184L260.696 298.184L260.696 260.989L297.891 260.989L297.891 298.184Z"/>
<path d="M260.696 298.184L223.501 298.184L223.501 260.989L260.696 260.989L260.696 298.184Z"/>
<path d="M223.501 298.184L186.305 298.184L186.305 260.989L223.501 260.989L223.501 298.184Z"/>
<path d="M186.305 298.184L149.11 298.184L149.11 260.989L186.305 260.989L186.305 298.184Z"/>
<path d="M149.11 298.184L111.914 298.184L111.914 260.989L149.11 260.989L149.11 298.184Z"/>
<path d="M111.914 298.184L74.719 298.184L74.719 260.989L111.914 260.989L111.914 298.184Z"/>
<path d="M74.719 298.184L37.5236 298.184L37.5236 260.989L74.719 260.989L74.719 298.184Z"/>
<path d="M37.5236 298.184L0.328253 298.184L0.328257 260.989L37.5236 260.989L37.5236 298.184Z"/>
<path d="M632.65 260.989L595.454 260.989L595.454 223.793L632.65 223.793L632.65 260.989Z"/>
<path d="M595.454 260.989L558.259 260.989L558.259 223.793L595.454 223.793L595.454 260.989Z"/>
<path d="M558.259 260.989L521.064 260.989L521.064 223.793L558.259 223.793L558.259 260.989Z"/>
<path d="M521.064 260.989L483.868 260.989L483.868 223.793L521.064 223.793L521.064 260.989Z"/>
<path d="M483.868 260.989L446.673 260.989L446.673 223.793L483.868 223.793L483.868 260.989Z"/>
<path d="M446.673 260.989L409.477 260.989L409.477 223.793L446.673 223.793L446.673 260.989Z"/>
<path d="M409.477 260.989L372.282 260.989L372.282 223.793L409.477 223.793L409.477 260.989Z"/>
<path d="M372.282 260.989L335.087 260.989L335.087 223.793L372.282 223.793L372.282 260.989Z"/>
<path d="M335.087 260.989L297.891 260.989L297.891 223.793L335.087 223.793L335.087 260.989Z"/>
<path d="M297.891 260.989L260.696 260.989L260.696 223.793L297.891 223.793L297.891 260.989Z"/>
<path d="M260.696 260.989L223.501 260.989L223.501 223.793L260.696 223.793L260.696 260.989Z"/>
<path d="M223.501 260.989L186.305 260.989L186.305 223.793L223.501 223.793L223.501 260.989Z"/>
<path d="M186.305 260.989L149.11 260.989L149.11 223.793L186.305 223.793L186.305 260.989Z"/>
<path d="M149.11 260.989L111.914 260.989L111.914 223.793L149.11 223.793L149.11 260.989Z"/>
<path d="M111.914 260.989L74.719 260.989L74.719 223.793L111.914 223.793L111.914 260.989Z"/>
<path d="M74.719 260.989L37.5236 260.989L37.5237 223.793L74.719 223.793L74.719 260.989Z"/>
<path d="M37.5236 260.989L0.328257 260.989L0.32826 223.793L37.5237 223.793L37.5236 260.989Z"/>
<path d="M632.65 223.793L595.454 223.793L595.454 186.598L632.65 186.598L632.65 223.793Z"/>
<path d="M595.454 223.793L558.259 223.793L558.259 186.598L595.454 186.598L595.454 223.793Z"/>
<path d="M558.259 223.793L521.064 223.793L521.064 186.598L558.259 186.598L558.259 223.793Z"/>
<path d="M521.064 223.793L483.868 223.793L483.868 186.598L521.064 186.598L521.064 223.793Z"/>
<path d="M483.868 223.793L446.673 223.793L446.673 186.598L483.868 186.598L483.868 223.793Z"/>
<path d="M446.673 223.793L409.477 223.793L409.477 186.598L446.673 186.598L446.673 223.793Z"/>
<path d="M409.477 223.793L372.282 223.793L372.282 186.598L409.477 186.598L409.477 223.793Z"/>
<path d="M372.282 223.793L335.087 223.793L335.087 186.598L372.282 186.598L372.282 223.793Z"/>
<path d="M335.087 223.793L297.891 223.793L297.891 186.598L335.087 186.598L335.087 223.793Z"/>
<path d="M297.891 223.793L260.696 223.793L260.696 186.598L297.891 186.598L297.891 223.793Z"/>
<path d="M260.696 223.793L223.501 223.793L223.501 186.598L260.696 186.598L260.696 223.793Z"/>
<path d="M223.501 223.793L186.305 223.793L186.305 186.598L223.501 186.598L223.501 223.793Z"/>
<path d="M186.305 223.793L149.11 223.793L149.11 186.598L186.305 186.598L186.305 223.793Z"/>
<path d="M149.11 223.793L111.914 223.793L111.914 186.598L149.11 186.598L149.11 223.793Z"/>
<path d="M111.914 223.793L74.719 223.793L74.719 186.598L111.914 186.598L111.914 223.793Z"/>
<path d="M74.719 223.793L37.5237 223.793L37.5237 186.598L74.719 186.598L74.719 223.793Z"/>
<path d="M37.5237 223.793L0.32826 223.793L0.328263 186.598L37.5237 186.598L37.5237 223.793Z"/>
<path d="M632.65 186.598L595.454 186.598L595.454 149.402L632.65 149.402L632.65 186.598Z"/>
<path d="M595.454 186.598L558.259 186.598L558.259 149.402L595.454 149.402L595.454 186.598Z"/>
<path d="M558.259 186.598L521.064 186.598L521.064 149.402L558.259 149.402L558.259 186.598Z"/>
<path d="M521.064 186.598L483.868 186.598L483.868 149.402L521.064 149.402L521.064 186.598Z"/>
<path d="M483.868 186.598L446.673 186.598L446.673 149.402L483.868 149.402L483.868 186.598Z"/>
<path d="M446.673 186.598L409.477 186.598L409.477 149.402L446.673 149.402L446.673 186.598Z"/>
<path d="M409.477 186.598L372.282 186.598L372.282 149.402L409.477 149.402L409.477 186.598Z"/>
<path d="M372.282 186.598L335.087 186.598L335.087 149.402L372.282 149.402L372.282 186.598Z"/>
<path d="M335.087 186.598L297.891 186.598L297.891 149.402L335.087 149.402L335.087 186.598Z"/>
<path d="M297.891 186.598L260.696 186.598L260.696 149.402L297.891 149.402L297.891 186.598Z"/>
<path d="M260.696 186.598L223.501 186.598L223.501 149.402L260.696 149.402L260.696 186.598Z"/>
<path d="M223.501 186.598L186.305 186.598L186.305 149.402L223.501 149.402L223.501 186.598Z"/>
<path d="M186.305 186.598L149.11 186.598L149.11 149.402L186.305 149.402L186.305 186.598Z"/>
<path d="M149.11 186.598L111.914 186.598L111.914 149.402L149.11 149.402L149.11 186.598Z"/>
<path d="M111.914 186.598L74.719 186.598L74.719 149.402L111.914 149.402L111.914 186.598Z"/>
<path d="M74.719 186.598L37.5237 186.598L37.5237 149.402L74.719 149.402L74.719 186.598Z"/>
<path d="M37.5237 186.598L0.328263 186.598L0.328266 149.402L37.5237 149.402L37.5237 186.598Z"/>
<path d="M632.65 149.402L595.454 149.402L595.454 112.207L632.65 112.207L632.65 149.402Z"/>
<path d="M595.454 149.402L558.259 149.402L558.259 112.207L595.454 112.207L595.454 149.402Z"/>
<path d="M558.259 149.402L521.064 149.402L521.064 112.207L558.259 112.207L558.259 149.402Z"/>
<path d="M521.064 149.402L483.868 149.402L483.868 112.207L521.064 112.207L521.064 149.402Z"/>
<path d="M483.868 149.402L446.673 149.402L446.673 112.207L483.868 112.207L483.868 149.402Z"/>
<path d="M446.673 149.402L409.477 149.402L409.477 112.207L446.673 112.207L446.673 149.402Z"/>
<path d="M409.477 149.402L372.282 149.402L372.282 112.207L409.477 112.207L409.477 149.402Z"/>
<path d="M372.282 149.402L335.087 149.402L335.087 112.207L372.282 112.207L372.282 149.402Z"/>
<path d="M335.087 149.402L297.891 149.402L297.891 112.207L335.087 112.207L335.087 149.402Z"/>
<path d="M297.891 149.402L260.696 149.402L260.696 112.207L297.891 112.207L297.891 149.402Z"/>
<path d="M260.696 149.402L223.501 149.402L223.501 112.207L260.696 112.207L260.696 149.402Z"/>
<path d="M223.501 149.402L186.305 149.402L186.305 112.207L223.501 112.207L223.501 149.402Z"/>
<path d="M186.305 149.402L149.11 149.402L149.11 112.207L186.305 112.207L186.305 149.402Z"/>
<path d="M149.11 149.402L111.914 149.402L111.914 112.207L149.11 112.207L149.11 149.402Z"/>
<path d="M111.914 149.402L74.719 149.402L74.719 112.207L111.914 112.207L111.914 149.402Z"/>
<path d="M74.719 149.402L37.5237 149.402L37.5237 112.207L74.719 112.207L74.719 149.402Z"/>
<path d="M37.5237 149.402L0.328266 149.402L0.32827 112.207L37.5237 112.207L37.5237 149.402Z"/>
<path d="M632.65 112.207L595.454 112.207L595.454 75.0118L632.65 75.0118L632.65 112.207Z"/>
<path d="M595.454 112.207L558.259 112.207L558.259 75.0118L595.454 75.0118L595.454 112.207Z"/>
<path d="M558.259 112.207L521.064 112.207L521.064 75.0118L558.259 75.0118L558.259 112.207Z"/>
<path d="M521.064 112.207L483.868 112.207L483.868 75.0118L521.064 75.0118L521.064 112.207Z"/>
<path d="M483.868 112.207L446.673 112.207L446.673 75.0118L483.868 75.0118L483.868 112.207Z"/>
<path d="M446.673 112.207L409.477 112.207L409.477 75.0118L446.673 75.0118L446.673 112.207Z"/>
<path d="M409.477 112.207L372.282 112.207L372.282 75.0118L409.477 75.0118L409.477 112.207Z"/>
<path d="M372.282 112.207L335.087 112.207L335.087 75.0118L372.282 75.0118L372.282 112.207Z"/>
<path d="M335.087 112.207L297.891 112.207L297.891 75.0118L335.087 75.0118L335.087 112.207Z"/>
<path d="M297.891 112.207L260.696 112.207L260.696 75.0118L297.891 75.0118L297.891 112.207Z"/>
<path d="M260.696 112.207L223.501 112.207L223.501 75.0118L260.696 75.0118L260.696 112.207Z"/>
<path d="M223.501 112.207L186.305 112.207L186.305 75.0118L223.501 75.0118L223.501 112.207Z"/>
<path d="M186.305 112.207L149.11 112.207L149.11 75.0118L186.305 75.0118L186.305 112.207Z"/>
<path d="M149.11 112.207L111.914 112.207L111.914 75.0118L149.11 75.0118L149.11 112.207Z"/>
<path d="M111.914 112.207L74.719 112.207L74.719 75.0117L111.914 75.0118L111.914 112.207Z"/>
<path d="M74.719 112.207L37.5237 112.207L37.5237 75.0117L74.719 75.0117L74.719 112.207Z"/>
<path d="M37.5237 112.207L0.32827 112.207L0.328273 75.0117L37.5237 75.0117L37.5237 112.207Z"/>
<path d="M632.65 75.0118L595.454 75.0118L595.454 37.8163L632.65 37.8163L632.65 75.0118Z"/>
<path d="M595.454 75.0118L558.259 75.0118L558.259 37.8163L595.454 37.8163L595.454 75.0118Z"/>
<path d="M558.259 75.0118L521.064 75.0118L521.064 37.8163L558.259 37.8163L558.259 75.0118Z"/>
<path d="M521.064 75.0118L483.868 75.0118L483.868 37.8162L521.064 37.8163L521.064 75.0118Z"/>
<path d="M483.868 75.0118L446.673 75.0118L446.673 37.8162L483.868 37.8162L483.868 75.0118Z"/>
<path d="M446.673 75.0118L409.477 75.0118L409.477 37.8162L446.673 37.8162L446.673 75.0118Z"/>
<path d="M409.477 75.0118L372.282 75.0118L372.282 37.8162L409.477 37.8162L409.477 75.0118Z"/>
<path d="M372.282 75.0118L335.087 75.0118L335.087 37.8162L372.282 37.8162L372.282 75.0118Z"/>
<path d="M335.087 75.0118L297.891 75.0118L297.891 37.8162L335.087 37.8162L335.087 75.0118Z"/>
<path d="M297.891 75.0118L260.696 75.0118L260.696 37.8162L297.891 37.8162L297.891 75.0118Z"/>
<path d="M260.696 75.0118L223.501 75.0118L223.501 37.8162L260.696 37.8162L260.696 75.0118Z"/>
<path d="M223.501 75.0118L186.305 75.0118L186.305 37.8162L223.501 37.8162L223.501 75.0118Z"/>
<path d="M186.305 75.0118L149.11 75.0118L149.11 37.8162L186.305 37.8162L186.305 75.0118Z"/>
<path d="M149.11 75.0118L111.914 75.0118L111.914 37.8162L149.11 37.8162L149.11 75.0118Z"/>
<path d="M111.914 75.0118L74.719 75.0117L74.7191 37.8162L111.914 37.8162L111.914 75.0118Z"/>
<path d="M74.719 75.0117L37.5237 75.0117L37.5237 37.8162L74.7191 37.8162L74.719 75.0117Z"/>
<path d="M37.5237 75.0117L0.328273 75.0117L0.328276 37.8162L37.5237 37.8162L37.5237 75.0117Z"/>
<path d="M632.65 37.8163L595.454 37.8163L595.454 0.620899L632.65 0.620902L632.65 37.8163Z"/>
<path d="M595.454 37.8163L558.259 37.8163L558.259 0.620769L595.454 0.620899L595.454 37.8163Z"/>
<path d="M558.259 37.8163L521.064 37.8163L521.064 0.620766L558.259 0.620769L558.259 37.8163Z"/>
<path d="M521.064 37.8163L483.868 37.8162L483.868 0.620762L521.064 0.620766L521.064 37.8163Z"/>
<path d="M483.868 37.8162L446.673 37.8162L446.673 0.620759L483.868 0.620762L483.868 37.8162Z"/>
<path d="M446.673 37.8162L409.477 37.8162L409.477 0.620756L446.673 0.620759L446.673 37.8162Z"/>
<path d="M409.477 37.8162L372.282 37.8162L372.282 0.620753L409.477 0.620756L409.477 37.8162Z"/>
<path d="M372.282 37.8162L335.087 37.8162L335.087 0.620749L372.282 0.620753L372.282 37.8162Z"/>
<path d="M335.087 37.8162L297.891 37.8162L297.891 0.620746L335.087 0.620749L335.087 37.8162Z"/>
<path d="M297.891 37.8162L260.696 37.8162L260.696 0.620743L297.891 0.620746L297.891 37.8162Z"/>
<path d="M260.696 37.8162L223.501 37.8162L223.501 0.62074L260.696 0.620743L260.696 37.8162Z"/>
<path d="M223.501 37.8162L186.305 37.8162L186.305 0.620736L223.501 0.62074L223.501 37.8162Z"/>
<path d="M186.305 37.8162L149.11 37.8162L149.11 0.620733L186.305 0.620736L186.305 37.8162Z"/>
<path d="M149.11 37.8162L111.914 37.8162L111.914 0.62073L149.11 0.620733L149.11 37.8162Z"/>
<path d="M111.914 37.8162L74.7191 37.8162L74.7191 0.620727L111.914 0.62073L111.914 37.8162Z"/>
<path d="M74.7191 37.8162L37.5237 37.8162L37.5237 0.620723L74.7191 0.620727L74.7191 37.8162Z"/>
<path d="M37.5237 37.8162L0.328276 37.8162L0.328279 0.62072L37.5237 0.620723L37.5237 37.8162Z"/>
</mask>
<path d="M595.771 335.379L595.771 298.184L595.138 298.184L595.138 335.379L595.771 335.379ZM595.454 298.501L632.65 298.501L632.65 297.867L595.454 297.867L595.454 298.501ZM558.576 335.379L558.576 298.184L557.942 298.184L557.942 335.379L558.576 335.379ZM558.259 298.501L595.454 298.501L595.454 297.867L558.259 297.867L558.259 298.501ZM521.38 335.379L521.38 298.184L520.747 298.184L520.747 335.379L521.38 335.379ZM521.064 298.501L558.259 298.501L558.259 297.867L521.064 297.867L521.064 298.501ZM484.185 335.379L484.185 298.184L483.551 298.184L483.551 335.379L484.185 335.379ZM483.868 298.501L521.064 298.501L521.064 297.867L483.868 297.867L483.868 298.501ZM446.99 335.379L446.99 298.184L446.356 298.184L446.356 335.379L446.99 335.379ZM446.673 298.501L483.868 298.501L483.868 297.867L446.673 297.867L446.673 298.501ZM409.794 335.379L409.794 298.184L409.161 298.184L409.161 335.379L409.794 335.379ZM409.477 298.501L446.673 298.501L446.673 297.867L409.477 297.867L409.477 298.501ZM372.599 335.379L372.599 298.184L371.965 298.184L371.965 335.379L372.599 335.379ZM372.282 298.501L409.477 298.501L409.477 297.867L372.282 297.867L372.282 298.501ZM335.404 335.379L335.404 298.184L334.77 298.184L334.77 335.379L335.404 335.379ZM335.087 298.501L372.282 298.501L372.282 297.867L335.087 297.867L335.087 298.501ZM298.208 335.379L298.208 298.184L297.574 298.184L297.574 335.379L298.208 335.379ZM297.891 298.501L335.087 298.501L335.087 297.867L297.891 297.867L297.891 298.501ZM261.013 335.379L261.013 298.184L260.379 298.184L260.379 335.379L261.013 335.379ZM260.696 298.501L297.891 298.501L297.891 297.867L260.696 297.867L260.696 298.501ZM223.817 335.379L223.817 298.184L223.184 298.184L223.184 335.379L223.817 335.379ZM223.501 298.501L260.696 298.501L260.696 297.867L223.501 297.867L223.501 298.501ZM186.622 335.379L186.622 298.184L185.988 298.184L185.988 335.379L186.622 335.379ZM186.305 298.501L223.501 298.501L223.501 297.867L186.305 297.867L186.305 298.501ZM149.427 335.379L149.427 298.184L148.793 298.184L148.793 335.379L149.427 335.379ZM149.11 298.501L186.305 298.501L186.305 297.867L149.11 297.867L149.11 298.501ZM112.231 335.379L112.231 298.184L111.598 298.184L111.598 335.379L112.231 335.379ZM111.914 298.501L149.11 298.501L149.11 297.867L111.914 297.867L111.914 298.501ZM75.0359 335.379L75.0359 298.184L74.4022 298.184L74.4022 335.379L75.0359 335.379ZM74.7191 298.501L111.914 298.501L111.914 297.867L74.7191 297.867L74.7191 298.501ZM37.8405 335.379L37.8405 298.184L37.2068 298.184L37.2068 335.379L37.8405 335.379ZM37.5236 298.501L74.7191 298.501L74.7191 297.867L37.5236 297.867L37.5236 298.501ZM0.32825 298.501L37.5236 298.501L37.5236 297.867L0.32825 297.867L0.32825 298.501ZM595.771 298.184L595.771 260.989L595.138 260.989L595.138 298.184L595.771 298.184ZM595.454 261.305L632.65 261.305L632.65 260.672L595.454 260.672L595.454 261.305ZM558.576 298.184L558.576 260.989L557.942 260.989L557.942 298.184L558.576 298.184ZM558.259 261.306L595.454 261.305L595.454 260.672L558.259 260.672L558.259 261.306ZM521.38 298.184L521.38 260.989L520.747 260.989L520.747 298.184L521.38 298.184ZM521.064 261.306L558.259 261.306L558.259 260.672L521.064 260.672L521.064 261.306ZM484.185 298.184L484.185 260.989L483.551 260.989L483.551 298.184L484.185 298.184ZM483.868 261.306L521.064 261.306L521.064 260.672L483.868 260.672L483.868 261.306ZM446.99 298.184L446.99 260.989L446.356 260.989L446.356 298.184L446.99 298.184ZM446.673 261.306L483.868 261.306L483.868 260.672L446.673 260.672L446.673 261.306ZM409.794 298.184L409.794 260.989L409.161 260.989L409.161 298.184L409.794 298.184ZM409.477 261.306L446.673 261.306L446.673 260.672L409.477 260.672L409.477 261.306ZM372.599 298.184L372.599 260.989L371.965 260.989L371.965 298.184L372.599 298.184ZM372.282 261.306L409.477 261.306L409.477 260.672L372.282 260.672L372.282 261.306ZM335.404 298.184L335.404 260.989L334.77 260.989L334.77 298.184L335.404 298.184ZM335.087 261.306L372.282 261.306L372.282 260.672L335.087 260.672L335.087 261.306ZM298.208 298.184L298.208 260.989L297.574 260.989L297.574 298.184L298.208 298.184ZM297.891 261.306L335.087 261.306L335.087 260.672L297.891 260.672L297.891 261.306ZM261.013 298.184L261.013 260.989L260.379 260.989L260.379 298.184L261.013 298.184ZM260.696 261.306L297.891 261.306L297.891 260.672L260.696 260.672L260.696 261.306ZM223.817 298.184L223.817 260.989L223.184 260.989L223.184 298.184L223.817 298.184ZM223.501 261.306L260.696 261.306L260.696 260.672L223.501 260.672L223.501 261.306ZM186.622 298.184L186.622 260.989L185.988 260.989L185.988 298.184L186.622 298.184ZM186.305 261.306L223.501 261.306L223.501 260.672L186.305 260.672L186.305 261.306ZM149.427 298.184L149.427 260.989L148.793 260.989L148.793 298.184L149.427 298.184ZM149.11 261.306L186.305 261.306L186.305 260.672L149.11 260.672L149.11 261.306ZM112.231 298.184L112.231 260.989L111.598 260.989L111.598 298.184L112.231 298.184ZM111.914 261.306L149.11 261.306L149.11 260.672L111.914 260.672L111.914 261.306ZM75.0359 298.184L75.0358 260.989L74.4021 260.989L74.4022 298.184L75.0359 298.184ZM74.719 261.306L111.914 261.306L111.914 260.672L74.719 260.672L74.719 261.306ZM37.8405 298.184L37.8405 260.989L37.2068 260.989L37.2068 298.184L37.8405 298.184ZM37.5236 261.306L74.719 261.306L74.719 260.672L37.5236 260.672L37.5236 261.306ZM0.328254 261.306L37.5236 261.306L37.5236 260.672L0.328254 260.672L0.328254 261.306ZM595.771 260.989L595.771 223.793L595.138 223.793L595.138 260.989L595.771 260.989ZM595.454 224.11L632.65 224.11L632.65 223.476L595.454 223.476L595.454 224.11ZM558.576 260.989L558.576 223.793L557.942 223.793L557.942 260.989L558.576 260.989ZM558.259 224.11L595.454 224.11L595.454 223.476L558.259 223.476L558.259 224.11ZM521.38 260.989L521.381 223.793L520.747 223.793L520.747 260.989L521.38 260.989ZM521.064 224.11L558.259 224.11L558.259 223.476L521.064 223.476L521.064 224.11ZM484.185 260.989L484.185 223.793L483.551 223.793L483.551 260.989L484.185 260.989ZM483.868 224.11L521.064 224.11L521.064 223.476L483.868 223.476L483.868 224.11ZM446.99 260.989L446.99 223.793L446.356 223.793L446.356 260.989L446.99 260.989ZM446.673 224.11L483.868 224.11L483.868 223.476L446.673 223.476L446.673 224.11ZM409.794 260.989L409.794 223.793L409.161 223.793L409.161 260.989L409.794 260.989ZM409.477 224.11L446.673 224.11L446.673 223.476L409.477 223.476L409.477 224.11ZM372.599 260.989L372.599 223.793L371.965 223.793L371.965 260.989L372.599 260.989ZM372.282 224.11L409.477 224.11L409.477 223.476L372.282 223.476L372.282 224.11ZM335.404 260.989L335.404 223.793L334.77 223.793L334.77 260.989L335.404 260.989ZM335.087 224.11L372.282 224.11L372.282 223.476L335.087 223.476L335.087 224.11ZM298.208 260.989L298.208 223.793L297.574 223.793L297.574 260.989L298.208 260.989ZM297.891 224.11L335.087 224.11L335.087 223.476L297.891 223.476L297.891 224.11ZM261.013 260.989L261.013 223.793L260.379 223.793L260.379 260.989L261.013 260.989ZM260.696 224.11L297.891 224.11L297.891 223.476L260.696 223.476L260.696 224.11ZM223.817 260.989L223.817 223.793L223.184 223.793L223.184 260.989L223.817 260.989ZM223.501 224.11L260.696 224.11L260.696 223.476L223.501 223.476L223.501 224.11ZM186.622 260.989L186.622 223.793L185.988 223.793L185.988 260.989L186.622 260.989ZM186.305 224.11L223.501 224.11L223.501 223.476L186.305 223.476L186.305 224.11ZM149.427 260.989L149.427 223.793L148.793 223.793L148.793 260.989L149.427 260.989ZM149.11 224.11L186.305 224.11L186.305 223.476L149.11 223.476L149.11 224.11ZM112.231 260.989L112.231 223.793L111.598 223.793L111.598 260.989L112.231 260.989ZM111.914 224.11L149.11 224.11L149.11 223.476L111.914 223.476L111.914 224.11ZM75.0358 260.989L75.0359 223.793L74.4022 223.793L74.4021 260.989L75.0358 260.989ZM74.7191 224.11L111.914 224.11L111.914 223.476L74.7191 223.476L74.7191 224.11ZM37.8405 260.989L37.8405 223.793L37.2068 223.793L37.2068 260.989L37.8405 260.989ZM37.5236 224.11L74.7191 224.11L74.7191 223.476L37.5236 223.476L37.5236 224.11ZM0.328257 224.11L37.5236 224.11L37.5236 223.476L0.328257 223.476L0.328257 224.11ZM595.771 223.793L595.771 186.598L595.138 186.598L595.138 223.793L595.771 223.793ZM595.454 186.915L632.65 186.915L632.65 186.281L595.454 186.281L595.454 186.915ZM558.576 223.793L558.576 186.598L557.942 186.598L557.942 223.793L558.576 223.793ZM558.259 186.915L595.454 186.915L595.454 186.281L558.259 186.281L558.259 186.915ZM521.381 223.793L521.381 186.598L520.747 186.598L520.747 223.793L521.381 223.793ZM521.064 186.915L558.259 186.915L558.259 186.281L521.064 186.281L521.064 186.915ZM484.185 223.793L484.185 186.598L483.551 186.598L483.551 223.793L484.185 223.793ZM483.868 186.915L521.064 186.915L521.064 186.281L483.868 186.281L483.868 186.915ZM446.99 223.793L446.99 186.598L446.356 186.598L446.356 223.793L446.99 223.793ZM446.673 186.915L483.868 186.915L483.868 186.281L446.673 186.281L446.673 186.915ZM409.794 223.793L409.794 186.598L409.161 186.598L409.161 223.793L409.794 223.793ZM409.477 186.915L446.673 186.915L446.673 186.281L409.477 186.281L409.477 186.915ZM372.599 223.793L372.599 186.598L371.965 186.598L371.965 223.793L372.599 223.793ZM372.282 186.915L409.477 186.915L409.477 186.281L372.282 186.281L372.282 186.915ZM335.404 223.793L335.404 186.598L334.77 186.598L334.77 223.793L335.404 223.793ZM335.087 186.915L372.282 186.915L372.282 186.281L335.087 186.281L335.087 186.915ZM298.208 223.793L298.208 186.598L297.574 186.598L297.574 223.793L298.208 223.793ZM297.891 186.915L335.087 186.915L335.087 186.281L297.891 186.281L297.891 186.915ZM261.013 223.793L261.013 186.598L260.379 186.598L260.379 223.793L261.013 223.793ZM260.696 186.915L297.891 186.915L297.891 186.281L260.696 186.281L260.696 186.915ZM223.817 223.793L223.817 186.598L223.184 186.598L223.184 223.793L223.817 223.793ZM223.501 186.915L260.696 186.915L260.696 186.281L223.501 186.281L223.501 186.915ZM186.622 223.793L186.622 186.598L185.988 186.598L185.988 223.793L186.622 223.793ZM186.305 186.915L223.501 186.915L223.501 186.281L186.305 186.281L186.305 186.915ZM149.427 223.793L149.427 186.598L148.793 186.598L148.793 223.793L149.427 223.793ZM149.11 186.915L186.305 186.915L186.305 186.281L149.11 186.281L149.11 186.915ZM112.231 223.793L112.231 186.598L111.598 186.598L111.598 223.793L112.231 223.793ZM111.914 186.915L149.11 186.915L149.11 186.281L111.914 186.281L111.914 186.915ZM75.0359 223.793L75.0358 186.598L74.4021 186.598L74.4022 223.793L75.0359 223.793ZM74.719 186.915L111.914 186.915L111.914 186.281L74.719 186.281L74.719 186.915ZM37.8405 223.793L37.8405 186.598L37.2068 186.598L37.2068 223.793L37.8405 223.793ZM37.5236 186.915L74.719 186.915L74.719 186.281L37.5236 186.281L37.5236 186.915ZM0.32826 186.915L37.5236 186.915L37.5236 186.281L0.32826 186.281L0.32826 186.915ZM595.771 186.598L595.771 149.402L595.138 149.402L595.138 186.598L595.771 186.598ZM595.454 149.719L632.65 149.719L632.65 149.085L595.454 149.085L595.454 149.719ZM558.576 186.598L558.576 149.402L557.942 149.402L557.942 186.598L558.576 186.598ZM558.259 149.719L595.454 149.719L595.454 149.085L558.259 149.085L558.259 149.719ZM521.381 186.598L521.381 149.402L520.747 149.402L520.747 186.598L521.381 186.598ZM521.064 149.719L558.259 149.719L558.259 149.085L521.064 149.085L521.064 149.719ZM484.185 186.598L484.185 149.402L483.551 149.402L483.551 186.598L484.185 186.598ZM483.868 149.719L521.064 149.719L521.064 149.085L483.868 149.085L483.868 149.719ZM446.99 186.598L446.99 149.402L446.356 149.402L446.356 186.598L446.99 186.598ZM446.673 149.719L483.868 149.719L483.868 149.085L446.673 149.085L446.673 149.719ZM409.794 186.598L409.794 149.402L409.161 149.402L409.161 186.598L409.794 186.598ZM409.477 149.719L446.673 149.719L446.673 149.085L409.477 149.085L409.477 149.719ZM372.599 186.598L372.599 149.402L371.965 149.402L371.965 186.598L372.599 186.598ZM372.282 149.719L409.477 149.719L409.477 149.085L372.282 149.085L372.282 149.719ZM335.404 186.598L335.404 149.402L334.77 149.402L334.77 186.598L335.404 186.598ZM335.087 149.719L372.282 149.719L372.282 149.085L335.087 149.085L335.087 149.719ZM298.208 186.598L298.208 149.402L297.574 149.402L297.574 186.598L298.208 186.598ZM297.891 149.719L335.087 149.719L335.087 149.085L297.891 149.085L297.891 149.719ZM261.013 186.598L261.013 149.402L260.379 149.402L260.379 186.598L261.013 186.598ZM260.696 149.719L297.891 149.719L297.891 149.085L260.696 149.085L260.696 149.719ZM223.817 186.598L223.817 149.402L223.184 149.402L223.184 186.598L223.817 186.598ZM223.501 149.719L260.696 149.719L260.696 149.085L223.501 149.085L223.501 149.719ZM186.622 186.598L186.622 149.402L185.988 149.402L185.988 186.598L186.622 186.598ZM186.305 149.719L223.501 149.719L223.501 149.085L186.305 149.085L186.305 149.719ZM149.427 186.598L149.427 149.402L148.793 149.402L148.793 186.598L149.427 186.598ZM149.11 149.719L186.305 149.719L186.305 149.085L149.11 149.085L149.11 149.719ZM112.231 186.598L112.231 149.402L111.598 149.402L111.598 186.598L112.231 186.598ZM111.914 149.719L149.11 149.719L149.11 149.085L111.914 149.085L111.914 149.719ZM75.0358 186.598L75.0358 149.402L74.4021 149.402L74.4021 186.598L75.0358 186.598ZM74.719 149.719L111.914 149.719L111.914 149.085L74.719 149.085L74.719 149.719ZM37.8405 186.598L37.8405 149.402L37.2068 149.402L37.2068 186.598L37.8405 186.598ZM37.5236 149.719L74.719 149.719L74.719 149.085L37.5236 149.085L37.5236 149.719ZM0.328263 149.719L37.5236 149.719L37.5236 149.085L0.328263 149.085L0.328263 149.719ZM595.771 149.402L595.771 112.207L595.138 112.207L595.138 149.402L595.771 149.402ZM595.454 112.524L632.65 112.524L632.65 111.89L595.454 111.89L595.454 112.524ZM558.576 149.402L558.576 112.207L557.942 112.207L557.942 149.402L558.576 149.402ZM558.259 112.524L595.454 112.524L595.454 111.89L558.259 111.89L558.259 112.524ZM521.381 149.402L521.381 112.207L520.747 112.207L520.747 149.402L521.381 149.402ZM521.064 112.524L558.259 112.524L558.259 111.89L521.064 111.89L521.064 112.524ZM484.185 149.402L484.185 112.207L483.551 112.207L483.551 149.402L484.185 149.402ZM483.868 112.524L521.064 112.524L521.064 111.89L483.868 111.89L483.868 112.524ZM446.99 149.402L446.99 112.207L446.356 112.207L446.356 149.402L446.99 149.402ZM446.673 112.524L483.868 112.524L483.868 111.89L446.673 111.89L446.673 112.524ZM409.794 149.402L409.794 112.207L409.161 112.207L409.161 149.402L409.794 149.402ZM409.477 112.524L446.673 112.524L446.673 111.89L409.477 111.89L409.477 112.524ZM372.599 149.402L372.599 112.207L371.965 112.207L371.965 149.402L372.599 149.402ZM372.282 112.524L409.477 112.524L409.477 111.89L372.282 111.89L372.282 112.524ZM335.404 149.402L335.404 112.207L334.77 112.207L334.77 149.402L335.404 149.402ZM335.087 112.524L372.282 112.524L372.282 111.89L335.087 111.89L335.087 112.524ZM298.208 149.402L298.208 112.207L297.574 112.207L297.574 149.402L298.208 149.402ZM297.891 112.524L335.087 112.524L335.087 111.89L297.891 111.89L297.891 112.524ZM261.013 149.402L261.013 112.207L260.379 112.207L260.379 149.402L261.013 149.402ZM260.696 112.524L297.891 112.524L297.891 111.89L260.696 111.89L260.696 112.524ZM223.817 149.402L223.817 112.207L223.184 112.207L223.184 149.402L223.817 149.402ZM223.501 112.524L260.696 112.524L260.696 111.89L223.501 111.89L223.501 112.524ZM186.622 149.402L186.622 112.207L185.988 112.207L185.988 149.402L186.622 149.402ZM186.305 112.524L223.501 112.524L223.501 111.89L186.305 111.89L186.305 112.524ZM149.427 149.402L149.427 112.207L148.793 112.207L148.793 149.402L149.427 149.402ZM149.11 112.524L186.305 112.524L186.305 111.89L149.11 111.89L149.11 112.524ZM112.231 149.402L112.231 112.207L111.598 112.207L111.598 149.402L112.231 149.402ZM111.914 112.524L149.11 112.524L149.11 111.89L111.914 111.89L111.914 112.524ZM75.0358 149.402L75.0358 112.207L74.4021 112.207L74.4021 149.402L75.0358 149.402ZM74.719 112.524L111.914 112.524L111.914 111.89L74.719 111.89L74.719 112.524ZM37.8405 149.402L37.8405 112.207L37.2068 112.207L37.2068 149.402L37.8405 149.402ZM37.5236 112.524L74.719 112.524L74.719 111.89L37.5236 111.89L37.5236 112.524ZM0.328267 112.524L37.5236 112.524L37.5236 111.89L0.328267 111.89L0.328267 112.524ZM595.771 112.207L595.771 75.0118L595.138 75.0118L595.138 112.207L595.771 112.207ZM595.454 75.3286L632.65 75.3286L632.65 74.6949L595.454 74.6949L595.454 75.3286ZM558.576 112.207L558.576 75.0118L557.942 75.0118L557.942 112.207L558.576 112.207ZM558.259 75.3287L595.454 75.3286L595.454 74.6949L558.259 74.6949L558.259 75.3287ZM521.381 112.207L521.381 75.0118L520.747 75.0118L520.747 112.207L521.381 112.207ZM521.064 75.3287L558.259 75.3287L558.259 74.6949L521.064 74.6949L521.064 75.3287ZM484.185 112.207L484.185 75.0118L483.551 75.0118L483.551 112.207L484.185 112.207ZM483.868 75.3287L521.064 75.3287L521.064 74.6949L483.868 74.6949L483.868 75.3287ZM446.99 112.207L446.99 75.0118L446.356 75.0118L446.356 112.207L446.99 112.207ZM446.673 75.3287L483.868 75.3287L483.868 74.6949L446.673 74.6949L446.673 75.3287ZM409.794 112.207L409.794 75.0118L409.161 75.0118L409.161 112.207L409.794 112.207ZM409.477 75.3287L446.673 75.3287L446.673 74.6949L409.477 74.6949L409.477 75.3287ZM372.599 112.207L372.599 75.0118L371.965 75.0118L371.965 112.207L372.599 112.207ZM372.282 75.3287L409.477 75.3287L409.477 74.6949L372.282 74.6949L372.282 75.3287ZM335.404 112.207L335.404 75.0118L334.77 75.0118L334.77 112.207L335.404 112.207ZM335.087 75.3286L372.282 75.3287L372.282 74.6949L335.087 74.6949L335.087 75.3286ZM298.208 112.207L298.208 75.0118L297.574 75.0118L297.574 112.207L298.208 112.207ZM297.891 75.3286L335.087 75.3286L335.087 74.6949L297.891 74.6949L297.891 75.3286ZM261.013 112.207L261.013 75.0118L260.379 75.0118L260.379 112.207L261.013 112.207ZM260.696 75.3286L297.891 75.3286L297.891 74.6949L260.696 74.6949L260.696 75.3286ZM223.817 112.207L223.817 75.0118L223.184 75.0118L223.184 112.207L223.817 112.207ZM223.501 75.3286L260.696 75.3286L260.696 74.6949L223.501 74.6949L223.501 75.3286ZM186.622 112.207L186.622 75.0118L185.988 75.0118L185.988 112.207L186.622 112.207ZM186.305 75.3286L223.501 75.3286L223.501 74.6949L186.305 74.6949L186.305 75.3286ZM149.427 112.207L149.427 75.0118L148.793 75.0118L148.793 112.207L149.427 112.207ZM149.11 75.3286L186.305 75.3286L186.305 74.6949L149.11 74.6949L149.11 75.3286ZM112.231 112.207L112.231 75.0118L111.598 75.0118L111.598 112.207L112.231 112.207ZM111.914 75.3286L149.11 75.3286L149.11 74.6949L111.914 74.6949L111.914 75.3286ZM75.0358 112.207L75.0359 75.0118L74.4021 75.0118L74.4021 112.207L75.0358 112.207ZM74.719 75.3286L111.914 75.3286L111.914 74.6949L74.719 74.6949L74.719 75.3286ZM37.8405 112.207L37.8405 75.0118L37.2068 75.0118L37.2068 112.207L37.8405 112.207ZM37.5236 75.3286L74.719 75.3286L74.719 74.6949L37.5236 74.6949L37.5236 75.3286ZM0.32827 75.3286L37.5236 75.3286L37.5236 74.6949L0.32827 74.6949L0.32827 75.3286ZM595.771 75.0118L595.771 37.8163L595.138 37.8163L595.138 75.0118L595.771 75.0118ZM595.454 38.1331L632.65 38.1331L632.65 37.4994L595.454 37.4994L595.454 38.1331ZM558.576 75.0118L558.576 37.8162L557.942 37.8162L557.942 75.0118L558.576 75.0118ZM558.259 38.1331L595.454 38.1331L595.454 37.4994L558.259 37.4994L558.259 38.1331ZM521.381 75.0118L521.381 37.8162L520.747 37.8162L520.747 75.0118L521.381 75.0118ZM521.064 38.1331L558.259 38.1331L558.259 37.4994L521.064 37.4994L521.064 38.1331ZM484.185 75.0118L484.185 37.8162L483.551 37.8162L483.551 75.0118L484.185 75.0118ZM483.868 38.1331L521.064 38.1331L521.064 37.4994L483.868 37.4994L483.868 38.1331ZM446.99 75.0118L446.99 37.8162L446.356 37.8162L446.356 75.0118L446.99 75.0118ZM446.673 38.1331L483.868 38.1331L483.868 37.4994L446.673 37.4994L446.673 38.1331ZM409.794 75.0118L409.794 37.8162L409.161 37.8162L409.161 75.0118L409.794 75.0118ZM409.477 38.1331L446.673 38.1331L446.673 37.4994L409.477 37.4994L409.477 38.1331ZM372.599 75.0118L372.599 37.8162L371.965 37.8162L371.965 75.0118L372.599 75.0118ZM372.282 38.1331L409.477 38.1331L409.477 37.4994L372.282 37.4994L372.282 38.1331ZM335.404 75.0118L335.404 37.8162L334.77 37.8162L334.77 75.0118L335.404 75.0118ZM335.087 38.1331L372.282 38.1331L372.282 37.4994L335.087 37.4994L335.087 38.1331ZM298.208 75.0118L298.208 37.8162L297.574 37.8162L297.574 75.0118L298.208 75.0118ZM297.891 38.1331L335.087 38.1331L335.087 37.4994L297.891 37.4994L297.891 38.1331ZM261.013 75.0118L261.013 37.8162L260.379 37.8162L260.379 75.0118L261.013 75.0118ZM260.696 38.1331L297.891 38.1331L297.891 37.4994L260.696 37.4994L260.696 38.1331ZM223.817 75.0118L223.817 37.8162L223.184 37.8162L223.184 75.0118L223.817 75.0118ZM223.501 38.1331L260.696 38.1331L260.696 37.4994L223.501 37.4994L223.501 38.1331ZM186.622 75.0118L186.622 37.8162L185.988 37.8162L185.988 75.0118L186.622 75.0118ZM186.305 38.1331L223.501 38.1331L223.501 37.4994L186.305 37.4994L186.305 38.1331ZM149.427 75.0118L149.427 37.8162L148.793 37.8162L148.793 75.0118L149.427 75.0118ZM149.11 38.1331L186.305 38.1331L186.305 37.4994L149.11 37.4993L149.11 38.1331ZM112.231 75.0118L112.231 37.8162L111.598 37.8162L111.598 75.0118L112.231 75.0118ZM111.914 38.1331L149.11 38.1331L149.11 37.4993L111.914 37.4993L111.914 38.1331ZM75.0359 75.0118L75.0359 37.8162L74.4022 37.8162L74.4021 75.0118L75.0359 75.0118ZM74.7191 38.1331L111.914 38.1331L111.914 37.4993L74.7191 37.4993L74.7191 38.1331ZM37.8405 75.0118L37.8405 37.8162L37.2068 37.8162L37.2068 75.0118L37.8405 75.0118ZM37.5236 38.1331L74.7191 38.1331L74.7191 37.4993L37.5236 37.4993L37.5236 38.1331ZM0.328273 38.1331L37.5236 38.1331L37.5236 37.4993L0.328273 37.4993L0.328273 38.1331ZM595.771 37.8163L595.771 0.620907L595.138 0.620907L595.138 37.8163L595.771 37.8163ZM558.576 37.8162L558.576 0.620782L557.942 0.620782L557.942 37.8162L558.576 37.8162ZM521.381 37.8162L521.381 0.620779L520.747 0.620779L520.747 37.8162L521.381 37.8162ZM484.185 37.8162L484.185 0.620776L483.551 0.620776L483.551 37.8162L484.185 37.8162ZM446.99 37.8162L446.99 0.620772L446.356 0.620772L446.356 37.8162L446.99 37.8162ZM409.794 37.8162L409.794 0.620769L409.161 0.620769L409.161 37.8162L409.794 37.8162ZM372.599 37.8162L372.599 0.620766L371.965 0.620766L371.965 37.8162L372.599 37.8162ZM335.404 37.8162L335.404 0.620763L334.77 0.620763L334.77 37.8162L335.404 37.8162ZM298.208 37.8162L298.208 0.620759L297.574 0.620759L297.574 37.8162L298.208 37.8162ZM261.013 37.8162L261.013 0.620756L260.379 0.620756L260.379 37.8162L261.013 37.8162ZM223.817 37.8162L223.817 0.620753L223.184 0.620753L223.184 37.8162L223.817 37.8162ZM186.622 37.8162L186.622 0.62075L185.988 0.62075L185.988 37.8162L186.622 37.8162ZM149.427 37.8162L149.427 0.620746L148.793 0.620746L148.793 37.8162L149.427 37.8162ZM112.231 37.8162L112.231 0.620743L111.598 0.620743L111.598 37.8162L112.231 37.8162ZM75.0359 37.8162L75.0359 0.62074L74.4022 0.62074L74.4022 37.8162L75.0359 37.8162ZM37.8405 37.8162L37.8405 0.620737L37.2068 0.620737L37.2068 37.8162L37.8405 37.8162ZM632.65 335.379L632.65 336.013L633.284 336.013L633.284 335.379L632.65 335.379ZM595.454 335.379L595.454 334.746L595.454 335.379ZM632.65 298.184L633.284 298.184L632.65 298.184ZM558.259 335.379L558.259 336.013L558.259 335.379ZM0.328247 335.379L-0.305481 335.379L-0.305481 336.013L0.328247 336.013L0.328247 335.379ZM632.65 260.989L632.016 260.989L632.65 260.989ZM632.65 223.793L633.284 223.793L632.65 223.793ZM632.65 186.598L632.016 186.598L632.65 186.598ZM632.65 75.0118L632.016 75.0118L632.65 75.0118ZM632.65 37.8163L633.284 37.8163L632.65 37.8163ZM595.454 0.620907L595.454 1.25464L595.454 0.620907ZM632.65 0.620911L633.284 0.620911L633.284 -0.0128478L632.65 -0.0128479L632.65 0.620911ZM558.259 0.620782L558.259 -0.0129765L558.259 -0.0129765L558.259 0.620782ZM0.328276 0.620733L0.328276 -0.0130253L-0.305452 -0.0130253L-0.305452 0.620733L0.328276 0.620733ZM632.65 334.746L595.454 334.746L595.454 336.013L632.65 336.013L632.65 334.746ZM632.016 298.184L632.016 335.379L633.284 335.379L633.284 298.184L632.016 298.184ZM595.454 334.746L558.259 334.746L558.259 336.013L595.454 336.013L595.454 334.746ZM558.259 334.746L521.064 334.746L521.064 336.013L558.259 336.013L558.259 334.746ZM521.064 334.746L483.868 334.746L483.868 336.013L521.064 336.013L521.064 334.746ZM483.868 334.746L446.673 334.746L446.673 336.013L483.868 336.013L483.868 334.746ZM446.673 334.746L409.477 334.746L409.477 336.013L446.673 336.013L446.673 334.746ZM409.477 334.746L372.282 334.746L372.282 336.013L409.477 336.013L409.477 334.746ZM372.282 334.746L335.087 334.746L335.087 336.013L372.282 336.013L372.282 334.746ZM335.087 334.746L297.891 334.746L297.891 336.013L335.087 336.013L335.087 334.746ZM297.891 334.746L260.696 334.746L260.696 336.013L297.891 336.013L297.891 334.746ZM260.696 334.746L223.501 334.746L223.501 336.013L260.696 336.013L260.696 334.746ZM223.501 334.746L186.305 334.746L186.305 336.013L223.501 336.013L223.501 334.746ZM186.305 334.746L149.11 334.746L149.11 336.013L186.305 336.013L186.305 334.746ZM149.11 334.746L111.914 334.746L111.914 336.013L149.11 336.013L149.11 334.746ZM111.914 334.746L74.7191 334.746L74.7191 336.013L111.914 336.013L111.914 334.746ZM74.7191 334.746L37.5236 334.746L37.5236 336.013L74.7191 336.013L74.7191 334.746ZM37.5236 334.746L0.328247 334.746L0.328247 336.013L37.5236 336.013L37.5236 334.746ZM0.961975 335.379L0.961978 298.184L-0.305478 298.184L-0.305481 335.379L0.961975 335.379ZM632.016 260.989L632.016 298.184L633.284 298.184L633.284 260.989L632.016 260.989ZM0.961978 298.184L0.961982 260.989L-0.305474 260.989L-0.305478 298.184L0.961978 298.184ZM632.016 223.793L632.016 260.989L633.284 260.989L633.284 223.793L632.016 223.793ZM0.961982 260.989L0.961985 223.793L-0.305471 223.793L-0.305474 260.989L0.961982 260.989ZM632.016 186.598L632.016 223.793L633.284 223.793L633.284 186.598L632.016 186.598ZM0.961985 223.793L0.961988 186.598L-0.305468 186.598L-0.305471 223.793L0.961985 223.793ZM632.016 149.402L632.016 186.598L633.284 186.598L633.284 149.402L632.016 149.402ZM0.961988 186.598L0.961991 149.402L-0.305465 149.402L-0.305468 186.598L0.961988 186.598ZM632.016 112.207L632.016 149.402L633.284 149.402L633.284 112.207L632.016 112.207ZM0.961991 149.402L0.961995 112.207L-0.305461 112.207L-0.305465 149.402L0.961991 149.402ZM632.016 75.0118L632.016 112.207L633.284 112.207L633.284 75.0118L632.016 75.0118ZM0.961995 112.207L0.961998 75.0118L-0.305458 75.0118L-0.305461 112.207L0.961995 112.207ZM632.016 37.8163L632.016 75.0118L633.284 75.0118L633.284 37.8163L632.016 37.8163ZM0.961998 75.0118L0.962001 37.8162L-0.305455 37.8162L-0.305458 75.0118L0.961998 75.0118ZM595.454 1.25464L632.65 1.25464L632.65 -0.0128479L595.454 -0.0128512L595.454 1.25464ZM632.016 0.620911L632.016 37.8163L633.284 37.8163L633.284 0.620911L632.016 0.620911ZM558.259 1.25451L595.454 1.25464L595.454 -0.0128512L558.259 -0.0129765L558.259 1.25451ZM521.064 1.25451L558.259 1.25451L558.259 -0.0129765L521.064 -0.0129797L521.064 1.25451ZM483.868 1.2545L521.064 1.25451L521.064 -0.0129797L483.868 -0.012983L483.868 1.2545ZM446.673 1.2545L483.868 1.2545L483.868 -0.012983L446.673 -0.0129862L446.673 1.2545ZM409.477 1.2545L446.673 1.2545L446.673 -0.0129862L409.477 -0.0129895L409.477 1.2545ZM372.282 1.25449L409.477 1.2545L409.477 -0.0129895L372.282 -0.0129927L372.282 1.25449ZM335.087 1.25449L372.282 1.25449L372.282 -0.0129927L335.087 -0.012996L335.087 1.25449ZM297.891 1.25449L335.087 1.25449L335.087 -0.012996L297.891 -0.0129992L297.891 1.25449ZM260.696 1.25448L297.891 1.25449L297.891 -0.0129992L260.696 -0.0130025L260.696 1.25448ZM223.501 1.25448L260.696 1.25448L260.696 -0.0130025L223.501 -0.0130057L223.501 1.25448ZM186.305 1.25448L223.501 1.25448L223.501 -0.0130057L186.305 -0.013009L186.305 1.25448ZM149.11 1.25447L186.305 1.25448L186.305 -0.013009L149.11 -0.0130122L149.11 1.25447ZM111.914 1.25447L149.11 1.25447L149.11 -0.0130122L111.914 -0.0130155L111.914 1.25447ZM74.7191 1.25447L111.914 1.25447L111.914 -0.0130155L74.7191 -0.0130187L74.7191 1.25447ZM37.5236 1.25446L74.7191 1.25447L74.7191 -0.0130187L37.5236 -0.013022L37.5236 1.25446ZM0.962001 37.8162L0.962004 0.620733L-0.305452 0.620733L-0.305455 37.8162L0.962001 37.8162ZM0.328276 1.25446L37.5236 1.25446L37.5236 -0.013022L0.328276 -0.0130253L0.328276 1.25446Z" fill="url(#paint0_radial_8_128)" mask="url(#path-1-inside-1_8_128)"/>
<defs>
<radialGradient id="paint0_radial_8_128" cx="0" cy="0" r="1" gradientUnits="userSpaceOnUse" gradientTransform="translate(539.164 -50.3362) rotate(140.224) scale(624.983 1180.52)">
<stop offset="0.021532" stop-color="white"/>
<stop offset="1" stop-color="#636363" stop-opacity="0"/>
<stop offset="1" stop-color="white" stop-opacity="0"/>
</radialGradient>
</defs>
</svg>
