<svg width="52" height="52" viewBox="0 0 52 52" fill="none" xmlns="http://www.w3.org/2000/svg">
<rect x="4" y="16" width="12" height="4" fill="#9999FF"/>
<rect x="4" y="48" width="12" height="4" fill="#9999FF"/>
<rect x="20" y="48" width="20" height="4" fill="#9999FF"/>
<rect x="20" y="16" width="4" height="4" fill="#9999FF"/>
<rect x="28" y="4" width="4" height="4" fill="#9999FF"/>
<rect x="28" width="8" height="4" fill="#9999FF"/>
<rect x="36" y="4" width="4" height="4" fill="#9999FF"/>
<rect x="36" y="8" width="4" height="4" fill="#9999FF"/>
<rect x="36" y="12" width="4" height="4" fill="#9999FF"/>
<rect x="32" y="16" width="4" height="4" fill="#9999FF"/>
<rect x="32" y="20" width="4" height="4" fill="#9999FF"/>
<rect x="24" y="8" width="4" height="8" fill="#9999FF"/>
<rect x="40" y="44" width="4" height="4" fill="#9999FF"/>
<rect x="44" y="36" width="4" height="4" fill="#9999FF"/>
<rect x="48" y="28" width="4" height="4" fill="#9999FF"/>
<rect x="28" y="40" width="16" height="4" fill="#9999FF"/>
<rect x="32" y="32" width="16" height="4" fill="#9999FF"/>
<rect x="36" y="24" width="16" height="4" fill="#9999FF"/>
<rect y="20" width="4" height="28" fill="#9999FF"/>
<rect x="16" y="20" width="4" height="28" fill="#9999FF"/>
</svg>
