<svg width="144" height="32" viewBox="0 0 144 32" fill="none" xmlns="http://www.w3.org/2000/svg">
<g clip-path="url(#clip0_8845_8981)">
<path d="M87.3771 12.6341C86.163 12.6341 85.0576 13.0252 84.2366 13.6567V12.8745H82.7989V21.8182H84.2366V19.0646C85.0576 19.6961 86.1598 20.0872 87.3771 20.0872C89.9009 20.0872 91.952 18.417 91.952 16.3622C91.952 14.3075 89.9009 12.6341 87.3771 12.6341ZM87.3771 18.6446C85.6455 18.6446 84.2366 17.6188 84.2366 16.3622C84.2366 15.1057 85.6455 14.0799 87.3771 14.0799C89.1086 14.0799 90.5143 15.1057 90.5143 16.3622C90.5143 17.6188 89.1086 18.6446 87.3771 18.6446Z" fill="white"/>
<path d="M76.3071 12.6341C75.0931 12.6341 73.9877 13.0252 73.1667 13.6567V12.8745H71.729V21.8182H73.1667V19.0646C73.9877 19.6961 75.0899 20.0872 76.3071 20.0872C78.831 20.0872 80.8821 18.417 80.8821 16.3622C80.8821 14.3075 78.831 12.6341 76.3071 12.6341ZM76.3071 18.6446C74.5756 18.6446 73.1667 17.6188 73.1667 16.3622C73.1667 15.1057 74.5756 14.0799 76.3071 14.0799C78.0387 14.0799 79.4444 15.1057 79.4444 16.3622C79.4444 17.6188 78.0387 18.6446 76.3071 18.6446Z" fill="white"/>
<path d="M141.289 15.5288H139.232C138.558 15.5288 138.088 15.1409 138.088 14.7947C138.088 14.4453 138.558 14.0574 139.232 14.0574H143.136V12.6341H139.232C137.816 12.6341 136.666 13.6022 136.666 14.7947C136.666 15.984 137.816 16.9521 139.232 16.9521H141.289C141.966 16.9521 142.436 17.34 142.436 17.6862C142.436 18.0324 141.966 18.4203 141.289 18.4203H137.149V19.8467H141.289C142.704 19.8467 143.858 18.8787 143.858 17.6862C143.855 16.4969 142.704 15.5288 141.289 15.5288Z" fill="white"/>
<path d="M112.552 20.0872C110.028 20.0872 107.974 18.417 107.974 16.3622C107.974 14.3075 110.028 12.6373 112.552 12.6373C115.076 12.6373 117.127 14.3075 117.127 16.3622C117.127 18.417 115.076 20.0872 112.552 20.0872ZM112.552 14.0766C110.82 14.0766 109.412 15.1024 109.412 16.359C109.412 17.6156 110.82 18.6414 112.552 18.6414C114.284 18.6414 115.689 17.6156 115.689 16.359C115.689 15.1024 114.284 14.0766 112.552 14.0766Z" fill="white"/>
<path d="M106.22 10.9031H104.782V19.8467H106.22V10.9031Z" fill="white"/>
<path d="M125.159 18.2247C124.644 18.4876 124.021 18.6446 123.344 18.6446C121.612 18.6446 120.203 17.6188 120.203 16.3623C120.203 15.1057 121.612 14.0799 123.344 14.0799C124.021 14.0799 124.644 14.2369 125.159 14.503V14.4998L126.539 13.6984C125.715 13.0412 124.587 12.6341 123.344 12.6341C120.82 12.6341 118.766 14.3042 118.766 16.359C118.766 18.4138 120.82 20.084 123.344 20.084C124.587 20.084 125.715 19.6769 126.539 19.0197L125.159 18.2247Z" fill="white"/>
<path d="M103.025 16.3622C103.025 14.3074 100.971 12.6373 98.4502 12.6373C97.2362 12.6373 96.1308 13.0284 95.3097 13.6599V10.9031H93.8721V19.8467H95.3097V19.0646C96.1308 19.6961 97.233 20.0871 98.4502 20.0871C100.971 20.0871 103.025 18.417 103.025 16.3622ZM101.587 16.3622C101.587 17.622 100.179 18.6446 98.4502 18.6446C96.7186 18.6446 95.3097 17.6188 95.3097 16.3622C95.3097 15.1056 96.7186 14.0798 98.4502 14.0798C100.179 14.0766 101.587 15.1024 101.587 16.3622Z" fill="white"/>
<path d="M135.174 12.8745H133.142L130.919 15.1024L129.9 16.1218L129.654 16.3686V10.9031H128.216V19.8467H129.654V18.4106L130.919 17.1444L133.612 19.8467H135.644L131.935 16.1218L135.174 12.8745Z" fill="white"/>
<path d="M65.0359 13.5253L68.186 19.8467H69.8505L65.0359 10.1818L60.2182 19.8467H61.8827L65.0359 13.5253Z" fill="white"/>
</g>
<g clip-path="url(#clip1_8845_8981)">
<path d="M31.008 0L25.248 3.328V11.36L33.312 16L25.248 20.672V28.704L31.008 32.032L51.776 20.032V12L31.008 0ZM26.528 10.624V4.8L33.824 9.024H33.856L39.648 12.352L34.624 15.264L26.528 10.624ZM30.368 30.144L26.528 27.936V22.144L30.368 24.352V30.144ZM27.168 21.024L42.176 12.352L27.168 3.712L31.008 1.504L49.856 12.384L31.008 23.264L27.168 21.024ZM50.496 19.264L31.648 30.144V24.352L50.496 13.472V19.264Z" fill="white"/>
<path d="M26.528 11.36V3.328L20.768 0L0 12V20.032L20.768 32L26.528 28.672V20.64L18.464 16L26.528 11.36ZM20.128 30.144L1.28 19.264V13.472L20.128 24.352V30.144ZM25.248 27.936L21.408 30.144V24.352L25.248 22.144V27.936ZM20.768 23.232L1.92 12.352L20.768 1.472L24.608 3.68L9.6 12.352L24.608 21.024L20.768 23.232ZM12.16 12.352L17.952 9.024H17.984L25.216 4.832L25.248 4.8V10.592L17.184 15.264L12.16 12.352Z" fill="white"/>
</g>
<defs>
<clipPath id="clip0_8845_8981">
<rect width="84" height="11.2" fill="white" transform="translate(60 10.4)"/>
</clipPath>
<clipPath id="clip1_8845_8981">
<rect width="52.4166" height="32" fill="white"/>
</clipPath>
</defs>
</svg>
