<svg width="26" height="28" viewBox="0 0 26 28" fill="none" xmlns="http://www.w3.org/2000/svg">
<path d="M21.0001 11V10.666C21.0001 9.19398 19.8061 7.99998 18.334 7.99998H16C15.2043 7.99998 14.4413 8.31605 13.8786 8.87866C13.3161 9.44128 13 10.2043 13 11C13 11.7956 13.3161 12.5587 13.8786 13.1213C14.4413 13.6839 15.2043 14 16 14H18.0001C18.7956 14 19.5588 14.316 20.1213 14.8787C20.6839 15.4413 21.0001 16.2043 21.0001 17C21.0001 17.7956 20.6839 18.5587 20.1213 19.1214C19.5588 19.6839 18.7956 20 18.0001 20H16C15.2043 20 14.4413 19.6839 13.8786 19.1214C13.3161 18.5587 13 17.7956 13 17M8.99998 6.99999V17.528C8.99996 18.2709 8.79299 18.9993 8.4023 19.6312C8.01161 20.2633 7.45262 20.7738 6.78799 21.1061L4.99999 21.9999M1 20V7.99998L13 1L25 7.99998V20L13 26.9999L1 20Z" stroke="white" stroke-opacity="0.8" stroke-width="1.5"/>
</svg>
