<?xml version="1.0" standalone="no"?>
<!DOCTYPE svg PUBLIC "-//W3C//DTD SVG 1.1//EN" "http://www.w3.org/Graphics/SVG/1.1/DTD/svg11.dtd" >
<svg xmlns="http://www.w3.org/2000/svg" xmlns:xlink="http://www.w3.org/1999/xlink" version="1.1">
<metadata></metadata>
<defs>
<font id="gt_flexa_trialbd" horiz-adv-x="1628" >
<font-face units-per-em="2048" ascent="1638" descent="-410" />
<missing-glyph horiz-adv-x="501" />
<glyph horiz-adv-x="0" />
<glyph horiz-adv-x="682" />
<glyph unicode=" "  horiz-adv-x="501" />
<glyph unicode="&#x09;" horiz-adv-x="501" />
<glyph unicode="&#xa0;" horiz-adv-x="501" />
<glyph unicode="," horiz-adv-x="585" d="M104 0v346h373v-307q0 -389 -373 -389v198q93 0 134 35t41 117h-175z" />
<glyph unicode="-" horiz-adv-x="862" d="M96 461v282h668v-282h-668z" />
<glyph unicode="." horiz-adv-x="575" d="M100 0v346h375v-346h-375z" />
<glyph unicode="0" horiz-adv-x="1320" d="M86 717q0 234 57 389q130 358 519 358q192 0 322.5 -90.5t193.5 -267.5q57 -155 57 -389q0 -226 -57 -389q-63 -177 -193.5 -268t-322.5 -91q-193 0 -324.5 91t-194.5 268q-57 163 -57 389zM422 717q0 -198 37 -299q58 -158 203 -158q142 0 200 158q37 101 37 299 t-37 299q-55 158 -200 158q-148 0 -203 -158q-37 -110 -37 -299z" />
<glyph unicode="1" horiz-adv-x="985" d="M37 788v349h102q128 0 193 76.5t65 220.5h416v-1434h-319v1145h-41q-10 -182 -87.5 -269.5t-224.5 -87.5h-104z" />
<glyph unicode="2" horiz-adv-x="1148" d="M61 924v49q0 220 141 355.5t371 135.5q240 0 381 -141q119 -119 119 -301q0 -165 -71 -278t-254 -207l-347 -203v-43h672v-291h-964v467l450 281q102 63 143 124t41 134q0 72 -45 120q-48 48 -125 48q-87 0 -137.5 -55.5t-50.5 -151.5v-43h-324z" />
<glyph unicode="3" horiz-adv-x="1140" d="M47 434v15h324v-11q0 -94 50 -141t142 -47q84 0 133 49q43 43 43 109q0 69 -39 108q-53 53 -153 53h-92v297h92q99 0 153 54q39 39 39 106q0 66 -43 109q-49 49 -133 49q-91 0 -141.5 -49.5t-50.5 -137.5v-12h-324v16q0 215 138.5 339t377.5 124q256 0 393 -137 q107 -104 107 -266q0 -132 -86 -221q-83 -83 -221 -101v-43q136 -15 221 -100q86 -89 86 -223q0 -163 -107 -267q-137 -137 -393 -137q-240 0 -378 124.5t-138 340.5z" />
<glyph unicode="4" horiz-adv-x="1241" d="M66 440v449l460 545h465v-701h223v-293h-223v-440h-319v440h-606zM305 733h367v438h-41l-326 -397v-41z" />
<glyph unicode="5" horiz-adv-x="1148" d="M76 395v11h323v-5q0 -62 50 -105.5t124 -43.5q83 0 132 49q55 55 55 152q0 92 -51 143q-48 45 -111 45q-95 0 -133 -74h-342v867h960v-297h-661v-361h43q36 64 100 99.5t148 35.5q148 0 245 -102q129 -126 129 -352q0 -214 -131 -348q-140 -140 -383 -140 q-221 0 -359 118t-138 308z" />
<glyph unicode="6" horiz-adv-x="1206" d="M86 662q0 266 64 446q130 356 509 356q215 0 347.5 -121.5t132.5 -316.5v-10h-322v8q0 73 -46 116.5t-124 43.5q-252 0 -252 -463h43q88 190 297 190q163 0 277 -114q127 -127 127 -336q0 -212 -138 -350q-142 -142 -376 -142q-177 0 -300.5 87t-185.5 253 q-53 145 -53 353zM426 442q0 -88 53 -141q55 -55 146 -55q90 0 145 55q53 53 53 141q0 87 -53 140q-57 57 -145 57q-89 0 -146 -57q-53 -53 -53 -140z" />
<glyph unicode="7" horiz-adv-x="1087" d="M37 1137v297h999v-463l-532 -971h-357l627 1096v41h-737z" />
<glyph unicode="8" horiz-adv-x="1177" d="M78 373q0 134 86 223q85 85 217 100v43q-134 18 -217 101q-86 89 -86 221q0 163 106 266q137 137 404 137q268 0 405 -137q107 -107 107 -266q0 -133 -88 -221q-83 -83 -215 -101v-43q130 -15 215 -100q88 -88 88 -223q0 -160 -107 -267q-137 -137 -405 -137 q-267 0 -404 137q-106 103 -106 267zM395 406q0 -70 43 -113q55 -55 150 -55q97 0 149 55q45 42 45 113q0 73 -43 116q-53 53 -151 53q-97 0 -150 -53q-43 -40 -43 -116zM395 1030q0 -74 43 -117q54 -51 150 -51q97 0 151 51q43 46 43 117q0 68 -45 113q-53 53 -149 53 q-94 0 -150 -53q-43 -46 -43 -113z" />
<glyph unicode="9" horiz-adv-x="1206" d="M68 408v10h321v-8q0 -73 46 -116.5t124 -43.5q252 0 252 463h-43q-88 -191 -297 -191q-161 0 -276 115q-127 127 -127 336q0 213 137 350q141 141 377 141q176 0 299.5 -87t185.5 -253q53 -145 53 -352q0 -269 -63 -446q-130 -357 -510 -357q-215 0 -347 121.5 t-132 317.5zM383 991q0 -86 53 -139q57 -57 146 -57q88 0 145 57q53 53 53 139q0 89 -53 142q-55 55 -145 55q-91 0 -146 -55q-53 -53 -53 -142z" />
<glyph unicode="A" horiz-adv-x="1490" d="M31 0l454 1434h523l454 -1434h-354l-121 406h-481l-121 -406h-354zM594 705h305l-117 389l-16 157h-41l-14 -157z" />
<glyph unicode="B" horiz-adv-x="1292" d="M152 0v1434h571q159 0 269 -49t163 -142q43 -73 43 -180q0 -104 -41 -172q-82 -144 -280 -152v-43q194 -8 280 -153q41 -68 41 -172q0 -108 -43 -181q-53 -93 -163 -141.5t-269 -48.5h-571zM475 287h199q118 0 160 65q18 35 18 82q0 46 -18 80q-43 70 -160 70h-199v-297z M475 850h199q117 0 160 70q18 34 18 79q0 47 -18 82q-43 66 -160 66h-199v-297z" />
<glyph unicode="C" horiz-adv-x="1540" d="M66 717q0 160 47 293q77 215 259.5 337.5t430.5 122.5q289 0 472 -150.5t202 -408.5h-349q-17 116 -104.5 184t-220.5 68q-126 0 -220.5 -69t-136.5 -187q-30 -74 -30 -190q0 -114 30 -191q42 -118 135.5 -186t217.5 -68q127 0 209.5 67t99.5 183h348q-19 -251 -197 -405 t-464 -154q-242 0 -423.5 123.5t-258.5 337.5q-47 133 -47 293z" />
<glyph unicode="D" horiz-adv-x="1495" d="M152 0v1434h571q244 0 415.5 -111.5t243.5 -314.5q48 -133 48 -291q0 -160 -48 -293q-72 -202 -243 -313t-416 -111h-571zM485 307h248q115 0 197.5 61.5t120.5 168.5q30 79 30 180t-30 184q-39 105 -122 165t-196 60h-248v-819z" />
<glyph unicode="E" horiz-adv-x="1159" d="M152 0v1434h901v-308h-568v-260h547v-297h-547v-262h568v-307h-901z" />
<glyph unicode="F" horiz-adv-x="1114" d="M152 0v1434h901v-308h-568v-280h537v-297h-537v-549h-333z" />
<glyph unicode="G" horiz-adv-x="1560" d="M66 700q0 176 51 310q77 216 259 338t433 122q281 0 464 -149.5t202 -392.5h-347q-20 111 -107 173t-214 62q-131 0 -224 -67.5t-137 -186.5q-30 -89 -30 -207q0 -125 33 -215q42 -114 129.5 -177.5t207.5 -63.5q131 0 218.5 72.5t101.5 187.5h-348v274h665v-780h-290 l65 293h-41q-112 -330 -450 -330q-205 0 -363 114t-227 308q-51 140 -51 315z" />
<glyph unicode="H" horiz-adv-x="1511" d="M152 0v1434h333v-562h539v562h334v-1434h-334v565h-539v-565h-333z" />
<glyph unicode="I" horiz-adv-x="638" d="M152 0v1434h333v-1434h-333z" />
<glyph unicode="J" horiz-adv-x="1191" d="M61 449v331h334v-305q0 -105 42.5 -154t127.5 -49q166 0 166 220v942h334v-967q0 -238 -134.5 -371t-373.5 -133q-242 0 -369 125t-127 361z" />
<glyph unicode="K" horiz-adv-x="1368" d="M152 0v1434h333v-543l-82 -184h43l529 727h366l-485 -664l475 -770h-391l-313 530l-142 -190v-340h-333z" />
<glyph unicode="L" horiz-adv-x="1097" d="M152 0v1434h333v-1127h568v-307h-901z" />
<glyph unicode="M" horiz-adv-x="1939" d="M152 0v1434h528l258 -1031l12 -200h39l12 200l259 1031h528v-1434h-322v1231h-41l-14 -322l-233 -909h-414l-236 909l-14 322h-41v-1231h-321z" />
<glyph unicode="N" horiz-adv-x="1511" d="M152 0v1434h487l340 -830l37 -401h41v1231h301v-1434h-486l-344 831l-32 400h-41v-1231h-303z" />
<glyph unicode="O" d="M66 717q0 160 47 293q77 215 261 337.5t439 122.5q256 0 440 -122.5t260 -337.5q50 -133 50 -293t-50 -293q-78 -215 -260.5 -338t-437.5 -123q-256 0 -440.5 122t-261.5 339q-47 133 -47 293zM416 717q0 -114 30 -191q42 -119 138 -186.5t229 -67.5q134 0 230 66.5 t139 187.5q30 89 30 191q0 105 -30 190q-44 119 -139.5 187.5t-229.5 68.5q-133 0 -229 -68.5t-138 -187.5q-30 -74 -30 -190z" />
<glyph unicode="P" horiz-adv-x="1269" d="M152 0v1434h579q148 0 260.5 -58.5t173.5 -163.5q60 -105 60 -235q0 -136 -60 -238q-61 -105 -173.5 -164t-260.5 -59h-246v-516h-333zM485 809h215q120 0 164 80q23 39 23 88q0 47 -23 86q-45 78 -164 78h-215v-332z" />
<glyph unicode="Q" d="M66 717q0 160 47 293q77 215 261 337.5t439 122.5q256 0 440 -122.5t260 -337.5q50 -133 50 -293t-50 -293q-67 -184 -212 -302t-347 -149v-57h373v-264h-303q-156 0 -232.5 69.5t-76.5 221.5v26q-219 22 -376 141t-226 314q-47 133 -47 293zM416 717q0 -114 30 -191 q42 -119 138 -186.5t229 -67.5q134 0 230 66.5t139 187.5q30 89 30 191q0 105 -30 190q-44 119 -139.5 187.5t-229.5 68.5q-133 0 -229 -68.5t-138 -187.5q-30 -74 -30 -190z" />
<glyph unicode="R" horiz-adv-x="1298" d="M152 0v1434h598q148 0 256 -52.5t165 -150.5q54 -94 54 -215q0 -122 -51 -205q-86 -149 -334 -182v-31l92 -29l303 -569h-391l-291 557h-68v-557h-333zM485 821h220q117 0 161 78q21 40 21 84q0 46 -19 82q-46 76 -163 76h-220v-320z" />
<glyph unicode="S" horiz-adv-x="1247" d="M76 438v29h330v-21q0 -98 55 -150t155 -52q135 0 185 82q18 34 18 75q0 38 -14 66q-41 67 -170 92l-178 35q-234 48 -318 201q-53 92 -53 215q0 133 57 229q64 110 188.5 170.5t293.5 60.5q253 0 396.5 -124t143.5 -349v-28h-331v20q0 97 -55 149t-156 52 q-136 0 -183 -82q-20 -33 -20 -76q0 -38 14 -63q37 -64 170 -90l176 -35q233 -47 322 -205q51 -89 51 -217q0 -131 -55 -229q-65 -110 -190 -170t-294 -60q-252 0 -395 124.5t-143 350.5z" />
<glyph unicode="T" horiz-adv-x="1234" d="M27 1126v308h1183v-308h-426v-1126h-333v1126h-424z" />
<glyph unicode="U" horiz-adv-x="1445" d="M127 528v906h338v-891q0 -123 70 -196t188 -73q120 0 189 72t69 197v891h338v-906q0 -261 -162.5 -413t-433.5 -152q-272 0 -434 151.5t-162 413.5z" />
<glyph unicode="V" horiz-adv-x="1388" d="M14 1434h361l289 -1084l10 -155h41l12 155l289 1084h358l-403 -1434h-551z" />
<glyph unicode="W" horiz-adv-x="2033" d="M55 1434h351l165 -1067l4 -172h41l5 172l155 1067h481l156 -1067l4 -172h41l4 172l164 1067h350l-243 -1434h-539l-154 1051l-4 168h-41l-2 -168l-153 -1051h-539z" />
<glyph unicode="X" horiz-adv-x="1419" d="M25 0l448 723l-448 711h393l258 -428l14 -136h39l12 136l260 428h392l-447 -711l447 -723h-396l-254 438l-14 135h-39l-12 -135l-256 -438h-397z" />
<glyph unicode="Y" horiz-adv-x="1372" d="M14 1434h367l276 -535l9 -119h41l8 119l276 535h367l-506 -930v-504h-334v508z" />
<glyph unicode="Z" horiz-adv-x="1267" d="M92 0v463l750 639v41h-750v291h1082v-473l-748 -627v-43h752v-291h-1086z" />
<glyph unicode="a" horiz-adv-x="1144" d="M74 649v6q0 16 1.5 33.5t11 59t26.5 77t53.5 78.5t86 73t129.5 50.5t179 20.5q228 0 347.5 -100.5t119.5 -293.5v-653h-311l74 268h-41q-41 -154 -125 -226.5t-222 -72.5q-146 0 -229 86q-80 80 -80 203q0 129 78 207q95 95 281 110l256 23v55q0 69 -41 106.5t-117 37.5 q-43 0 -75 -14t-47 -31.5t-23.5 -41t-9.5 -34.5t-1 -21v-6h-321zM422 285q0 -44 24 -68q27 -27 76 -27q41 0 74.5 16.5t53.5 41.5t34 56.5t19.5 58.5t5.5 49v6l-152 -19q-72 -9 -108 -45q-27 -27 -27 -69z" />
<glyph unicode="b" horiz-adv-x="1275" d="M137 0v1434h318v-418l-76 -268h41q43 145 131.5 222t218.5 77q105 0 190.5 -45t143.5 -128q96 -145 96 -366q0 -222 -96 -367q-118 -172 -334 -172q-130 0 -218.5 77t-131.5 222h-41l76 -268h-318zM451 508q0 -112 49 -180q60 -82 166 -82t163 82q52 68 52 180 q0 109 -52 180q-57 82 -163 82t-166 -82q-49 -71 -49 -180z" />
<glyph unicode="c" horiz-adv-x="1134" d="M61 504q0 204 97 344q67 97 178 148t252 51q216 0 350 -112.5t141 -311.5h-313q-12 72 -58 109.5t-120 37.5q-100 0 -158 -80q-49 -74 -49 -186q0 -114 47 -182q54 -76 150 -76q72 0 116 37.5t54 107.5h315q-9 -201 -141 -311.5t-347 -110.5q-138 0 -245.5 50.5 t-173.5 146.5q-95 137 -95 338z" />
<glyph unicode="d" horiz-adv-x="1275" d="M76 508q0 223 98 366q58 83 143.5 128t190.5 45q257 0 350 -299h41l-78 268v418h320v-1434h-320l78 268h-41q-93 -299 -350 -299q-216 0 -334 172q-98 143 -98 367zM397 508q0 -112 49 -180q57 -82 166 -82q107 0 164 82q49 68 49 180q0 109 -49 180q-57 82 -164 82 q-109 0 -166 -82q-49 -71 -49 -180z" />
<glyph unicode="e" horiz-adv-x="1128" d="M61 504q0 201 99 344q67 96 174.5 147.5t238.5 51.5q235 0 363.5 -141.5t128.5 -397.5v-82h-698q13 -91 47 -139q54 -76 168 -76q62 0 106 26.5t62 77.5h317q-26 -156 -157 -251t-322 -95q-298 0 -432 197q-95 137 -95 338zM371 621h391q-3 93 -51.5 141.5t-137.5 48.5 q-106 0 -161 -82q-33 -47 -41 -108z" />
<glyph unicode="f" horiz-adv-x="960" d="M25 760v256h184v71q0 177 111 278t307 101q195 0 300 -87.5t105 -256.5v-6h-307v6q0 53 -25 80t-69 27q-49 0 -77 -31.5t-28 -87.5v-94h359v-256h-359v-760h-317v760h-184z" />
<glyph unicode="g" horiz-adv-x="1224" d="M76 -10h307q16 -144 192 -144q95 0 148 54t53 155v37l90 275h-41q-37 -149 -124.5 -225t-208.5 -76q-102 0 -186 43t-140 122q-90 133 -90 324q0 193 90 326q56 79 140 122.5t186 43.5q121 0 208.5 -76.5t124.5 -225.5h41l-86 271h314v-860q0 -553 -519 -553 q-239 0 -365 100.5t-134 286.5zM391 555q0 -94 43 -154q53 -77 156 -77q102 0 155 77q43 60 43 154q0 96 -43 156q-53 77 -155 77q-103 0 -156 -77q-43 -60 -43 -156z" />
<glyph unicode="h" horiz-adv-x="1226" d="M137 0v1434h318v-418l-76 -268h41q87 299 340 299q173 0 261.5 -101.5t88.5 -296.5v-649h-317v582q0 174 -152 174q-86 0 -136 -60t-50 -166v-530h-318z" />
<glyph unicode="i" horiz-adv-x="591" d="M129 1141v266h336v-266h-336zM137 0v1016h318v-1016h-318z" />
<glyph unicode="j" horiz-adv-x="618" d="M-2 -143h55q59 0 84 27.5t25 84.5v1047h319v-1051q0 -176 -99 -269t-278 -93h-106v254zM156 1141v266h336v-266h-336z" />
<glyph unicode="k" horiz-adv-x="1189" d="M137 0v1434h318v-740l-78 -145h41l413 467h345l-402 -459l391 -557h-352l-244 362l-114 -129v-233h-318z" />
<glyph unicode="l" horiz-adv-x="591" d="M137 0v1434h318v-1434h-318z" />
<glyph unicode="m" horiz-adv-x="1767" d="M137 0v1016h318l-76 -268h41q75 299 301 299q109 0 178.5 -78t69.5 -221h41q35 153 122 226t209 73q151 0 230.5 -99t79.5 -286v-662h-318v594q0 162 -123 162q-74 0 -115.5 -54t-41.5 -149v-553h-318v594q0 78 -33.5 120t-91.5 42q-75 0 -115 -53t-40 -150v-553h-318z " />
<glyph unicode="n" horiz-adv-x="1226" d="M137 0v1016h318l-76 -268h41q87 299 338 299q173 0 262.5 -101.5t89.5 -296.5v-649h-317v582q0 174 -152 174q-86 0 -136 -60t-50 -166v-530h-318z" />
<glyph unicode="o" horiz-adv-x="1202" d="M61 508q0 182 93 321q71 104 186 161t260 57t261.5 -57t187.5 -161q92 -137 92 -321q0 -185 -92 -322q-71 -103 -187.5 -160t-261.5 -57t-260 56.5t-186 160.5q-93 139 -93 322zM381 508q0 -102 47 -172q62 -90 172 -90t172 90q47 65 47 172t-47 172q-62 90 -172 90 t-172 -90q-47 -70 -47 -172z" />
<glyph unicode="p" horiz-adv-x="1275" d="M137 -369v1385h318l-76 -268h41q43 145 131.5 222t218.5 77q105 0 190.5 -45t143.5 -128q96 -145 96 -366q0 -222 -96 -367q-118 -172 -334 -172q-130 0 -218.5 77t-131.5 222h-41l76 -268v-369h-318zM451 508q0 -112 49 -180q60 -82 166 -82t163 82q52 68 52 180 q0 109 -52 180q-57 82 -163 82t-166 -82q-49 -71 -49 -180z" />
<glyph unicode="q" horiz-adv-x="1275" d="M76 508q0 223 98 366q58 83 143.5 128t190.5 45q257 0 350 -299h41l-78 268h320v-1385h-320v369l78 268h-41q-93 -299 -350 -299q-216 0 -334 172q-98 143 -98 367zM397 508q0 -112 49 -180q57 -82 166 -82q107 0 164 82q49 68 49 180q0 109 -49 180q-57 82 -164 82 q-109 0 -166 -82q-49 -71 -49 -180z" />
<glyph unicode="r" horiz-adv-x="1054" d="M137 0v1016h314l-91 -293h43q51 170 131.5 247t204.5 77q134 0 203.5 -88.5t69.5 -253.5v-238h-324v135q0 81 -25.5 116.5t-80.5 35.5q-61 0 -94 -52.5t-33 -152.5v-549h-318z" />
<glyph unicode="s" horiz-adv-x="1019" d="M70 317v11h295v-11q0 -58 36.5 -88t104.5 -30q72 0 102 30q23 23 23 58q0 73 -105 92l-172 39q-270 59 -270 307q0 125 80 205q117 114 352 114q203 0 315.5 -92.5t112.5 -257.5v-10h-295v10q0 60 -37.5 91.5t-105.5 31.5q-69 0 -105 -31q-20 -23 -20 -55q0 -34 26 -55.5 t85 -34.5l133 -29q161 -37 234 -112t73 -205q0 -127 -82 -209q-117 -117 -348 -117q-206 0 -319 91t-113 257z" />
<glyph unicode="t" horiz-adv-x="1093" d="M25 760v256h184v151l317 142v-293h496v-256h-496v-402q0 -58 23 -87t63 -29q48 0 69 30.5t21 100.5v147h320v-155q0 -182 -112 -289t-302 -107q-197 0 -298 98t-101 285v408h-184z" />
<glyph unicode="u" horiz-adv-x="1206" d="M117 367v649h317v-582q0 -174 144 -174q80 0 127 60t47 165v531h317v-1016h-317l77 268h-43q-83 -299 -327 -299q-170 0 -256 101t-86 297z" />
<glyph unicode="v" horiz-adv-x="1155" d="M25 1016h331l195 -735l6 -103h39l6 103l197 735h329l-290 -1016h-525z" />
<glyph unicode="w" horiz-adv-x="1753" d="M55 1016h314l129 -727l2 -111h41l2 111l110 727h447l108 -727l2 -111h41l2 111l131 727h314l-207 -1016h-483l-109 723l-2 113h-41l-4 -113l-107 -723h-485z" />
<glyph unicode="x" horiz-adv-x="1171" d="M35 0l325 508l-325 508h366l160 -283l4 -98h41l4 98l162 283h365l-326 -508l326 -508h-365l-162 270l-4 99h-41l-4 -99l-160 -270h-366z" />
<glyph unicode="y" horiz-adv-x="1165" d="M14 -68h310v-14q0 -34 24 -54t66 -20q98 0 123 107l34 143h-252l-290 922h342l209 -742h36l183 742h342l-305 -1069q-52 -178 -154.5 -261t-263.5 -83q-188 0 -296 80.5t-108 228.5v20z" />
<glyph unicode="z" horiz-adv-x="1067" d="M96 0v387l527 332v41h-527v256h875v-389l-535 -330v-43h535v-254h-875z" />
<glyph unicode="&#xaa;" horiz-adv-x="1144" d="M74 649v6q0 16 1.5 33.5t11 59t26.5 77t53.5 78.5t86 73t129.5 50.5t179 20.5q228 0 347.5 -100.5t119.5 -293.5v-653h-311l74 268h-41q-41 -154 -125 -226.5t-222 -72.5q-146 0 -229 86q-80 80 -80 203q0 129 78 207q95 95 281 110l256 23v55q0 69 -41 106.5t-117 37.5 q-43 0 -75 -14t-47 -31.5t-23.5 -41t-9.5 -34.5t-1 -21v-6h-321zM422 285q0 -44 24 -68q27 -27 76 -27q41 0 74.5 16.5t53.5 41.5t34 56.5t19.5 58.5t5.5 49v6l-152 -19q-72 -9 -108 -45q-27 -27 -27 -69z" />
<glyph unicode="&#xad;" horiz-adv-x="862" d="M96 461v282h668v-282h-668z" />
<glyph unicode="&#xba;" horiz-adv-x="1202" d="M61 508q0 182 93 321q71 104 186 161t260 57t261.5 -57t187.5 -161q92 -137 92 -321q0 -185 -92 -322q-71 -103 -187.5 -160t-261.5 -57t-260 56.5t-186 160.5q-93 139 -93 322zM381 508q0 -102 47 -172q62 -90 172 -90t172 90q47 65 47 172t-47 172q-62 90 -172 90 t-172 -90q-47 -70 -47 -172z" />
<glyph unicode="&#xc0;" horiz-adv-x="1490" d="M31 0l454 1434h523l454 -1434h-354l-121 406h-481l-121 -406h-354zM594 705h305l-117 389l-16 157h-41l-14 -157z" />
<glyph unicode="&#xc1;" horiz-adv-x="1490" d="M31 0l454 1434h523l454 -1434h-354l-121 406h-481l-121 -406h-354zM594 705h305l-117 389l-16 157h-41l-14 -157z" />
<glyph unicode="&#xc2;" horiz-adv-x="1490" d="M31 0l454 1434h523l454 -1434h-354l-121 406h-481l-121 -406h-354zM594 705h305l-117 389l-16 157h-41l-14 -157z" />
<glyph unicode="&#xc3;" horiz-adv-x="1490" d="M31 0l454 1434h523l454 -1434h-354l-121 406h-481l-121 -406h-354zM594 705h305l-117 389l-16 157h-41l-14 -157z" />
<glyph unicode="&#xc4;" horiz-adv-x="1490" d="M31 0l454 1434h523l454 -1434h-354l-121 406h-481l-121 -406h-354zM594 705h305l-117 389l-16 157h-41l-14 -157z" />
<glyph unicode="&#xc5;" horiz-adv-x="1490" d="M31 0l454 1434h523l454 -1434h-354l-121 406h-481l-121 -406h-354zM594 705h305l-117 389l-16 157h-41l-14 -157z" />
<glyph unicode="&#xc6;" horiz-adv-x="2650" d="M31 0l454 1434h523l454 -1434h-354l-121 406h-481l-121 -406h-354zM594 705h305l-117 389l-16 157h-41l-14 -157zM1642 0v1434h902v-308h-568v-260h547v-297h-547v-262h568v-307h-902z" />
<glyph unicode="&#xc7;" horiz-adv-x="1540" d="M66 717q0 160 47 293q77 215 259.5 337.5t430.5 122.5q289 0 472 -150.5t202 -408.5h-349q-17 116 -104.5 184t-220.5 68q-126 0 -220.5 -69t-136.5 -187q-30 -74 -30 -190q0 -114 30 -191q42 -118 135.5 -186t217.5 -68q127 0 209.5 67t99.5 183h348q-19 -251 -197 -405 t-464 -154q-242 0 -423.5 123.5t-258.5 337.5q-47 133 -47 293z" />
<glyph unicode="&#xc8;" horiz-adv-x="1159" d="M152 0v1434h901v-308h-568v-260h547v-297h-547v-262h568v-307h-901z" />
<glyph unicode="&#xc9;" horiz-adv-x="1159" d="M152 0v1434h901v-308h-568v-260h547v-297h-547v-262h568v-307h-901z" />
<glyph unicode="&#xca;" horiz-adv-x="1159" d="M152 0v1434h901v-308h-568v-260h547v-297h-547v-262h568v-307h-901z" />
<glyph unicode="&#xcb;" horiz-adv-x="1159" d="M152 0v1434h901v-308h-568v-260h547v-297h-547v-262h568v-307h-901z" />
<glyph unicode="&#xcc;" horiz-adv-x="638" d="M152 0v1434h333v-1434h-333z" />
<glyph unicode="&#xcd;" horiz-adv-x="638" d="M152 0v1434h333v-1434h-333z" />
<glyph unicode="&#xce;" horiz-adv-x="638" d="M152 0v1434h333v-1434h-333z" />
<glyph unicode="&#xcf;" horiz-adv-x="638" d="M152 0v1434h333v-1434h-333z" />
<glyph unicode="&#xd0;" horiz-adv-x="1495" d="M152 0v1434h571q244 0 415.5 -111.5t243.5 -314.5q48 -133 48 -291q0 -160 -48 -293q-72 -202 -243 -313t-416 -111h-571zM485 307h248q115 0 197.5 61.5t120.5 168.5q30 79 30 180t-30 184q-39 105 -122 165t-196 60h-248v-819z" />
<glyph unicode="&#xd1;" horiz-adv-x="1511" d="M152 0v1434h487l340 -830l37 -401h41v1231h301v-1434h-486l-344 831l-32 400h-41v-1231h-303z" />
<glyph unicode="&#xd2;" d="M66 717q0 160 47 293q77 215 261 337.5t439 122.5q256 0 440 -122.5t260 -337.5q50 -133 50 -293t-50 -293q-78 -215 -260.5 -338t-437.5 -123q-256 0 -440.5 122t-261.5 339q-47 133 -47 293zM416 717q0 -114 30 -191q42 -119 138 -186.5t229 -67.5q134 0 230 66.5 t139 187.5q30 89 30 191q0 105 -30 190q-44 119 -139.5 187.5t-229.5 68.5q-133 0 -229 -68.5t-138 -187.5q-30 -74 -30 -190z" />
<glyph unicode="&#xd3;" d="M66 717q0 160 47 293q77 215 261 337.5t439 122.5q256 0 440 -122.5t260 -337.5q50 -133 50 -293t-50 -293q-78 -215 -260.5 -338t-437.5 -123q-256 0 -440.5 122t-261.5 339q-47 133 -47 293zM416 717q0 -114 30 -191q42 -119 138 -186.5t229 -67.5q134 0 230 66.5 t139 187.5q30 89 30 191q0 105 -30 190q-44 119 -139.5 187.5t-229.5 68.5q-133 0 -229 -68.5t-138 -187.5q-30 -74 -30 -190z" />
<glyph unicode="&#xd4;" d="M66 717q0 160 47 293q77 215 261 337.5t439 122.5q256 0 440 -122.5t260 -337.5q50 -133 50 -293t-50 -293q-78 -215 -260.5 -338t-437.5 -123q-256 0 -440.5 122t-261.5 339q-47 133 -47 293zM416 717q0 -114 30 -191q42 -119 138 -186.5t229 -67.5q134 0 230 66.5 t139 187.5q30 89 30 191q0 105 -30 190q-44 119 -139.5 187.5t-229.5 68.5q-133 0 -229 -68.5t-138 -187.5q-30 -74 -30 -190z" />
<glyph unicode="&#xd5;" d="M66 717q0 160 47 293q77 215 261 337.5t439 122.5q256 0 440 -122.5t260 -337.5q50 -133 50 -293t-50 -293q-78 -215 -260.5 -338t-437.5 -123q-256 0 -440.5 122t-261.5 339q-47 133 -47 293zM416 717q0 -114 30 -191q42 -119 138 -186.5t229 -67.5q134 0 230 66.5 t139 187.5q30 89 30 191q0 105 -30 190q-44 119 -139.5 187.5t-229.5 68.5q-133 0 -229 -68.5t-138 -187.5q-30 -74 -30 -190z" />
<glyph unicode="&#xd6;" d="M66 717q0 160 47 293q77 215 261 337.5t439 122.5q256 0 440 -122.5t260 -337.5q50 -133 50 -293t-50 -293q-78 -215 -260.5 -338t-437.5 -123q-256 0 -440.5 122t-261.5 339q-47 133 -47 293zM416 717q0 -114 30 -191q42 -119 138 -186.5t229 -67.5q134 0 230 66.5 t139 187.5q30 89 30 191q0 105 -30 190q-44 119 -139.5 187.5t-229.5 68.5q-133 0 -229 -68.5t-138 -187.5q-30 -74 -30 -190z" />
<glyph unicode="&#xd8;" d="M66 717q0 160 47 293q77 215 261 337.5t439 122.5q256 0 440 -122.5t260 -337.5q50 -133 50 -293t-50 -293q-78 -215 -260.5 -338t-437.5 -123q-256 0 -440.5 122t-261.5 339q-47 133 -47 293zM416 717q0 -114 30 -191q42 -119 138 -186.5t229 -67.5q134 0 230 66.5 t139 187.5q30 89 30 191q0 105 -30 190q-44 119 -139.5 187.5t-229.5 68.5q-133 0 -229 -68.5t-138 -187.5q-30 -74 -30 -190z" />
<glyph unicode="&#xd9;" horiz-adv-x="1445" d="M127 528v906h338v-891q0 -123 70 -196t188 -73q120 0 189 72t69 197v891h338v-906q0 -261 -162.5 -413t-433.5 -152q-272 0 -434 151.5t-162 413.5z" />
<glyph unicode="&#xda;" horiz-adv-x="1445" d="M127 528v906h338v-891q0 -123 70 -196t188 -73q120 0 189 72t69 197v891h338v-906q0 -261 -162.5 -413t-433.5 -152q-272 0 -434 151.5t-162 413.5z" />
<glyph unicode="&#xdb;" horiz-adv-x="1445" d="M127 528v906h338v-891q0 -123 70 -196t188 -73q120 0 189 72t69 197v891h338v-906q0 -261 -162.5 -413t-433.5 -152q-272 0 -434 151.5t-162 413.5z" />
<glyph unicode="&#xdc;" horiz-adv-x="1445" d="M127 528v906h338v-891q0 -123 70 -196t188 -73q120 0 189 72t69 197v891h338v-906q0 -261 -162.5 -413t-433.5 -152q-272 0 -434 151.5t-162 413.5z" />
<glyph unicode="&#xdd;" horiz-adv-x="1372" d="M14 1434h367l276 -535l9 -119h41l8 119l276 535h367l-506 -930v-504h-334v508z" />
<glyph unicode="&#xde;" horiz-adv-x="1269" d="M152 0v1434h579q148 0 260.5 -58.5t173.5 -163.5q60 -105 60 -235q0 -136 -60 -238q-61 -105 -173.5 -164t-260.5 -59h-246v-516h-333zM485 809h215q120 0 164 80q23 39 23 88q0 47 -23 86q-45 78 -164 78h-215v-332z" />
<glyph unicode="&#xe0;" horiz-adv-x="1144" d="M74 649v6q0 16 1.5 33.5t11 59t26.5 77t53.5 78.5t86 73t129.5 50.5t179 20.5q228 0 347.5 -100.5t119.5 -293.5v-653h-311l74 268h-41q-41 -154 -125 -226.5t-222 -72.5q-146 0 -229 86q-80 80 -80 203q0 129 78 207q95 95 281 110l256 23v55q0 69 -41 106.5t-117 37.5 q-43 0 -75 -14t-47 -31.5t-23.5 -41t-9.5 -34.5t-1 -21v-6h-321zM422 285q0 -44 24 -68q27 -27 76 -27q41 0 74.5 16.5t53.5 41.5t34 56.5t19.5 58.5t5.5 49v6l-152 -19q-72 -9 -108 -45q-27 -27 -27 -69z" />
<glyph unicode="&#xe1;" horiz-adv-x="1144" d="M74 649v6q0 16 1.5 33.5t11 59t26.5 77t53.5 78.5t86 73t129.5 50.5t179 20.5q228 0 347.5 -100.5t119.5 -293.5v-653h-311l74 268h-41q-41 -154 -125 -226.5t-222 -72.5q-146 0 -229 86q-80 80 -80 203q0 129 78 207q95 95 281 110l256 23v55q0 69 -41 106.5t-117 37.5 q-43 0 -75 -14t-47 -31.5t-23.5 -41t-9.5 -34.5t-1 -21v-6h-321zM422 285q0 -44 24 -68q27 -27 76 -27q41 0 74.5 16.5t53.5 41.5t34 56.5t19.5 58.5t5.5 49v6l-152 -19q-72 -9 -108 -45q-27 -27 -27 -69z" />
<glyph unicode="&#xe2;" horiz-adv-x="1144" d="M74 649v6q0 16 1.5 33.5t11 59t26.5 77t53.5 78.5t86 73t129.5 50.5t179 20.5q228 0 347.5 -100.5t119.5 -293.5v-653h-311l74 268h-41q-41 -154 -125 -226.5t-222 -72.5q-146 0 -229 86q-80 80 -80 203q0 129 78 207q95 95 281 110l256 23v55q0 69 -41 106.5t-117 37.5 q-43 0 -75 -14t-47 -31.5t-23.5 -41t-9.5 -34.5t-1 -21v-6h-321zM422 285q0 -44 24 -68q27 -27 76 -27q41 0 74.5 16.5t53.5 41.5t34 56.5t19.5 58.5t5.5 49v6l-152 -19q-72 -9 -108 -45q-27 -27 -27 -69z" />
<glyph unicode="&#xe3;" horiz-adv-x="1144" d="M74 649v6q0 16 1.5 33.5t11 59t26.5 77t53.5 78.5t86 73t129.5 50.5t179 20.5q228 0 347.5 -100.5t119.5 -293.5v-653h-311l74 268h-41q-41 -154 -125 -226.5t-222 -72.5q-146 0 -229 86q-80 80 -80 203q0 129 78 207q95 95 281 110l256 23v55q0 69 -41 106.5t-117 37.5 q-43 0 -75 -14t-47 -31.5t-23.5 -41t-9.5 -34.5t-1 -21v-6h-321zM422 285q0 -44 24 -68q27 -27 76 -27q41 0 74.5 16.5t53.5 41.5t34 56.5t19.5 58.5t5.5 49v6l-152 -19q-72 -9 -108 -45q-27 -27 -27 -69z" />
<glyph unicode="&#xe4;" horiz-adv-x="1144" d="M74 649v6q0 16 1.5 33.5t11 59t26.5 77t53.5 78.5t86 73t129.5 50.5t179 20.5q228 0 347.5 -100.5t119.5 -293.5v-653h-311l74 268h-41q-41 -154 -125 -226.5t-222 -72.5q-146 0 -229 86q-80 80 -80 203q0 129 78 207q95 95 281 110l256 23v55q0 69 -41 106.5t-117 37.5 q-43 0 -75 -14t-47 -31.5t-23.5 -41t-9.5 -34.5t-1 -21v-6h-321zM422 285q0 -44 24 -68q27 -27 76 -27q41 0 74.5 16.5t53.5 41.5t34 56.5t19.5 58.5t5.5 49v6l-152 -19q-72 -9 -108 -45q-27 -27 -27 -69z" />
<glyph unicode="&#xe5;" horiz-adv-x="1144" d="M74 649v6q0 16 1.5 33.5t11 59t26.5 77t53.5 78.5t86 73t129.5 50.5t179 20.5q228 0 347.5 -100.5t119.5 -293.5v-653h-311l74 268h-41q-41 -154 -125 -226.5t-222 -72.5q-146 0 -229 86q-80 80 -80 203q0 129 78 207q95 95 281 110l256 23v55q0 69 -41 106.5t-117 37.5 q-43 0 -75 -14t-47 -31.5t-23.5 -41t-9.5 -34.5t-1 -21v-6h-321zM422 285q0 -44 24 -68q27 -27 76 -27q41 0 74.5 16.5t53.5 41.5t34 56.5t19.5 58.5t5.5 49v6l-152 -19q-72 -9 -108 -45q-27 -27 -27 -69z" />
<glyph unicode="&#xe6;" horiz-adv-x="2273" d="M74 649v6q0 16 1.5 33.5t11 59t26.5 77t53.5 78.5t86 73t129.5 50.5t179 20.5q228 0 347.5 -100.5t119.5 -293.5v-653h-311l74 268h-41q-41 -154 -125 -226.5t-222 -72.5q-146 0 -229 86q-80 80 -80 203q0 129 78 207q95 95 281 110l256 23v55q0 69 -41 106.5t-117 37.5 q-43 0 -75 -14t-47 -31.5t-23.5 -41t-9.5 -34.5t-1 -21v-6h-321zM422 285q0 -44 24 -68q27 -27 76 -27q41 0 74.5 16.5t53.5 41.5t34 56.5t19.5 58.5t5.5 49v6l-152 -19q-72 -9 -108 -45q-27 -27 -27 -69zM1206 504q0 201 99 344q67 96 174.5 147.5t238.5 51.5 q235 0 363.5 -141.5t128.5 -397.5v-82h-699q13 -89 48 -139q54 -76 167 -76q62 0 106 26.5t62 77.5h318q-26 -156 -157 -251t-322 -95q-299 0 -433 197q-94 136 -94 338zM1516 621h391q-3 93 -51 141.5t-138 48.5q-107 0 -162 -82q-31 -45 -40 -108z" />
<glyph unicode="&#xe7;" horiz-adv-x="1134" d="M61 504q0 204 97 344q67 97 178 148t252 51q216 0 350 -112.5t141 -311.5h-313q-12 72 -58 109.5t-120 37.5q-100 0 -158 -80q-49 -74 -49 -186q0 -114 47 -182q54 -76 150 -76q72 0 116 37.5t54 107.5h315q-9 -201 -141 -311.5t-347 -110.5q-138 0 -245.5 50.5 t-173.5 146.5q-95 137 -95 338z" />
<glyph unicode="&#xe8;" horiz-adv-x="1128" d="M61 504q0 201 99 344q67 96 174.5 147.5t238.5 51.5q235 0 363.5 -141.5t128.5 -397.5v-82h-698q13 -91 47 -139q54 -76 168 -76q62 0 106 26.5t62 77.5h317q-26 -156 -157 -251t-322 -95q-298 0 -432 197q-95 137 -95 338zM371 621h391q-3 93 -51.5 141.5t-137.5 48.5 q-106 0 -161 -82q-33 -47 -41 -108z" />
<glyph unicode="&#xe9;" horiz-adv-x="1128" d="M61 504q0 201 99 344q67 96 174.5 147.5t238.5 51.5q235 0 363.5 -141.5t128.5 -397.5v-82h-698q13 -91 47 -139q54 -76 168 -76q62 0 106 26.5t62 77.5h317q-26 -156 -157 -251t-322 -95q-298 0 -432 197q-95 137 -95 338zM371 621h391q-3 93 -51.5 141.5t-137.5 48.5 q-106 0 -161 -82q-33 -47 -41 -108z" />
<glyph unicode="&#xea;" horiz-adv-x="1128" d="M61 504q0 201 99 344q67 96 174.5 147.5t238.5 51.5q235 0 363.5 -141.5t128.5 -397.5v-82h-698q13 -91 47 -139q54 -76 168 -76q62 0 106 26.5t62 77.5h317q-26 -156 -157 -251t-322 -95q-298 0 -432 197q-95 137 -95 338zM371 621h391q-3 93 -51.5 141.5t-137.5 48.5 q-106 0 -161 -82q-33 -47 -41 -108z" />
<glyph unicode="&#xeb;" horiz-adv-x="1128" d="M61 504q0 201 99 344q67 96 174.5 147.5t238.5 51.5q235 0 363.5 -141.5t128.5 -397.5v-82h-698q13 -91 47 -139q54 -76 168 -76q62 0 106 26.5t62 77.5h317q-26 -156 -157 -251t-322 -95q-298 0 -432 197q-95 137 -95 338zM371 621h391q-3 93 -51.5 141.5t-137.5 48.5 q-106 0 -161 -82q-33 -47 -41 -108z" />
<glyph unicode="&#xec;" horiz-adv-x="591" d="M129 1141v266h336v-266h-336zM137 0v1016h318v-1016h-318z" />
<glyph unicode="&#xed;" horiz-adv-x="591" d="M129 1141v266h336v-266h-336zM137 0v1016h318v-1016h-318z" />
<glyph unicode="&#xee;" horiz-adv-x="591" d="M129 1141v266h336v-266h-336zM137 0v1016h318v-1016h-318z" />
<glyph unicode="&#xef;" horiz-adv-x="591" d="M129 1141v266h336v-266h-336zM137 0v1016h318v-1016h-318z" />
<glyph unicode="&#xf1;" horiz-adv-x="1226" d="M137 0v1016h318l-76 -268h41q87 299 338 299q173 0 262.5 -101.5t89.5 -296.5v-649h-317v582q0 174 -152 174q-86 0 -136 -60t-50 -166v-530h-318z" />
<glyph unicode="&#xf2;" horiz-adv-x="1202" d="M61 508q0 182 93 321q71 104 186 161t260 57t261.5 -57t187.5 -161q92 -137 92 -321q0 -185 -92 -322q-71 -103 -187.5 -160t-261.5 -57t-260 56.5t-186 160.5q-93 139 -93 322zM381 508q0 -102 47 -172q62 -90 172 -90t172 90q47 65 47 172t-47 172q-62 90 -172 90 t-172 -90q-47 -70 -47 -172z" />
<glyph unicode="&#xf3;" horiz-adv-x="1202" d="M61 508q0 182 93 321q71 104 186 161t260 57t261.5 -57t187.5 -161q92 -137 92 -321q0 -185 -92 -322q-71 -103 -187.5 -160t-261.5 -57t-260 56.5t-186 160.5q-93 139 -93 322zM381 508q0 -102 47 -172q62 -90 172 -90t172 90q47 65 47 172t-47 172q-62 90 -172 90 t-172 -90q-47 -70 -47 -172z" />
<glyph unicode="&#xf4;" horiz-adv-x="1202" d="M61 508q0 182 93 321q71 104 186 161t260 57t261.5 -57t187.5 -161q92 -137 92 -321q0 -185 -92 -322q-71 -103 -187.5 -160t-261.5 -57t-260 56.5t-186 160.5q-93 139 -93 322zM381 508q0 -102 47 -172q62 -90 172 -90t172 90q47 65 47 172t-47 172q-62 90 -172 90 t-172 -90q-47 -70 -47 -172z" />
<glyph unicode="&#xf5;" horiz-adv-x="1202" d="M61 508q0 182 93 321q71 104 186 161t260 57t261.5 -57t187.5 -161q92 -137 92 -321q0 -185 -92 -322q-71 -103 -187.5 -160t-261.5 -57t-260 56.5t-186 160.5q-93 139 -93 322zM381 508q0 -102 47 -172q62 -90 172 -90t172 90q47 65 47 172t-47 172q-62 90 -172 90 t-172 -90q-47 -70 -47 -172z" />
<glyph unicode="&#xf6;" horiz-adv-x="1202" d="M61 508q0 182 93 321q71 104 186 161t260 57t261.5 -57t187.5 -161q92 -137 92 -321q0 -185 -92 -322q-71 -103 -187.5 -160t-261.5 -57t-260 56.5t-186 160.5q-93 139 -93 322zM381 508q0 -102 47 -172q62 -90 172 -90t172 90q47 65 47 172t-47 172q-62 90 -172 90 t-172 -90q-47 -70 -47 -172z" />
<glyph unicode="&#xf8;" horiz-adv-x="1202" d="M61 508q0 182 93 321q71 104 186 161t260 57t261.5 -57t187.5 -161q92 -137 92 -321q0 -185 -92 -322q-71 -103 -187.5 -160t-261.5 -57t-260 56.5t-186 160.5q-93 139 -93 322zM381 508q0 -102 47 -172q62 -90 172 -90t172 90q47 65 47 172t-47 172q-62 90 -172 90 t-172 -90q-47 -70 -47 -172z" />
<glyph unicode="&#xf9;" horiz-adv-x="1206" d="M117 367v649h317v-582q0 -174 144 -174q80 0 127 60t47 165v531h317v-1016h-317l77 268h-43q-83 -299 -327 -299q-170 0 -256 101t-86 297z" />
<glyph unicode="&#xfa;" horiz-adv-x="1206" d="M117 367v649h317v-582q0 -174 144 -174q80 0 127 60t47 165v531h317v-1016h-317l77 268h-43q-83 -299 -327 -299q-170 0 -256 101t-86 297z" />
<glyph unicode="&#xfb;" horiz-adv-x="1206" d="M117 367v649h317v-582q0 -174 144 -174q80 0 127 60t47 165v531h317v-1016h-317l77 268h-43q-83 -299 -327 -299q-170 0 -256 101t-86 297z" />
<glyph unicode="&#xfc;" horiz-adv-x="1206" d="M117 367v649h317v-582q0 -174 144 -174q80 0 127 60t47 165v531h317v-1016h-317l77 268h-43q-83 -299 -327 -299q-170 0 -256 101t-86 297z" />
<glyph unicode="&#xfd;" horiz-adv-x="1165" d="M14 -68h310v-14q0 -34 24 -54t66 -20q98 0 123 107l34 143h-252l-290 922h342l209 -742h36l183 742h342l-305 -1069q-52 -178 -154.5 -261t-263.5 -83q-188 0 -296 80.5t-108 228.5v20z" />
<glyph unicode="&#xfe;" horiz-adv-x="1275" d="M137 -369v1385h318l-76 -268h41q43 145 131.5 222t218.5 77q105 0 190.5 -45t143.5 -128q96 -145 96 -366q0 -222 -96 -367q-118 -172 -334 -172q-130 0 -218.5 77t-131.5 222h-41l76 -268v-369h-318zM451 508q0 -112 49 -180q60 -82 166 -82t163 82q52 68 52 180 q0 109 -52 180q-57 82 -163 82t-166 -82q-49 -71 -49 -180z" />
<glyph unicode="&#xff;" horiz-adv-x="1165" d="M14 -68h310v-14q0 -34 24 -54t66 -20q98 0 123 107l34 143h-252l-290 922h342l209 -742h36l183 742h342l-305 -1069q-52 -178 -154.5 -261t-263.5 -83q-188 0 -296 80.5t-108 228.5v20z" />
<glyph unicode="&#x152;" horiz-adv-x="2787" d="M66 717q0 160 47 293q77 215 261 337.5t439 122.5q256 0 440 -122.5t260 -337.5q50 -133 50 -293t-50 -293q-78 -215 -260.5 -338t-437.5 -123q-256 0 -440.5 122t-261.5 339q-47 133 -47 293zM416 717q0 -114 30 -191q42 -119 138 -186.5t229 -67.5q134 0 230 66.5 t139 187.5q30 89 30 191q0 105 -30 190q-44 119 -139.5 187.5t-229.5 68.5q-133 0 -229 -68.5t-138 -187.5q-30 -74 -30 -190zM1780 0v1434h901v-308h-567v-260h546v-297h-546v-262h567v-307h-901z" />
<glyph unicode="&#x153;" horiz-adv-x="2328" d="M61 508q0 182 93 321q71 104 186 161t260 57t261.5 -57t187.5 -161q92 -137 92 -321q0 -185 -92 -322q-71 -103 -187.5 -160t-261.5 -57t-260 56.5t-186 160.5q-93 139 -93 322zM381 508q0 -102 47 -172q62 -90 172 -90t172 90q47 65 47 172t-47 172q-62 90 -172 90 t-172 -90q-47 -70 -47 -172zM1264 504q0 203 98 344q67 96 175 147.5t239 51.5q235 0 363 -141.5t128 -397.5v-82h-698q13 -91 47 -139q54 -76 168 -76q62 0 106 26.5t62 77.5h317q-26 -156 -157 -251t-322 -95q-298 0 -432 197q-94 136 -94 338zM1573 621h391 q-3 94 -51 142t-137 48q-107 0 -162 -82q-33 -47 -41 -108z" />
<glyph unicode="&#x178;" horiz-adv-x="1372" d="M14 1434h367l276 -535l9 -119h41l8 119l276 535h367l-506 -930v-504h-334v508z" />
<glyph unicode="&#x2000;" horiz-adv-x="735" />
<glyph unicode="&#x2001;" horiz-adv-x="1470" />
<glyph unicode="&#x2002;" horiz-adv-x="735" />
<glyph unicode="&#x2003;" horiz-adv-x="1470" />
<glyph unicode="&#x2004;" horiz-adv-x="490" />
<glyph unicode="&#x2005;" horiz-adv-x="367" />
<glyph unicode="&#x2006;" horiz-adv-x="245" />
<glyph unicode="&#x2007;" horiz-adv-x="245" />
<glyph unicode="&#x2008;" horiz-adv-x="183" />
<glyph unicode="&#x2009;" horiz-adv-x="294" />
<glyph unicode="&#x200a;" horiz-adv-x="81" />
<glyph unicode="&#x2010;" horiz-adv-x="862" d="M96 461v282h668v-282h-668z" />
<glyph unicode="&#x2011;" horiz-adv-x="862" d="M96 461v282h668v-282h-668z" />
<glyph unicode="&#x2012;" horiz-adv-x="862" d="M96 461v282h668v-282h-668z" />
<glyph unicode="&#x2013;" horiz-adv-x="1218" d="M96 461v282h1024v-282h-1024z" />
<glyph unicode="&#x2014;" horiz-adv-x="2242" d="M96 461v282h2048v-282h-2048z" />
<glyph unicode="&#x202f;" horiz-adv-x="294" />
<glyph unicode="&#x205f;" horiz-adv-x="367" />
<glyph unicode="&#x25fc;" horiz-adv-x="1013" d="M0 0v1014h1014v-1014h-1014z" />
</font>
</defs>
</svg>
