<?xml version="1.0" standalone="no"?>
<!DOCTYPE svg PUBLIC "-//W3C//DTD SVG 1.1//EN" "http://www.w3.org/Graphics/SVG/1.1/DTD/svg11.dtd" >
<svg xmlns="http://www.w3.org/2000/svg" xmlns:xlink="http://www.w3.org/1999/xlink" version="1.1">
<metadata></metadata>
<defs>
<font id="gt_flexa_trialmd" horiz-adv-x="1099" >
<font-face units-per-em="2048" ascent="1638" descent="-410" />
<missing-glyph horiz-adv-x="507" />
<glyph horiz-adv-x="0" />
<glyph horiz-adv-x="682" />
<glyph unicode=" "  horiz-adv-x="507" />
<glyph unicode="&#x09;" horiz-adv-x="507" />
<glyph unicode="&#xa0;" horiz-adv-x="507" />
<glyph unicode="," horiz-adv-x="518" d="M102 0v295h310v-262q0 -359 -310 -359v170q84 0 117 33.5t33 122.5h-150z" />
<glyph unicode="-" horiz-adv-x="847" d="M106 489v222h635v-222h-635z" />
<glyph unicode="." horiz-adv-x="514" d="M102 0v295h310v-295h-310z" />
<glyph unicode="0" horiz-adv-x="1314" d="M102 717q0 234 60 397q127 348 495 348q372 0 496 -348q59 -160 59 -397q0 -238 -59 -398q-124 -348 -496 -348q-371 0 -495 348q-60 163 -60 398zM360 717q0 -209 41 -322q70 -198 256 -198t256 198q41 113 41 322q0 208 -41 321q-70 199 -256 199t-256 -199 q-41 -113 -41 -321z" />
<glyph unicode="1" horiz-adv-x="927" d="M33 838v266h129q120 0 182 85t62 245h329v-1434h-243v1202h-35q-4 -185 -84 -274.5t-234 -89.5h-106z" />
<glyph unicode="2" horiz-adv-x="1124" d="M68 922v61q0 214 137 346.5t358 132.5q223 0 355 -135q120 -117 120 -307q0 -157 -65.5 -267.5t-227.5 -209.5l-426 -277v-35h719v-231h-932v389l478 316q110 74 156 147.5t46 161.5q0 101 -63 164q-59 59 -160 59q-113 0 -179.5 -69t-66.5 -187v-59h-249z" />
<glyph unicode="3" horiz-adv-x="1126" d="M59 434v21h250v-19q0 -118 65 -180.5t183 -62.5q110 0 174 61q53 53 53 135q0 88 -51 139q-67 64 -190 64h-78v250h78q125 0 190 65q51 51 51 137q0 83 -53 136q-64 61 -174 61q-117 0 -182.5 -63.5t-65.5 -178.5v-20h-250v20q0 215 133 339t365 124q240 0 371 -131 q106 -103 106 -268q0 -139 -90 -229q-84 -87 -221 -99v-37q138 -12 221 -98q90 -87 90 -229q0 -166 -106 -269q-131 -131 -371 -131q-232 0 -365 124t-133 339z" />
<glyph unicode="4" horiz-adv-x="1210" d="M70 467v371l505 596h375v-742h232v-225h-232v-467h-241v467h-639zM254 692h455v545h-35l-420 -510v-35z" />
<glyph unicode="5" horiz-adv-x="1130" d="M92 391v12h250v-6q0 -85 65.5 -144.5t163.5 -59.5q110 0 170 63q70 67 70 190q0 124 -66 187q-57 57 -143 57q-124 0 -180 -102h-283v846h922v-234h-690v-442h35q79 149 272 149q149 0 256 -104q129 -129 129 -357q0 -211 -131 -342q-133 -133 -361 -133 q-214 0 -346.5 115.5t-132.5 304.5z" />
<glyph unicode="6" horiz-adv-x="1191" d="M102 664q0 272 64 452q127 346 489 346q207 0 333 -119t126 -315v-10h-250v10q0 99 -57 156t-158 57q-151 0 -228 -137.5t-77 -405.5h35q44 97 125 153t188 56q174 0 295 -121q127 -127 127 -327q0 -213 -137 -350q-138 -138 -356 -138q-345 0 -463 322q-56 154 -56 371z M371 440q0 -111 69 -180q67 -70 181 -70q111 0 178 70q69 66 69 180q0 112 -69 181t-178 69q-112 0 -181 -69q-69 -72 -69 -181z" />
<glyph unicode="7" horiz-adv-x="1038" d="M33 1200v234h960v-379l-557 -1055h-278l639 1165v35h-764z" />
<glyph unicode="8" horiz-adv-x="1161" d="M92 371q0 142 90 229q83 86 215 98v37q-131 12 -215 99q-90 90 -90 229q0 161 107 268q131 131 381 131q252 0 383 -131q104 -104 104 -268q0 -141 -88 -229q-87 -87 -215 -99v-37q129 -12 215 -98q88 -85 88 -229q0 -165 -104 -269q-131 -131 -383 -131q-250 0 -381 131 q-107 107 -107 269zM340 387q0 -82 53 -135q69 -66 187 -66q120 0 186 66q55 52 55 135q0 90 -53 143q-64 64 -188 64q-123 0 -187 -64q-53 -50 -53 -143zM340 1047q0 -92 53 -142q62 -65 187 -65q123 0 188 65q53 53 53 142q0 83 -55 135q-65 65 -186 65q-119 0 -187 -65 q-53 -53 -53 -135z" />
<glyph unicode="9" horiz-adv-x="1191" d="M78 406v10h250v-10q0 -99 57 -156t158 -57q151 0 228 137t77 405h-35q-44 -97 -125 -153t-188 -56q-174 0 -295 121q-127 127 -127 328q0 213 137 350t356 137q345 0 463 -321q56 -154 56 -371q0 -273 -64 -453q-127 -346 -489 -346q-207 0 -333 119.5t-126 315.5z M324 993q0 -111 69 -180q70 -70 178 -70q111 0 181 70q69 72 69 180q0 112 -69 181q-66 69 -181 69q-112 0 -178 -69q-69 -66 -69 -181z" />
<glyph unicode="A" horiz-adv-x="1439" d="M37 0l487 1434h391l488 -1434h-270l-152 465h-522l-152 -465h-270zM537 700h366l-151 463l-15 125h-35l-14 -125z" />
<glyph unicode="B" horiz-adv-x="1267" d="M172 0v1434h522q149 0 256 -51t160 -144q45 -79 45 -184q0 -102 -43 -174q-72 -128 -254 -146v-37q181 -15 254 -145q43 -72 43 -174q0 -105 -45 -184q-53 -93 -160 -144t-256 -51h-522zM422 229h242q152 0 206 86q23 42 23 105q0 57 -25 102q-51 86 -204 86h-242v-379z M422 825h242q153 0 204 86q25 45 25 103q0 62 -23 104q-54 86 -206 86h-242v-379z" />
<glyph unicode="C" horiz-adv-x="1550" d="M82 717q0 164 49 295q77 211 255.5 332.5t418.5 121.5q279 0 460.5 -149.5t196.5 -398.5h-262q-17 140 -124.5 225.5t-268.5 85.5q-150 0 -261 -81t-163 -222q-35 -96 -35 -209t35 -209q52 -141 162 -222t256 -81q157 0 258.5 84.5t120.5 226.5h260q-19 -247 -193 -398 t-456 -151q-229 0 -406 122.5t-254 332.5q-49 131 -49 295z" />
<glyph unicode="D" horiz-adv-x="1488" d="M172 0v1434h528q243 0 416.5 -112.5t245.5 -315.5q45 -133 45 -289q0 -161 -47 -291q-72 -203 -244 -314.5t-416 -111.5h-528zM426 238h291q142 0 243 73.5t146 200.5q35 93 35 205q0 113 -35 209q-47 126 -148 198t-241 72h-291v-958z" />
<glyph unicode="E" horiz-adv-x="1148" d="M172 0v1434h860v-238h-606v-360h586v-234h-586v-364h606v-238h-860z" />
<glyph unicode="F" horiz-adv-x="1093" d="M172 0v1434h860v-238h-606v-369h569v-233h-569v-594h-254z" />
<glyph unicode="G" horiz-adv-x="1570" d="M82 709q0 169 49 303q79 212 258 333t422 121q275 0 454.5 -149.5t196.5 -388.5h-262q-20 139 -126.5 220t-262.5 81q-153 0 -264.5 -80.5t-163.5 -220.5q-35 -100 -35 -217q0 -136 35 -232q50 -133 154.5 -208.5t244.5 -75.5q159 0 265.5 92t123.5 245h-411v224h653 v-756h-237l57 317h-35q-52 -169 -170 -259.5t-295 -90.5q-204 0 -367 115t-233 313q-51 143 -51 314z" />
<glyph unicode="H" horiz-adv-x="1492" d="M172 0v1434h254v-596h641v596h254v-1434h-254v600h-641v-600h-254z" />
<glyph unicode="I" horiz-adv-x="598" d="M172 0v1434h254v-1434h-254z" />
<glyph unicode="J" horiz-adv-x="1150" d="M68 451v301h254v-291q0 -135 53.5 -195.5t161.5 -60.5t159.5 69t51.5 215v945h253v-955q0 -249 -120 -380.5t-346 -131.5q-232 0 -349.5 122.5t-117.5 361.5z" />
<glyph unicode="K" horiz-adv-x="1333" d="M172 0v1434h254v-641l-70 -156h35l621 797h293l-519 -662l508 -772h-309l-377 590l-182 -230v-360h-254z" />
<glyph unicode="L" horiz-adv-x="1081" d="M172 0v1434h254v-1196h606v-238h-860z" />
<glyph unicode="M" horiz-adv-x="1902" d="M172 0v1434h408l338 -1104l16 -164h35l14 164l338 1104h410v-1434h-248v1268h-35l-18 -267l-314 -1001h-332l-311 1001l-20 267h-35v-1268h-246z" />
<glyph unicode="N" horiz-adv-x="1492" d="M172 0v1434h385l440 -965l47 -303h35v1268h242v-1434h-385l-442 965l-45 303h-35v-1268h-242z" />
<glyph unicode="O" horiz-adv-x="1634" d="M82 717q0 164 49 295q77 212 257.5 333t428.5 121t428.5 -121t257.5 -333q49 -131 49 -295t-49 -295q-76 -210 -256 -332.5t-428 -122.5q-247 0 -429 120.5t-259 334.5q-49 131 -49 295zM348 717q0 -113 35 -209q52 -142 164.5 -222.5t269.5 -80.5q156 0 268.5 79.5 t165.5 223.5q35 96 35 209t-35 209q-52 142 -164.5 222.5t-269.5 80.5t-269.5 -80.5t-164.5 -222.5q-35 -96 -35 -209z" />
<glyph unicode="P" horiz-adv-x="1232" d="M172 0v1434h537q141 0 249 -54.5t164 -152.5q56 -95 56 -226q0 -130 -56 -225q-56 -99 -164.5 -154t-248.5 -55h-283v-567h-254zM426 801h270q70 0 120.5 24.5t76.5 67.5q27 53 27 108q0 57 -27 109q-26 43 -76.5 67.5t-120.5 24.5h-270v-401z" />
<glyph unicode="Q" horiz-adv-x="1634" d="M82 717q0 164 49 295q77 212 257.5 333t428.5 121t428.5 -121t257.5 -333q49 -131 49 -295t-49 -295q-67 -184 -214 -301.5t-351 -145.5v-67h373v-221h-295q-143 0 -215 62t-72 204v18q-216 22 -372.5 140t-225.5 311q-49 131 -49 295zM348 717q0 -113 35 -209 q52 -142 164.5 -222.5t269.5 -80.5q156 0 268.5 79.5t165.5 223.5q35 96 35 209t-35 209q-52 142 -164.5 222.5t-269.5 80.5t-269.5 -80.5t-164.5 -222.5q-35 -96 -35 -209z" />
<glyph unicode="R" horiz-adv-x="1261" d="M172 0v1434h533q310 0 421 -191q52 -90 52 -217q0 -114 -50 -197q-96 -164 -372 -180v-31l65 -28l361 -590h-310l-364 608h-82v-608h-254zM426 823h279q138 0 190 88q25 42 25 103q0 54 -23 98q-52 90 -192 90h-279v-379z" />
<glyph unicode="S" horiz-adv-x="1257" d="M98 434v37h262v-22q0 -125 68.5 -190.5t194.5 -65.5q169 0 227 104q24 43 24 98q0 50 -18 82q-50 85 -205 113l-166 31q-237 45 -323 198q-49 85 -49 203q0 120 55 219q62 107 183 166t282 59q239 0 378.5 -122.5t139.5 -339.5v-37h-262v24q0 122 -68 186t-194 64 q-170 0 -228 -104q-24 -43 -24 -99q0 -47 18 -82q49 -80 205 -108l164 -33q238 -47 325 -203q50 -86 50 -200q0 -130 -56 -222q-60 -106 -181.5 -164.5t-283.5 -58.5q-239 0 -378.5 124.5t-139.5 342.5z" />
<glyph unicode="T" horiz-adv-x="1175" d="M23 1196v238h1130v-238h-438v-1196h-254v1196h-438z" />
<glyph unicode="U" horiz-adv-x="1433" d="M150 522v912h262v-904q0 -149 81.5 -235t223.5 -86t223.5 86t81.5 235v904h262v-912q0 -257 -153.5 -406t-413.5 -149q-262 0 -414.5 149t-152.5 406z" />
<glyph unicode="V" horiz-adv-x="1337" d="M18 1434h279l346 -1172l8 -112h35l8 112l346 1172h279l-445 -1434h-413z" />
<glyph unicode="W" horiz-adv-x="2002" d="M59 1434h271l225 -1137l6 -147h35l6 147l203 1137h393l203 -1137l6 -147h35l6 147l225 1137h271l-297 -1434h-420l-205 1135l-4 129h-33l-4 -129l-205 -1135h-420z" />
<glyph unicode="X" horiz-adv-x="1359" d="M29 0l477 723l-477 711h307l315 -482l11 -102h34l11 102l315 482h309l-479 -711l479 -723h-311l-309 489l-15 103h-32l-13 -103l-311 -489h-311z" />
<glyph unicode="Y" horiz-adv-x="1300" d="M18 1434h291l316 -596l8 -95h35l8 95l313 596h293l-506 -908v-526h-254v526z" />
<glyph unicode="Z" horiz-adv-x="1247" d="M98 0v373l817 794v35h-817v232h1049v-390l-807 -778v-35h809v-231h-1051z" />
<glyph unicode="a" d="M86 645v8q0 14 1 30t10 55.5t24.5 73.5t49 74.5t78.5 69.5t118.5 48.5t164.5 19.5q214 0 324.5 -97t110.5 -280v-647h-242l57 266h-34q-38 -151 -121.5 -223t-220.5 -72q-140 0 -224 84q-76 76 -76 199q0 129 74 203q92 92 277 104l268 19v67q0 83 -50.5 128.5 t-148.5 45.5q-54 0 -94 -16.5t-58 -37t-28.5 -48.5t-12 -41t-1.5 -25v-8h-246zM354 266q0 -44 29 -73q33 -33 96 -33q62 0 111 26.5t77 67.5t42.5 83t15.5 79l-211 -23q-89 -9 -129 -49q-31 -31 -31 -78z" />
<glyph unicode="b" horiz-adv-x="1251" d="M154 0v1434h241v-439l-61 -266h35q43 145 133 220t223 75q110 0 199.5 -46t148.5 -132q92 -133 92 -348t-92 -348q-59 -86 -148.5 -132.5t-199.5 -46.5q-133 0 -223 75t-133 220h-35l61 -266h-241zM391 498q0 -133 58 -213q72 -101 206 -101q135 0 207 101q58 80 58 213 t-58 213q-71 100 -207 100q-135 0 -206 -100q-58 -80 -58 -213z" />
<glyph unicode="c" horiz-adv-x="1110" d="M74 494q0 203 94 340q134 190 407 190q201 0 330 -109t135 -290h-239q-14 89 -71.5 137.5t-151.5 48.5q-131 0 -199 -96q-60 -85 -60 -221q0 -132 58 -215q64 -95 190 -95q91 0 146 48t67 139h240q-4 -183 -131 -291.5t-328 -108.5q-266 0 -395 189q-92 130 -92 334z" />
<glyph unicode="d" horiz-adv-x="1251" d="M86 498q0 211 92 348q124 178 348 178q134 0 225 -75t132 -220h35l-62 266v439h242v-1434h-242l62 266h-35q-41 -145 -132 -220t-225 -75q-223 0 -348 179q-92 137 -92 348zM332 498q0 -132 59 -213q69 -101 205 -101q138 0 207 101q57 79 57 213t-57 213 q-68 100 -207 100q-137 0 -205 -100q-59 -81 -59 -213z" />
<glyph unicode="e" horiz-adv-x="1105" d="M74 494q0 194 100 340q64 93 164 141.5t223 48.5q224 0 346.5 -134t122.5 -376v-82h-715q12 -106 56 -166q68 -96 204 -96q79 0 134.5 35t78.5 100h242q-26 -148 -150 -241t-298 -93q-287 0 -416 189q-92 130 -92 334zM322 606h464q-4 108 -62 165.5t-161 57.5 q-124 0 -194 -98q-35 -54 -47 -125z" />
<glyph unicode="f" horiz-adv-x="878" d="M29 791v204h196v115q0 163 100 258.5t269 95.5q174 0 265 -84t91 -247v-9h-237v6q0 68 -30.5 104t-86.5 36q-61 0 -95 -40.5t-34 -111.5v-123h364v-204h-364v-791h-242v791h-196z" />
<glyph unicode="g" horiz-adv-x="1196" d="M86 -4h238q8 -92 67 -141.5t170 -49.5q119 0 183.5 67t64.5 191v27l76 270h-35q-40 -151 -127.5 -224t-208.5 -73q-109 0 -196.5 44t-143.5 126q-88 124 -88 312q0 184 88 311q55 82 143 125t197 43q121 0 208.5 -73t127.5 -224h35l-74 268h240v-854q0 -536 -490 -536 q-225 0 -345.5 101t-129.5 290zM330 545q0 -111 53 -187q65 -94 190 -94q126 0 191 94q53 76 53 187q0 108 -53 184q-63 94 -191 94q-127 0 -190 -94q-53 -76 -53 -184z" />
<glyph unicode="h" horiz-adv-x="1191" d="M154 0v1434h241v-439l-61 -266h35q89 295 340 295q173 0 261.5 -103t88.5 -303v-618h-242v580q0 223 -190 223q-106 0 -169 -77t-63 -208v-518h-241z" />
<glyph unicode="i" horiz-adv-x="548" d="M143 1137v252h265v-252h-265zM154 0v995h241v-995h-241z" />
<glyph unicode="j" horiz-adv-x="573" d="M14 -193h49q63 0 89 31.5t26 98.5v1058h242v-1061q0 -329 -336 -329h-70v202zM166 1137v252h264v-252h-264z" />
<glyph unicode="k" horiz-adv-x="1120" d="M154 0v1434h241v-813l-69 -134h34l465 508h277l-406 -444l396 -551h-285l-275 395l-137 -149v-246h-241z" />
<glyph unicode="l" horiz-adv-x="548" d="M154 0v1434h241v-1434h-241z" />
<glyph unicode="m" horiz-adv-x="1746" d="M154 0v995h241l-61 -266h35q79 295 307 295q113 0 187.5 -77.5t74.5 -217.5h35q70 295 323 295q156 0 237 -98.5t81 -288.5v-637h-242v588q0 106 -41 160.5t-121 54.5q-97 0 -150.5 -72.5t-53.5 -198.5v-532h-242v588q0 103 -46 159t-120 56q-98 0 -150.5 -71.5 t-52.5 -199.5v-532h-241z" />
<glyph unicode="n" horiz-adv-x="1191" d="M154 0v995h241l-61 -266h35q89 295 336 295q175 0 264.5 -103t89.5 -303v-618h-242v580q0 223 -190 223q-106 0 -169 -77t-63 -208v-518h-241z" />
<glyph unicode="o" horiz-adv-x="1185" d="M74 498q0 184 92 315q68 101 178 156t248 55q139 0 249.5 -54.5t178.5 -156.5q92 -131 92 -315q0 -185 -92 -316q-68 -102 -178.5 -156.5t-249.5 -54.5q-138 0 -248 55t-178 156q-92 131 -92 316zM319 498q0 -120 58 -203q75 -111 215 -111q142 0 217 111q55 83 55 203 q0 119 -55 202q-75 111 -217 111q-140 0 -215 -111q-58 -83 -58 -202z" />
<glyph unicode="p" horiz-adv-x="1251" d="M154 -369v1364h241l-61 -266h35q43 145 133 220t223 75q110 0 199.5 -46t148.5 -132q92 -133 92 -348t-92 -348q-59 -86 -148.5 -132.5t-199.5 -46.5q-133 0 -223 75t-133 220h-35l61 -266v-369h-241zM391 498q0 -133 58 -213q72 -101 206 -101q135 0 207 101 q58 80 58 213t-58 213q-71 100 -207 100q-135 0 -206 -100q-58 -80 -58 -213z" />
<glyph unicode="q" horiz-adv-x="1251" d="M86 498q0 211 92 348q124 178 348 178q134 0 225 -75t132 -220h35l-62 266h242v-1364h-242v369l62 266h-35q-41 -145 -132 -220t-225 -75q-223 0 -348 179q-92 137 -92 348zM332 498q0 -132 59 -213q69 -101 205 -101q138 0 207 101q57 79 57 213t-57 213 q-68 100 -207 100q-137 0 -205 -100q-59 -81 -59 -213z" />
<glyph unicode="r" horiz-adv-x="995" d="M154 0v995h239l-69 -286h36q71 315 310 315q136 0 205 -85t69 -243v-217h-248v135q0 97 -33 141t-102 44q-82 0 -124 -68t-42 -199v-532h-241z" />
<glyph unicode="s" horiz-adv-x="1005" d="M90 313v13h234v-13q0 -153 176 -153q90 0 129 39q28 28 28 71q0 47 -30 75.5t-99 41.5l-147 33q-277 56 -277 297q0 123 78 201q106 106 324 106q188 0 294.5 -92t106.5 -252v-10h-233v10q0 77 -45 116.5t-133 39.5q-90 0 -129 -39q-29 -29 -29 -72q0 -87 129 -113 l129 -28q154 -32 225.5 -104.5t71.5 -198.5t-80 -203q-104 -107 -319 -107q-190 0 -297 90.5t-107 251.5z" />
<glyph unicode="t" horiz-adv-x="1009" d="M29 791v204h196v174l242 113v-287h461v-204h-461v-459q0 -75 28.5 -112.5t79.5 -37.5q60 0 85.5 40t25.5 132v144h242v-148q0 -178 -93.5 -278.5t-259.5 -100.5q-350 0 -350 359v461h-196z" />
<glyph unicode="u" horiz-adv-x="1171" d="M133 377v618h242v-579q0 -223 180 -223q103 0 162 76t59 208v518h242v-995h-242l62 266h-35q-86 -295 -326 -295q-171 0 -257.5 103t-86.5 303z" />
<glyph unicode="v" horiz-adv-x="1087" d="M29 995h256l235 -776l6 -76h35l6 76l236 776h256l-320 -995h-391z" />
<glyph unicode="w" horiz-adv-x="1667" d="M53 995h246l168 -766l2 -86h33l2 86l147 766h367l145 -766l2 -86h35l2 86l166 766h248l-240 -995h-370l-152 772l-2 78h-35l-2 -78l-151 -772h-373z" />
<glyph unicode="x" d="M45 0l338 500l-338 495h287l196 -311l4 -82h35l4 82l197 311h287l-338 -495l338 -500h-287l-197 303l-4 80h-35l-4 -80l-196 -303h-287z" />
<glyph unicode="y" horiz-adv-x="1105" d="M18 -86h238v-16q0 -45 27 -70t75 -25q101 0 136 119l49 170h-178l-332 903h268l256 -745h33l219 745h268l-344 -1058q-58 -179 -146 -255.5t-227 -76.5q-159 0 -250.5 75t-91.5 214v20z" />
<glyph unicode="z" horiz-adv-x="1028" d="M100 0v338l592 418v35h-592v204h828v-338l-596 -417v-35h596v-205h-828z" />
<glyph unicode="&#xaa;" d="M86 645v8q0 14 1 30t10 55.5t24.5 73.5t49 74.5t78.5 69.5t118.5 48.5t164.5 19.5q214 0 324.5 -97t110.5 -280v-647h-242l57 266h-34q-38 -151 -121.5 -223t-220.5 -72q-140 0 -224 84q-76 76 -76 199q0 129 74 203q92 92 277 104l268 19v67q0 83 -50.5 128.5 t-148.5 45.5q-54 0 -94 -16.5t-58 -37t-28.5 -48.5t-12 -41t-1.5 -25v-8h-246zM354 266q0 -44 29 -73q33 -33 96 -33q62 0 111 26.5t77 67.5t42.5 83t15.5 79l-211 -23q-89 -9 -129 -49q-31 -31 -31 -78z" />
<glyph unicode="&#xad;" horiz-adv-x="847" d="M106 489v222h635v-222h-635z" />
<glyph unicode="&#xba;" horiz-adv-x="1185" d="M74 498q0 184 92 315q68 101 178 156t248 55q139 0 249.5 -54.5t178.5 -156.5q92 -131 92 -315q0 -185 -92 -316q-68 -102 -178.5 -156.5t-249.5 -54.5q-138 0 -248 55t-178 156q-92 131 -92 316zM319 498q0 -120 58 -203q75 -111 215 -111q142 0 217 111q55 83 55 203 q0 119 -55 202q-75 111 -217 111q-140 0 -215 -111q-58 -83 -58 -202z" />
<glyph unicode="&#xc0;" horiz-adv-x="1439" d="M37 0l487 1434h391l488 -1434h-270l-152 465h-522l-152 -465h-270zM537 700h366l-151 463l-15 125h-35l-14 -125z" />
<glyph unicode="&#xc1;" horiz-adv-x="1439" d="M37 0l487 1434h391l488 -1434h-270l-152 465h-522l-152 -465h-270zM537 700h366l-151 463l-15 125h-35l-14 -125z" />
<glyph unicode="&#xc2;" horiz-adv-x="1439" d="M37 0l487 1434h391l488 -1434h-270l-152 465h-522l-152 -465h-270zM537 700h366l-151 463l-15 125h-35l-14 -125z" />
<glyph unicode="&#xc3;" horiz-adv-x="1439" d="M37 0l487 1434h391l488 -1434h-270l-152 465h-522l-152 -465h-270zM537 700h366l-151 463l-15 125h-35l-14 -125z" />
<glyph unicode="&#xc4;" horiz-adv-x="1439" d="M37 0l487 1434h391l488 -1434h-270l-152 465h-522l-152 -465h-270zM537 700h366l-151 463l-15 125h-35l-14 -125z" />
<glyph unicode="&#xc5;" horiz-adv-x="1439" d="M37 0l487 1434h391l488 -1434h-270l-152 465h-522l-152 -465h-270zM537 700h366l-151 463l-15 125h-35l-14 -125z" />
<glyph unicode="&#xc6;" horiz-adv-x="2588" d="M37 0l487 1434h391l488 -1434h-270l-152 465h-522l-152 -465h-270zM537 700h366l-151 463l-15 125h-35l-14 -125zM1612 0v1434h860v-238h-606v-360h585v-234h-585v-364h606v-238h-860z" />
<glyph unicode="&#xc7;" horiz-adv-x="1550" d="M82 717q0 164 49 295q77 211 255.5 332.5t418.5 121.5q279 0 460.5 -149.5t196.5 -398.5h-262q-17 140 -124.5 225.5t-268.5 85.5q-150 0 -261 -81t-163 -222q-35 -96 -35 -209t35 -209q52 -141 162 -222t256 -81q157 0 258.5 84.5t120.5 226.5h260q-19 -247 -193 -398 t-456 -151q-229 0 -406 122.5t-254 332.5q-49 131 -49 295z" />
<glyph unicode="&#xc8;" horiz-adv-x="1148" d="M172 0v1434h860v-238h-606v-360h586v-234h-586v-364h606v-238h-860z" />
<glyph unicode="&#xc9;" horiz-adv-x="1148" d="M172 0v1434h860v-238h-606v-360h586v-234h-586v-364h606v-238h-860z" />
<glyph unicode="&#xca;" horiz-adv-x="1148" d="M172 0v1434h860v-238h-606v-360h586v-234h-586v-364h606v-238h-860z" />
<glyph unicode="&#xcb;" horiz-adv-x="1148" d="M172 0v1434h860v-238h-606v-360h586v-234h-586v-364h606v-238h-860z" />
<glyph unicode="&#xcc;" horiz-adv-x="598" d="M172 0v1434h254v-1434h-254z" />
<glyph unicode="&#xcd;" horiz-adv-x="598" d="M172 0v1434h254v-1434h-254z" />
<glyph unicode="&#xce;" horiz-adv-x="598" d="M172 0v1434h254v-1434h-254z" />
<glyph unicode="&#xcf;" horiz-adv-x="598" d="M172 0v1434h254v-1434h-254z" />
<glyph unicode="&#xd0;" horiz-adv-x="1488" d="M172 0v1434h528q243 0 416.5 -112.5t245.5 -315.5q45 -133 45 -289q0 -161 -47 -291q-72 -203 -244 -314.5t-416 -111.5h-528zM426 238h291q142 0 243 73.5t146 200.5q35 93 35 205q0 113 -35 209q-47 126 -148 198t-241 72h-291v-958z" />
<glyph unicode="&#xd1;" horiz-adv-x="1492" d="M172 0v1434h385l440 -965l47 -303h35v1268h242v-1434h-385l-442 965l-45 303h-35v-1268h-242z" />
<glyph unicode="&#xd2;" horiz-adv-x="1634" d="M82 717q0 164 49 295q77 212 257.5 333t428.5 121t428.5 -121t257.5 -333q49 -131 49 -295t-49 -295q-76 -210 -256 -332.5t-428 -122.5q-247 0 -429 120.5t-259 334.5q-49 131 -49 295zM348 717q0 -113 35 -209q52 -142 164.5 -222.5t269.5 -80.5q156 0 268.5 79.5 t165.5 223.5q35 96 35 209t-35 209q-52 142 -164.5 222.5t-269.5 80.5t-269.5 -80.5t-164.5 -222.5q-35 -96 -35 -209z" />
<glyph unicode="&#xd3;" horiz-adv-x="1634" d="M82 717q0 164 49 295q77 212 257.5 333t428.5 121t428.5 -121t257.5 -333q49 -131 49 -295t-49 -295q-76 -210 -256 -332.5t-428 -122.5q-247 0 -429 120.5t-259 334.5q-49 131 -49 295zM348 717q0 -113 35 -209q52 -142 164.5 -222.5t269.5 -80.5q156 0 268.5 79.5 t165.5 223.5q35 96 35 209t-35 209q-52 142 -164.5 222.5t-269.5 80.5t-269.5 -80.5t-164.5 -222.5q-35 -96 -35 -209z" />
<glyph unicode="&#xd4;" horiz-adv-x="1634" d="M82 717q0 164 49 295q77 212 257.5 333t428.5 121t428.5 -121t257.5 -333q49 -131 49 -295t-49 -295q-76 -210 -256 -332.5t-428 -122.5q-247 0 -429 120.5t-259 334.5q-49 131 -49 295zM348 717q0 -113 35 -209q52 -142 164.5 -222.5t269.5 -80.5q156 0 268.5 79.5 t165.5 223.5q35 96 35 209t-35 209q-52 142 -164.5 222.5t-269.5 80.5t-269.5 -80.5t-164.5 -222.5q-35 -96 -35 -209z" />
<glyph unicode="&#xd5;" horiz-adv-x="1634" d="M82 717q0 164 49 295q77 212 257.5 333t428.5 121t428.5 -121t257.5 -333q49 -131 49 -295t-49 -295q-76 -210 -256 -332.5t-428 -122.5q-247 0 -429 120.5t-259 334.5q-49 131 -49 295zM348 717q0 -113 35 -209q52 -142 164.5 -222.5t269.5 -80.5q156 0 268.5 79.5 t165.5 223.5q35 96 35 209t-35 209q-52 142 -164.5 222.5t-269.5 80.5t-269.5 -80.5t-164.5 -222.5q-35 -96 -35 -209z" />
<glyph unicode="&#xd6;" horiz-adv-x="1634" d="M82 717q0 164 49 295q77 212 257.5 333t428.5 121t428.5 -121t257.5 -333q49 -131 49 -295t-49 -295q-76 -210 -256 -332.5t-428 -122.5q-247 0 -429 120.5t-259 334.5q-49 131 -49 295zM348 717q0 -113 35 -209q52 -142 164.5 -222.5t269.5 -80.5q156 0 268.5 79.5 t165.5 223.5q35 96 35 209t-35 209q-52 142 -164.5 222.5t-269.5 80.5t-269.5 -80.5t-164.5 -222.5q-35 -96 -35 -209z" />
<glyph unicode="&#xd8;" horiz-adv-x="1634" d="M82 717q0 164 49 295q77 212 257.5 333t428.5 121t428.5 -121t257.5 -333q49 -131 49 -295t-49 -295q-76 -210 -256 -332.5t-428 -122.5q-247 0 -429 120.5t-259 334.5q-49 131 -49 295zM348 717q0 -113 35 -209q52 -142 164.5 -222.5t269.5 -80.5q156 0 268.5 79.5 t165.5 223.5q35 96 35 209t-35 209q-52 142 -164.5 222.5t-269.5 80.5t-269.5 -80.5t-164.5 -222.5q-35 -96 -35 -209z" />
<glyph unicode="&#xd9;" horiz-adv-x="1433" d="M150 522v912h262v-904q0 -149 81.5 -235t223.5 -86t223.5 86t81.5 235v904h262v-912q0 -257 -153.5 -406t-413.5 -149q-262 0 -414.5 149t-152.5 406z" />
<glyph unicode="&#xda;" horiz-adv-x="1433" d="M150 522v912h262v-904q0 -149 81.5 -235t223.5 -86t223.5 86t81.5 235v904h262v-912q0 -257 -153.5 -406t-413.5 -149q-262 0 -414.5 149t-152.5 406z" />
<glyph unicode="&#xdb;" horiz-adv-x="1433" d="M150 522v912h262v-904q0 -149 81.5 -235t223.5 -86t223.5 86t81.5 235v904h262v-912q0 -257 -153.5 -406t-413.5 -149q-262 0 -414.5 149t-152.5 406z" />
<glyph unicode="&#xdc;" horiz-adv-x="1433" d="M150 522v912h262v-904q0 -149 81.5 -235t223.5 -86t223.5 86t81.5 235v904h262v-912q0 -257 -153.5 -406t-413.5 -149q-262 0 -414.5 149t-152.5 406z" />
<glyph unicode="&#xdd;" horiz-adv-x="1300" d="M18 1434h291l316 -596l8 -95h35l8 95l313 596h293l-506 -908v-526h-254v526z" />
<glyph unicode="&#xde;" horiz-adv-x="1232" d="M172 0v1434h537q141 0 249 -54.5t164 -152.5q56 -95 56 -226q0 -130 -56 -225q-56 -99 -164.5 -154t-248.5 -55h-283v-567h-254zM426 801h270q70 0 120.5 24.5t76.5 67.5q27 53 27 108q0 57 -27 109q-26 43 -76.5 67.5t-120.5 24.5h-270v-401z" />
<glyph unicode="&#xe0;" d="M86 645v8q0 14 1 30t10 55.5t24.5 73.5t49 74.5t78.5 69.5t118.5 48.5t164.5 19.5q214 0 324.5 -97t110.5 -280v-647h-242l57 266h-34q-38 -151 -121.5 -223t-220.5 -72q-140 0 -224 84q-76 76 -76 199q0 129 74 203q92 92 277 104l268 19v67q0 83 -50.5 128.5 t-148.5 45.5q-54 0 -94 -16.5t-58 -37t-28.5 -48.5t-12 -41t-1.5 -25v-8h-246zM354 266q0 -44 29 -73q33 -33 96 -33q62 0 111 26.5t77 67.5t42.5 83t15.5 79l-211 -23q-89 -9 -129 -49q-31 -31 -31 -78z" />
<glyph unicode="&#xe1;" d="M86 645v8q0 14 1 30t10 55.5t24.5 73.5t49 74.5t78.5 69.5t118.5 48.5t164.5 19.5q214 0 324.5 -97t110.5 -280v-647h-242l57 266h-34q-38 -151 -121.5 -223t-220.5 -72q-140 0 -224 84q-76 76 -76 199q0 129 74 203q92 92 277 104l268 19v67q0 83 -50.5 128.5 t-148.5 45.5q-54 0 -94 -16.5t-58 -37t-28.5 -48.5t-12 -41t-1.5 -25v-8h-246zM354 266q0 -44 29 -73q33 -33 96 -33q62 0 111 26.5t77 67.5t42.5 83t15.5 79l-211 -23q-89 -9 -129 -49q-31 -31 -31 -78z" />
<glyph unicode="&#xe2;" d="M86 645v8q0 14 1 30t10 55.5t24.5 73.5t49 74.5t78.5 69.5t118.5 48.5t164.5 19.5q214 0 324.5 -97t110.5 -280v-647h-242l57 266h-34q-38 -151 -121.5 -223t-220.5 -72q-140 0 -224 84q-76 76 -76 199q0 129 74 203q92 92 277 104l268 19v67q0 83 -50.5 128.5 t-148.5 45.5q-54 0 -94 -16.5t-58 -37t-28.5 -48.5t-12 -41t-1.5 -25v-8h-246zM354 266q0 -44 29 -73q33 -33 96 -33q62 0 111 26.5t77 67.5t42.5 83t15.5 79l-211 -23q-89 -9 -129 -49q-31 -31 -31 -78z" />
<glyph unicode="&#xe3;" d="M86 645v8q0 14 1 30t10 55.5t24.5 73.5t49 74.5t78.5 69.5t118.5 48.5t164.5 19.5q214 0 324.5 -97t110.5 -280v-647h-242l57 266h-34q-38 -151 -121.5 -223t-220.5 -72q-140 0 -224 84q-76 76 -76 199q0 129 74 203q92 92 277 104l268 19v67q0 83 -50.5 128.5 t-148.5 45.5q-54 0 -94 -16.5t-58 -37t-28.5 -48.5t-12 -41t-1.5 -25v-8h-246zM354 266q0 -44 29 -73q33 -33 96 -33q62 0 111 26.5t77 67.5t42.5 83t15.5 79l-211 -23q-89 -9 -129 -49q-31 -31 -31 -78z" />
<glyph unicode="&#xe4;" d="M86 645v8q0 14 1 30t10 55.5t24.5 73.5t49 74.5t78.5 69.5t118.5 48.5t164.5 19.5q214 0 324.5 -97t110.5 -280v-647h-242l57 266h-34q-38 -151 -121.5 -223t-220.5 -72q-140 0 -224 84q-76 76 -76 199q0 129 74 203q92 92 277 104l268 19v67q0 83 -50.5 128.5 t-148.5 45.5q-54 0 -94 -16.5t-58 -37t-28.5 -48.5t-12 -41t-1.5 -25v-8h-246zM354 266q0 -44 29 -73q33 -33 96 -33q62 0 111 26.5t77 67.5t42.5 83t15.5 79l-211 -23q-89 -9 -129 -49q-31 -31 -31 -78z" />
<glyph unicode="&#xe5;" d="M86 645v8q0 14 1 30t10 55.5t24.5 73.5t49 74.5t78.5 69.5t118.5 48.5t164.5 19.5q214 0 324.5 -97t110.5 -280v-647h-242l57 266h-34q-38 -151 -121.5 -223t-220.5 -72q-140 0 -224 84q-76 76 -76 199q0 129 74 203q92 92 277 104l268 19v67q0 83 -50.5 128.5 t-148.5 45.5q-54 0 -94 -16.5t-58 -37t-28.5 -48.5t-12 -41t-1.5 -25v-8h-246zM354 266q0 -44 29 -73q33 -33 96 -33q62 0 111 26.5t77 67.5t42.5 83t15.5 79l-211 -23q-89 -9 -129 -49q-31 -31 -31 -78z" />
<glyph unicode="&#xe6;" horiz-adv-x="2205" d="M86 645v8q0 14 1 30t10 55.5t24.5 73.5t49 74.5t78.5 69.5t118.5 48.5t164.5 19.5q214 0 324.5 -97t110.5 -280v-647h-242l57 266h-34q-38 -151 -121.5 -223t-220.5 -72q-140 0 -224 84q-76 76 -76 199q0 129 74 203q92 92 277 104l268 19v67q0 83 -50.5 128.5 t-148.5 45.5q-54 0 -94 -16.5t-58 -37t-28.5 -48.5t-12 -41t-1.5 -25v-8h-246zM354 266q0 -44 29 -73q33 -33 96 -33q62 0 111 26.5t77 67.5t42.5 83t15.5 79l-211 -23q-89 -9 -129 -49q-31 -31 -31 -78zM1174 494q0 194 100 340q64 93 164 141.5t223 48.5q224 0 346.5 -134 t122.5 -376v-82h-715q13 -107 55 -166q68 -96 205 -96q79 0 134.5 35t78.5 100h242q-26 -148 -150.5 -241t-298.5 -93q-286 0 -415 189q-92 130 -92 334zM1421 606h465q-4 108 -62 165.5t-161 57.5q-125 0 -195 -98q-35 -54 -47 -125z" />
<glyph unicode="&#xe7;" horiz-adv-x="1110" d="M74 494q0 203 94 340q134 190 407 190q201 0 330 -109t135 -290h-239q-14 89 -71.5 137.5t-151.5 48.5q-131 0 -199 -96q-60 -85 -60 -221q0 -132 58 -215q64 -95 190 -95q91 0 146 48t67 139h240q-4 -183 -131 -291.5t-328 -108.5q-266 0 -395 189q-92 130 -92 334z" />
<glyph unicode="&#xe8;" horiz-adv-x="1105" d="M74 494q0 194 100 340q64 93 164 141.5t223 48.5q224 0 346.5 -134t122.5 -376v-82h-715q12 -106 56 -166q68 -96 204 -96q79 0 134.5 35t78.5 100h242q-26 -148 -150 -241t-298 -93q-287 0 -416 189q-92 130 -92 334zM322 606h464q-4 108 -62 165.5t-161 57.5 q-124 0 -194 -98q-35 -54 -47 -125z" />
<glyph unicode="&#xe9;" horiz-adv-x="1105" d="M74 494q0 194 100 340q64 93 164 141.5t223 48.5q224 0 346.5 -134t122.5 -376v-82h-715q12 -106 56 -166q68 -96 204 -96q79 0 134.5 35t78.5 100h242q-26 -148 -150 -241t-298 -93q-287 0 -416 189q-92 130 -92 334zM322 606h464q-4 108 -62 165.5t-161 57.5 q-124 0 -194 -98q-35 -54 -47 -125z" />
<glyph unicode="&#xea;" horiz-adv-x="1105" d="M74 494q0 194 100 340q64 93 164 141.5t223 48.5q224 0 346.5 -134t122.5 -376v-82h-715q12 -106 56 -166q68 -96 204 -96q79 0 134.5 35t78.5 100h242q-26 -148 -150 -241t-298 -93q-287 0 -416 189q-92 130 -92 334zM322 606h464q-4 108 -62 165.5t-161 57.5 q-124 0 -194 -98q-35 -54 -47 -125z" />
<glyph unicode="&#xeb;" horiz-adv-x="1105" d="M74 494q0 194 100 340q64 93 164 141.5t223 48.5q224 0 346.5 -134t122.5 -376v-82h-715q12 -106 56 -166q68 -96 204 -96q79 0 134.5 35t78.5 100h242q-26 -148 -150 -241t-298 -93q-287 0 -416 189q-92 130 -92 334zM322 606h464q-4 108 -62 165.5t-161 57.5 q-124 0 -194 -98q-35 -54 -47 -125z" />
<glyph unicode="&#xec;" horiz-adv-x="548" d="M143 1137v252h265v-252h-265zM154 0v995h241v-995h-241z" />
<glyph unicode="&#xed;" horiz-adv-x="548" d="M143 1137v252h265v-252h-265zM154 0v995h241v-995h-241z" />
<glyph unicode="&#xee;" horiz-adv-x="548" d="M143 1137v252h265v-252h-265zM154 0v995h241v-995h-241z" />
<glyph unicode="&#xef;" horiz-adv-x="548" d="M143 1137v252h265v-252h-265zM154 0v995h241v-995h-241z" />
<glyph unicode="&#xf1;" horiz-adv-x="1191" d="M154 0v995h241l-61 -266h35q89 295 336 295q175 0 264.5 -103t89.5 -303v-618h-242v580q0 223 -190 223q-106 0 -169 -77t-63 -208v-518h-241z" />
<glyph unicode="&#xf2;" horiz-adv-x="1185" d="M74 498q0 184 92 315q68 101 178 156t248 55q139 0 249.5 -54.5t178.5 -156.5q92 -131 92 -315q0 -185 -92 -316q-68 -102 -178.5 -156.5t-249.5 -54.5q-138 0 -248 55t-178 156q-92 131 -92 316zM319 498q0 -120 58 -203q75 -111 215 -111q142 0 217 111q55 83 55 203 q0 119 -55 202q-75 111 -217 111q-140 0 -215 -111q-58 -83 -58 -202z" />
<glyph unicode="&#xf3;" horiz-adv-x="1185" d="M74 498q0 184 92 315q68 101 178 156t248 55q139 0 249.5 -54.5t178.5 -156.5q92 -131 92 -315q0 -185 -92 -316q-68 -102 -178.5 -156.5t-249.5 -54.5q-138 0 -248 55t-178 156q-92 131 -92 316zM319 498q0 -120 58 -203q75 -111 215 -111q142 0 217 111q55 83 55 203 q0 119 -55 202q-75 111 -217 111q-140 0 -215 -111q-58 -83 -58 -202z" />
<glyph unicode="&#xf4;" horiz-adv-x="1185" d="M74 498q0 184 92 315q68 101 178 156t248 55q139 0 249.5 -54.5t178.5 -156.5q92 -131 92 -315q0 -185 -92 -316q-68 -102 -178.5 -156.5t-249.5 -54.5q-138 0 -248 55t-178 156q-92 131 -92 316zM319 498q0 -120 58 -203q75 -111 215 -111q142 0 217 111q55 83 55 203 q0 119 -55 202q-75 111 -217 111q-140 0 -215 -111q-58 -83 -58 -202z" />
<glyph unicode="&#xf5;" horiz-adv-x="1185" d="M74 498q0 184 92 315q68 101 178 156t248 55q139 0 249.5 -54.5t178.5 -156.5q92 -131 92 -315q0 -185 -92 -316q-68 -102 -178.5 -156.5t-249.5 -54.5q-138 0 -248 55t-178 156q-92 131 -92 316zM319 498q0 -120 58 -203q75 -111 215 -111q142 0 217 111q55 83 55 203 q0 119 -55 202q-75 111 -217 111q-140 0 -215 -111q-58 -83 -58 -202z" />
<glyph unicode="&#xf6;" horiz-adv-x="1185" d="M74 498q0 184 92 315q68 101 178 156t248 55q139 0 249.5 -54.5t178.5 -156.5q92 -131 92 -315q0 -185 -92 -316q-68 -102 -178.5 -156.5t-249.5 -54.5q-138 0 -248 55t-178 156q-92 131 -92 316zM319 498q0 -120 58 -203q75 -111 215 -111q142 0 217 111q55 83 55 203 q0 119 -55 202q-75 111 -217 111q-140 0 -215 -111q-58 -83 -58 -202z" />
<glyph unicode="&#xf8;" horiz-adv-x="1185" d="M74 498q0 184 92 315q68 101 178 156t248 55q139 0 249.5 -54.5t178.5 -156.5q92 -131 92 -315q0 -185 -92 -316q-68 -102 -178.5 -156.5t-249.5 -54.5q-138 0 -248 55t-178 156q-92 131 -92 316zM319 498q0 -120 58 -203q75 -111 215 -111q142 0 217 111q55 83 55 203 q0 119 -55 202q-75 111 -217 111q-140 0 -215 -111q-58 -83 -58 -202z" />
<glyph unicode="&#xf9;" horiz-adv-x="1171" d="M133 377v618h242v-579q0 -223 180 -223q103 0 162 76t59 208v518h242v-995h-242l62 266h-35q-86 -295 -326 -295q-171 0 -257.5 103t-86.5 303z" />
<glyph unicode="&#xfa;" horiz-adv-x="1171" d="M133 377v618h242v-579q0 -223 180 -223q103 0 162 76t59 208v518h242v-995h-242l62 266h-35q-86 -295 -326 -295q-171 0 -257.5 103t-86.5 303z" />
<glyph unicode="&#xfb;" horiz-adv-x="1171" d="M133 377v618h242v-579q0 -223 180 -223q103 0 162 76t59 208v518h242v-995h-242l62 266h-35q-86 -295 -326 -295q-171 0 -257.5 103t-86.5 303z" />
<glyph unicode="&#xfc;" horiz-adv-x="1171" d="M133 377v618h242v-579q0 -223 180 -223q103 0 162 76t59 208v518h242v-995h-242l62 266h-35q-86 -295 -326 -295q-171 0 -257.5 103t-86.5 303z" />
<glyph unicode="&#xfd;" horiz-adv-x="1105" d="M18 -86h238v-16q0 -45 27 -70t75 -25q101 0 136 119l49 170h-178l-332 903h268l256 -745h33l219 745h268l-344 -1058q-58 -179 -146 -255.5t-227 -76.5q-159 0 -250.5 75t-91.5 214v20z" />
<glyph unicode="&#xfe;" horiz-adv-x="1251" d="M154 -369v1364h241l-61 -266h35q43 145 133 220t223 75q110 0 199.5 -46t148.5 -132q92 -133 92 -348t-92 -348q-59 -86 -148.5 -132.5t-199.5 -46.5q-133 0 -223 75t-133 220h-35l61 -266v-369h-241zM391 498q0 -133 58 -213q72 -101 206 -101q135 0 207 101 q58 80 58 213t-58 213q-71 100 -207 100q-135 0 -206 -100q-58 -80 -58 -213z" />
<glyph unicode="&#xff;" horiz-adv-x="1105" d="M18 -86h238v-16q0 -45 27 -70t75 -25q101 0 136 119l49 170h-178l-332 903h268l256 -745h33l219 745h268l-344 -1058q-58 -179 -146 -255.5t-227 -76.5q-159 0 -250.5 75t-91.5 214v20z" />
<glyph unicode="&#x152;" horiz-adv-x="2783" d="M82 717q0 164 49 295q77 212 257.5 333t428.5 121t428.5 -121t257.5 -333q49 -131 49 -295t-49 -295q-76 -210 -256 -332.5t-428 -122.5q-247 0 -429 120.5t-259 334.5q-49 131 -49 295zM348 717q0 -113 35 -209q52 -142 164.5 -222.5t269.5 -80.5q156 0 268.5 79.5 t165.5 223.5q35 96 35 209t-35 209q-52 142 -164.5 222.5t-269.5 80.5t-269.5 -80.5t-164.5 -222.5q-35 -96 -35 -209zM1806 0v1434h860v-238h-606v-360h586v-234h-586v-364h606v-238h-860z" />
<glyph unicode="&#x153;" horiz-adv-x="2291" d="M74 498q0 184 92 315q68 101 178 156t248 55q139 0 249.5 -54.5t178.5 -156.5q92 -131 92 -315q0 -185 -92 -316q-68 -102 -178.5 -156.5t-249.5 -54.5q-138 0 -248 55t-178 156q-92 131 -92 316zM319 498q0 -120 58 -203q75 -111 215 -111q142 0 217 111q55 83 55 203 q0 119 -55 202q-75 111 -217 111q-140 0 -215 -111q-58 -83 -58 -202zM1260 494q0 194 100 340q64 93 164 141.5t223 48.5q224 0 346.5 -134t122.5 -376v-82h-715q13 -107 55 -166q68 -96 205 -96q79 0 134.5 35t78.5 100h242q-26 -148 -150.5 -241t-298.5 -93 q-286 0 -415 189q-92 130 -92 334zM1507 606h465q-4 108 -62 165.5t-161 57.5q-125 0 -195 -98q-35 -54 -47 -125z" />
<glyph unicode="&#x178;" horiz-adv-x="1300" d="M18 1434h291l316 -596l8 -95h35l8 95l313 596h293l-506 -908v-526h-254v526z" />
<glyph unicode="&#x2000;" horiz-adv-x="733" />
<glyph unicode="&#x2001;" horiz-adv-x="1466" />
<glyph unicode="&#x2002;" horiz-adv-x="733" />
<glyph unicode="&#x2003;" horiz-adv-x="1466" />
<glyph unicode="&#x2004;" horiz-adv-x="488" />
<glyph unicode="&#x2005;" horiz-adv-x="366" />
<glyph unicode="&#x2006;" horiz-adv-x="244" />
<glyph unicode="&#x2007;" horiz-adv-x="244" />
<glyph unicode="&#x2008;" horiz-adv-x="183" />
<glyph unicode="&#x2009;" horiz-adv-x="293" />
<glyph unicode="&#x200a;" horiz-adv-x="81" />
<glyph unicode="&#x2010;" horiz-adv-x="847" d="M106 489v222h635v-222h-635z" />
<glyph unicode="&#x2011;" horiz-adv-x="847" d="M106 489v222h635v-222h-635z" />
<glyph unicode="&#x2012;" horiz-adv-x="847" d="M106 489v222h635v-222h-635z" />
<glyph unicode="&#x2013;" horiz-adv-x="1236" d="M106 489v222h1024v-222h-1024z" />
<glyph unicode="&#x2014;" horiz-adv-x="2260" d="M106 489v222h2048v-222h-2048z" />
<glyph unicode="&#x202f;" horiz-adv-x="293" />
<glyph unicode="&#x205f;" horiz-adv-x="366" />
<glyph unicode="&#x25fc;" horiz-adv-x="993" d="M0 0v993h993v-993h-993z" />
</font>
</defs>
</svg>
