<?xml version="1.0" standalone="no"?>
<!DOCTYPE svg PUBLIC "-//W3C//DTD SVG 1.1//EN" "http://www.w3.org/Graphics/SVG/1.1/DTD/svg11.dtd" >
<svg xmlns="http://www.w3.org/2000/svg" xmlns:xlink="http://www.w3.org/1999/xlink" version="1.1">
<metadata></metadata>
<defs>
<font id="gt_zirkon_trialmd" horiz-adv-x="1116" >
<font-face units-per-em="2048" ascent="1610" descent="-438" />
<missing-glyph horiz-adv-x="520" />
<glyph horiz-adv-x="0" />
<glyph horiz-adv-x="682" />
<glyph unicode=" "  horiz-adv-x="520" />
<glyph unicode="&#x09;" horiz-adv-x="520" />
<glyph unicode="&#xa0;" horiz-adv-x="520" />
<glyph unicode="," horiz-adv-x="559" d="M143 0v276h273v-188q0 -151 -42 -249.5t-130 -160.5l-72 72q125 107 125 236q0 31 12 43l-6 6q-26 -35 -74 -35h-86z" />
<glyph unicode="-" horiz-adv-x="819" d="M100 461v184h619v-184h-619z" />
<glyph unicode="." horiz-adv-x="559" d="M143 0v276h273v-276h-273z" />
<glyph unicode="0" horiz-adv-x="1261" d="M127 696q0 363 124 544t380 181t380 -181t124 -544t-124 -544t-380 -181t-380 181t-124 544zM379 696q0 -283 60 -411.5t192 -128.5t193 129t61 411t-61 411.5t-193 129.5t-192 -129t-60 -412z" />
<glyph unicode="1" horiz-adv-x="987" d="M102 1075q186 6 268.5 74t114.5 244h183v-1213h280v-180h-837v180h319v649q0 124 29 283h-13q-37 -142 -111 -196.5t-208 -57.5z" />
<glyph unicode="2" d="M90 1024q0 183 124.5 290t338.5 107q209 0 323.5 -108t114.5 -305q0 -229 -194.5 -454.5t-530.5 -383.5v-14q163 41 406 41h334v-197h-910v160q365 281 509.5 463t144.5 364q0 117 -56.5 181.5t-156.5 64.5q-97 0 -156 -57t-59 -152q0 -58 10 -123l-234 39q-8 41 -8 84z " />
<glyph unicode="3" horiz-adv-x="1155" d="M80 369l219 65q7 -130 79 -204t191 -74q105 0 169.5 60.5t64.5 164.5q0 235 -309 235h-76v199h78q131 0 208.5 62t77.5 167q0 91 -61 141t-156 50q-106 0 -172 -65t-76 -185l-213 66q20 181 147 275.5t324 94.5q128 0 228 -40.5t159.5 -123.5t59.5 -196 q0 -149 -98 -242.5t-273 -93.5h-59v-18h57q190 0 295 -86.5t105 -251.5q0 -184 -129.5 -291t-348.5 -107q-214 0 -343 103t-148 295z" />
<glyph unicode="4" horiz-adv-x="1132" d="M39 350v146q240 283 592 897h239v-863h213v-180h-213v-350h-229v350h-602zM197 516l2 -10q82 24 176 24h266v406q0 163 33 285l-15 4q-23 -89 -73 -170q-156 -264 -267 -430q-44 -66 -122 -109z" />
<glyph unicode="5" horiz-adv-x="1169" d="M111 330l213 69q17 -115 85 -177t171 -62q112 0 179.5 78.5t67.5 216.5q0 134 -63 210t-176 76q-144 0 -201 -127l-221 37l43 742h811l-49 -213h-582l-16 -340q-5 -85 -27 -176l12 -2q68 245 316 245q183 0 289 -120t106 -324q0 -229 -129.5 -360.5t-355.5 -131.5 q-200 0 -321 91.5t-152 267.5z" />
<glyph unicode="6" horiz-adv-x="1206" d="M111 676q0 349 144.5 547t395.5 198q176 0 290 -76.5t151 -230.5l-213 -70q-53 195 -220 195q-147 0 -231 -149t-84 -424q0 -40 2 -58h10q21 143 111 221t227 78q181 0 290.5 -125t109.5 -331q0 -219 -125.5 -349.5t-335.5 -130.5q-246 0 -384 186.5t-138 518.5zM358 471 q25 -154 93 -233.5t174 -79.5q105 0 165 75.5t60 208.5q0 138 -63 218.5t-175 80.5q-99 0 -166.5 -72t-87.5 -198z" />
<glyph unicode="7" horiz-adv-x="980" d="M39 1178v215h903v-158q-230 -183 -328 -435t-98 -620v-180h-260v88q0 334 109.5 610t336.5 439q48 36 129 63v14q-72 -21 -134 -28.5t-160 -7.5h-498z" />
<glyph unicode="8" horiz-adv-x="1212" d="M111 350q0 140 89 227t253 109v12q-133 20 -215 115.5t-82 230.5q0 169 125.5 273t330.5 104q200 0 325.5 -98.5t125.5 -255.5q0 -129 -84.5 -210.5t-233.5 -96.5v-10q172 -29 264.5 -125t92.5 -246q0 -186 -136.5 -297t-365.5 -111q-222 0 -355.5 103.5t-133.5 275.5z M330 408q0 -113 76.5 -184.5t197.5 -71.5q113 0 180.5 64t67.5 171q0 101 -76.5 157t-292.5 113q-69 -29 -111 -97t-42 -152zM393 1042q0 -91 70.5 -149t238.5 -105q67 32 104.5 93t37.5 139q0 100 -64 161.5t-168 61.5q-98 0 -158.5 -55t-60.5 -146z" />
<glyph unicode="9" horiz-adv-x="1198" d="M111 958q0 214 126 338.5t341 124.5q250 0 379.5 -190t129.5 -543q0 -354 -130 -535.5t-390 -181.5q-182 0 -303.5 88t-148.5 250l211 76q55 -225 243 -225q149 0 217 127t68 403q0 57 -2 84h-10q-20 -127 -105 -197.5t-219 -70.5q-184 0 -295.5 124.5t-111.5 327.5z M352 967q0 -135 63.5 -216t170.5 -81q99 0 165.5 65.5t88.5 182.5q-50 317 -254 317q-109 0 -171.5 -70.5t-62.5 -197.5z" />
<glyph unicode="A" horiz-adv-x="1261" d="M55 0l441 1434h268l442 -1434h-266l-111 377h-450l-111 -377h-213zM428 547h350l-106 360q-59 206 -64 355h-14q-14 -201 -59 -355z" />
<glyph unicode="B" horiz-adv-x="1271" d="M203 0v1434h452q214 0 331.5 -90t117.5 -259q0 -63 -17 -118.5t-51.5 -100t-92 -71.5t-132.5 -29l-90 -2v-16l88 -3q167 -3 259.5 -97t92.5 -255q0 -189 -129 -291t-373 -102h-456zM453 174h190q126 0 193 60t67 174q0 121 -65 186t-193 65h-192v-485zM453 836h172 q107 0 164 58t57 159q0 99 -56.5 153t-162.5 54h-174v-424z" />
<glyph unicode="C" horiz-adv-x="1277" d="M131 713q0 370 144 559.5t417 189.5q219 0 348.5 -115t139.5 -323l-250 -49q-6 148 -68.5 223.5t-173.5 75.5q-150 0 -221.5 -135t-71.5 -420q0 -286 71.5 -421.5t219.5 -135.5q115 0 178.5 79t67.5 232l250 -51q-10 -216 -140 -333.5t-352 -117.5q-559 0 -559 742z" />
<glyph unicode="D" horiz-adv-x="1357" d="M203 0v1434h411q615 0 615 -717t-615 -717h-411zM453 180h151q101 0 171.5 35t112 105.5t59.5 166.5t18 230q0 269 -81.5 401.5t-279.5 132.5h-151v-1071z" />
<glyph unicode="E" horiz-adv-x="1136" d="M203 0v1434h809v-183h-559v-420h510v-180h-510v-469h571v-182h-821z" />
<glyph unicode="F" horiz-adv-x="1069" d="M203 0v1434h796v-183h-546v-446h512v-184h-512v-621h-250z" />
<glyph unicode="G" horiz-adv-x="1378" d="M131 711q0 370 143 560.5t416 190.5q102 0 187 -25t151 -76t107 -133.5t51 -191.5l-248 -53q-9 138 -71.5 212.5t-170.5 74.5q-160 0 -230.5 -132.5t-70.5 -418.5q0 -289 71 -421t228 -132q125 0 200 87.5t75 283.5v38h-297v175h526v-750h-194v141q0 150 18 279h-16 q-25 -232 -117 -340.5t-268 -108.5q-240 0 -365 187.5t-125 552.5z" />
<glyph unicode="H" horiz-adv-x="1402" d="M203 0v1434h250v-596h499v596h250v-1434h-250v655h-499v-655h-250z" />
<glyph unicode="I" horiz-adv-x="655" d="M203 0v1434h250v-1434h-250z" />
<glyph unicode="J" horiz-adv-x="1052" d="M39 336q0 68 18 133l234 27q-23 -71 -23 -134q0 -90 46 -142t122 -52q91 0 136.5 70t45.5 198v998h250v-971q0 -245 -104 -368.5t-322 -123.5q-189 0 -296 95.5t-107 269.5z" />
<glyph unicode="K" horiz-adv-x="1302" d="M203 0v1434h250v-486q0 -84 -5 -127.5t-22 -81.5v-10q17 -42 22 -91t5 -138v-500h-250zM436 733l504 701h272l-510 -674l564 -760h-312z" />
<glyph unicode="L" horiz-adv-x="1026" d="M203 0v1434h250v-1244h536v-190h-786z" />
<glyph unicode="M" horiz-adv-x="1701" d="M203 0v1434h350l213 -764q80 -286 80 -496h16q1 79 4.5 132.5t21 153.5t50.5 210l221 764h340v-1434h-239v735q0 271 20 520h-14q-43 -264 -99 -462l-225 -793h-219l-231 805q-43 150 -91 450h-14q21 -261 21 -507v-748h-205z" />
<glyph unicode="N" horiz-adv-x="1417" d="M203 0v1434h325l390 -893q75 -189 110 -371h14q-28 172 -28 342v922h200v-1434h-325l-389 889q-83 215 -113 371h-14q30 -184 30 -342v-918h-200z" />
<glyph unicode="O" horiz-adv-x="1406" d="M131 717q0 369 145.5 557t425.5 188q281 0 427.5 -188t146.5 -557t-146.5 -557.5t-427.5 -188.5q-280 0 -425.5 188.5t-145.5 557.5zM393 717q0 -289 74 -421t235 -132q163 0 237.5 132t74.5 421q0 290 -74.5 421.5t-237.5 131.5q-161 0 -235 -131.5t-74 -421.5z" />
<glyph unicode="P" horiz-adv-x="1220" d="M203 0v1434h452q132 0 231 -33t156 -92.5t84 -133t27 -161.5q0 -91 -27 -166t-84 -135.5t-156 -94.5t-231 -34h-202v-584h-250zM453 762h178q140 0 199 66.5t59 183.5q0 114 -59 177.5t-199 63.5h-178v-491z" />
<glyph unicode="Q" horiz-adv-x="1406" d="M131 717q0 369 145.5 557t425.5 188q281 0 427.5 -188t146.5 -557q0 -339 -124.5 -526t-363.5 -216q-65 -25 -65 -84q0 -88 104 -88q89 0 134 66l43 -180q-61 -64 -183 -64q-105 0 -166 50.5t-61 129.5q0 54 27 97t69 55v14q-273 5 -416 194t-143 552zM393 717 q0 -289 74 -421t235 -132q163 0 237.5 132t74.5 421q0 290 -74.5 421.5t-237.5 131.5q-161 0 -235 -131.5t-74 -421.5z" />
<glyph unicode="R" horiz-adv-x="1325" d="M203 0v1434h514q207 0 321.5 -96t114.5 -275q0 -167 -101.5 -259.5t-281.5 -92.5h-65v-15l69 -4q35 -2 55.5 -3.5t50 -5.5t47.5 -10.5t42 -16.5t39.5 -25t34.5 -36t32.5 -49t28 -63.5t26 -80.5t21.5 -99q40 -211 74 -303h-273q-17 53 -53 272q-32 201 -87.5 271.5 t-180.5 70.5h-178v-614h-250zM453 793h211q111 0 170 59t59 174q0 227 -229 227h-211v-460z" />
<glyph unicode="S" horiz-adv-x="1239" d="M106 416l236 61q8 -154 79.5 -236.5t207.5 -82.5q108 0 171.5 51t63.5 149q0 148 -168 213l-245 99q-295 117 -295 401q0 187 128 289t349 102q213 0 342.5 -99.5t136.5 -291.5l-233 -57q-17 259 -244 262h-9q-96 0 -154 -44q-60 -46 -60 -136q0 -81 43 -130.5t133 -86.5 l223 -91q144 -57 227.5 -152.5t83.5 -248.5q0 -198 -132 -307t-365 -109q-242 0 -378.5 116t-140.5 329z" />
<glyph unicode="T" horiz-adv-x="1120" d="M49 1243v191h1022v-191h-385v-1243h-250v1243h-387z" />
<glyph unicode="U" horiz-adv-x="1349" d="M184 551v883h256v-912q0 -181 64.5 -267.5t200.5 -86.5q139 0 200.5 86.5t61.5 267.5v912h198v-883q0 -300 -110.5 -440t-370.5 -140q-268 0 -384 142t-116 438z" />
<glyph unicode="V" horiz-adv-x="1202" d="M49 1434h266l224 -779q37 -128 62 -258.5t26 -206.5h14q3 183 82 465l221 779h211l-428 -1434h-250z" />
<glyph unicode="W" horiz-adv-x="1755" d="M70 1434h258l153 -766q47 -237 47 -488h15q0 259 51 488l176 766h260l180 -766q58 -235 58 -488h14q0 257 47 488l160 766h199l-328 -1434h-232l-194 829q-51 210 -51 420h-17q0 -206 -49 -420l-192 -829h-230z" />
<glyph unicode="X" horiz-adv-x="1210" d="M49 0l430 717l-401 717h287l192 -371q56 -101 59 -207h17q3 58 20.5 108t59.5 121l198 349h230l-404 -670l426 -764h-282l-222 416q-56 101 -59 200h-14q-6 -57 -24 -105.5t-56 -117.5l-223 -393h-234z" />
<glyph unicode="Y" horiz-adv-x="1167" d="M29 1434h278l217 -476q38 -82 54.5 -140t19.5 -136h12q6 80 21 139t53 140l234 473h221l-441 -869v-565h-249v565z" />
<glyph unicode="Z" horiz-adv-x="1130" d="M90 0v147l508 897q29 51 46 78.5t50 68t70 71.5v14q-48 -21 -97.5 -29t-162.5 -8h-391v195h897v-146l-502 -895q-85 -148 -170 -219v-14q42 22 90.5 29.5t163.5 7.5h448v-197h-950z" />
<glyph unicode="a" d="M117 260q0 140 89.5 218.5t266.5 103.5l244 32v64q0 111 -41 163t-131 52q-87 0 -136 -51.5t-55 -147.5l-223 37q13 161 120 245.5t298 84.5q403 0 403 -385v-334q0 -246 35 -342h-242q-16 78 -16 115q0 43 19 147h-15q-29 -145 -104 -218t-213 -73q-137 0 -218 78 t-81 211zM360 276q0 -65 39.5 -100t106.5 -35q96 0 153.5 68t57.5 201v47l-187 -33q-84 -14 -127 -48.5t-43 -99.5z" />
<glyph unicode="b" horiz-adv-x="1189" d="M182 0v1466h236v-383q0 -151 -47 -323h14q40 149 117 225t207 76q174 0 272 -142.5t98 -400.5q0 -260 -100.5 -403.5t-276.5 -143.5q-129 0 -198.5 70t-110.5 213h-14q35 -126 35 -219v-35h-232zM399 518q0 -180 54.5 -274t160.5 -94q107 0 163.5 95t56.5 275 q0 177 -56.5 270t-163.5 93q-106 0 -160.5 -93t-54.5 -272z" />
<glyph unicode="c" horiz-adv-x="1038" d="M111 510q0 258 124 404.5t336 146.5q182 0 283.5 -88t112.5 -248l-226 -39q-19 199 -170 199q-100 0 -158.5 -97t-58.5 -268q0 -176 54.5 -272t156.5 -96q148 0 176 190l224 -51q-65 -320 -404 -320q-221 0 -335.5 141t-114.5 398z" />
<glyph unicode="d" horiz-adv-x="1189" d="M111 518q0 258 98 400.5t272 142.5q131 0 207.5 -75.5t116.5 -225.5h14q-47 172 -47 323v383h236v-1466h-232v35q0 93 35 219h-14q-41 -143 -110.5 -213t-199.5 -70q-176 0 -276 143t-100 404zM356 520q0 -180 56 -275t163 -95q106 0 161 94t55 274q0 179 -55 272 t-161 93q-107 0 -163 -93t-56 -270z" />
<glyph unicode="e" horiz-adv-x="1079" d="M111 516q0 258 118 401.5t330 143.5q196 0 305 -123t109 -344q0 -66 -8 -131h-615q4 -159 56.5 -235t156.5 -76q79 0 121 40t61 132l216 -54q-29 -146 -130.5 -222.5t-267.5 -76.5q-217 0 -334.5 142t-117.5 403zM350 610h387q0 150 -43.5 220.5t-134.5 70.5 q-97 0 -151.5 -74.5t-57.5 -216.5z" />
<glyph unicode="f" horiz-adv-x="819" d="M29 872v160h211v133q0 154 88.5 242t246.5 88q86 0 153.5 -29t125.5 -96l-129 -131q-62 76 -135 76q-54 0 -84.5 -38.5t-30.5 -109.5v-135h303v-160h-303v-872h-235v872h-211z" />
<glyph unicode="g" horiz-adv-x="1124" d="M72 -180q0 90 63 143.5t170 61.5l101 6v14l-91 2q-92 2 -147 45.5t-55 126.5q0 73 46 117t142 63v13q-80 46 -124 122.5t-44 172.5q0 158 114.5 256t303.5 98q158 0 268 -74l6 6q-18 41 -18 92q0 63 44.5 104.5t119.5 41.5q47 0 102 -21l-35 -184q-51 23 -92 23 q-40 0 -62 -18t-22 -48q0 -19 10 -39q95 -95 95 -237q0 -159 -114 -258t-302 -99q-100 0 -191 33q-61 -38 -61 -94q0 -45 32.5 -66t106.5 -22l307 -6q336 -9 336 -281q0 -174 -141 -263t-395 -89q-234 0 -353.5 66t-119.5 192zM289 -137q0 -72 65.5 -107t204.5 -35 q147 0 220 35t73 115q0 110 -141 113l-308 6q-64 -18 -89 -48.5t-25 -78.5zM373 707q0 -100 47 -156.5t131 -56.5q83 0 130.5 56.5t47.5 156.5q0 98 -47.5 154.5t-130.5 56.5q-84 0 -131 -56t-47 -155z" />
<glyph unicode="h" horiz-adv-x="1173" d="M182 0v1466h236v-376q0 -171 -43 -369h14q35 179 108.5 259.5t215.5 80.5q141 0 220 -87.5t79 -256.5v-717h-236v651q0 223 -164 223q-98 0 -146 -79t-48 -250v-545h-236z" />
<glyph unicode="i" horiz-adv-x="591" d="M170 1214v252h250v-252h-250zM178 0v1032h236v-1032h-236z" />
<glyph unicode="j" horiz-adv-x="614" d="M-94 -362l96 151q47 -37 90 -37q109 0 109 139v1141h235v-1120q0 -179 -74.5 -264.5t-226.5 -85.5q-147 0 -229 76zM195 1214v252h249v-252h-249z" />
<glyph unicode="k" d="M182 0v1466h236v-602q0 -112 -6.5 -169t-22.5 -115v-5q29 -116 29 -305v-270h-236zM399 578l385 456h258l-385 -448l424 -586h-280z" />
<glyph unicode="l" horiz-adv-x="598" d="M182 0v1466h236v-1466h-236z" />
<glyph unicode="m" horiz-adv-x="1669" d="M178 0v1032h228v-33q0 -104 -37 -286h14q33 190 98 269t195 79q122 0 186 -88q59 -81 59 -230q0 -14 -1 -28h14q19 176 89 261t206 85q141 0 206.5 -91.5t65.5 -277.5v-692h-235v653q0 114 -33.5 170t-106.5 56q-89 0 -128.5 -85.5t-39.5 -252.5v-541h-235v655 q0 113 -32.5 168.5t-104.5 55.5q-91 0 -131.5 -82t-40.5 -240v-557h-236z" />
<glyph unicode="n" horiz-adv-x="1177" d="M178 0v1032h230v-26q0 -118 -37 -285h16q31 177 106 258.5t220 81.5q140 0 218.5 -88.5t78.5 -261.5v-711h-236v651q0 223 -164 223q-100 0 -148 -79t-48 -250v-545h-236z" />
<glyph unicode="o" horiz-adv-x="1140" d="M111 516q0 264 118.5 404.5t341.5 140.5q222 0 340.5 -140.5t118.5 -404.5q0 -263 -119 -404t-340 -141q-222 0 -341 141t-119 404zM354 516q0 -373 217 -373q215 0 215 373q0 186 -54.5 280.5t-160.5 94.5q-217 0 -217 -375z" />
<glyph unicode="p" horiz-adv-x="1185" d="M178 -410v1442h230v-22q0 -98 -37 -250h14q37 150 112 225.5t208 75.5q174 0 272 -142.5t98 -402.5q0 -259 -96.5 -402t-273.5 -143q-137 0 -206 70.5t-110 220.5h-14q39 -165 39 -297v-375h-236zM395 516q0 -179 54.5 -271.5t160.5 -92.5q108 0 164.5 93t56.5 269 q0 179 -56 274t-163 95t-162 -93.5t-55 -273.5z" />
<glyph unicode="q" horiz-adv-x="1185" d="M111 516q0 260 98 402.5t274 142.5q131 0 206 -75.5t114 -225.5h12q-37 152 -37 250v22h230v-1442h-236v375q0 132 39 297h-14q-41 -150 -110 -220.5t-204 -70.5q-178 0 -275 143t-97 402zM354 514q0 -176 56.5 -269t164.5 -93q106 0 161 93t55 271q0 180 -55.5 273.5 t-162.5 93.5t-163 -95t-56 -274z" />
<glyph unicode="r" horiz-adv-x="800" d="M178 0v1032h230v-18q0 -101 -37 -342h14q13 97 31.5 164t48.5 120t75.5 79t108.5 26q84 0 131 -35l-69 -221q-49 37 -123 37q-174 0 -174 -293v-549h-236z" />
<glyph unicode="s" horiz-adv-x="1003" d="M80 289l207 47q11 -96 67 -146.5t154 -50.5q81 0 124.5 35t43.5 96q0 54 -27.5 84.5t-83.5 46.5l-162 45q-145 40 -216.5 115.5t-71.5 196.5q0 140 107 221.5t294 81.5q175 0 278.5 -74.5t118.5 -214.5l-202 -45q-23 166 -199 166q-75 0 -119.5 -32t-44.5 -87 q0 -59 36 -89t108 -52l161 -45q135 -39 197.5 -108t62.5 -185q0 -154 -107 -239t-300 -85q-196 0 -304 81t-122 237z" />
<glyph unicode="t" horiz-adv-x="858" d="M31 872v160h198v252l236 96v-348h297v-160h-297v-516q0 -106 30.5 -146t102.5 -40q89 0 166 51l31 -178q-32 -25 -106 -48.5t-146 -23.5q-161 0 -237.5 84.5t-76.5 272.5v544h-198z" />
<glyph unicode="u" horiz-adv-x="1177" d="M170 322v710h236v-651q0 -223 161 -223q100 0 148.5 79t48.5 250v545h235v-1032h-229v27q0 120 37 284h-16q-31 -177 -106 -258.5t-220 -81.5q-140 0 -217.5 89t-77.5 262z" />
<glyph unicode="v" horiz-adv-x="1007" d="M39 1032h254l147 -495q75 -244 78 -396h17q4 167 63 367l160 524h211l-336 -1032h-256z" />
<glyph unicode="w" horiz-adv-x="1458" d="M49 1032h246l113 -516q39 -183 45 -350h14q7 193 45 348l127 518h240l118 -510q50 -211 50 -356h14q0 158 41 356l104 510h203l-264 -1032h-240l-117 489q-48 213 -51 377h-14q0 -170 -49 -379l-121 -487h-240z" />
<glyph unicode="x" horiz-adv-x="1034" d="M49 0l346 504l-332 528h281l123 -213q31 -53 43 -86.5t18 -85.5h13q4 52 16 81t51 91l142 213h215l-332 -485l350 -547h-281l-137 229q-29 49 -42 88t-23 99h-13q-5 -58 -16.5 -92.5t-48.5 -87.5l-158 -236h-215z" />
<glyph unicode="y" horiz-adv-x="1044" d="M41 -377l76 168q71 -47 133 -47q107 0 143 127l31 92l-369 1069h250l184 -559q49 -144 52 -323h16q6 182 43 299l191 583h204l-401 -1190q-43 -132 -131.5 -206t-208.5 -74q-118 0 -213 61z" />
<glyph unicode="z" horiz-adv-x="942" d="M88 0v129l369 584q65 107 161 170v16q-95 -49 -206 -49h-308v182h734v-129l-363 -581q-40 -67 -75 -105.5t-87 -71.5v-18q107 55 187 55h360v-182h-772z" />
<glyph unicode="&#xaa;" d="M117 260q0 140 89.5 218.5t266.5 103.5l244 32v64q0 111 -41 163t-131 52q-87 0 -136 -51.5t-55 -147.5l-223 37q13 161 120 245.5t298 84.5q403 0 403 -385v-334q0 -246 35 -342h-242q-16 78 -16 115q0 43 19 147h-15q-29 -145 -104 -218t-213 -73q-137 0 -218 78 t-81 211zM360 276q0 -65 39.5 -100t106.5 -35q96 0 153.5 68t57.5 201v47l-187 -33q-84 -14 -127 -48.5t-43 -99.5z" />
<glyph unicode="&#xad;" horiz-adv-x="819" d="M100 461v184h619v-184h-619z" />
<glyph unicode="&#xba;" horiz-adv-x="1140" d="M111 516q0 264 118.5 404.5t341.5 140.5q222 0 340.5 -140.5t118.5 -404.5q0 -263 -119 -404t-340 -141q-222 0 -341 141t-119 404zM354 516q0 -373 217 -373q215 0 215 373q0 186 -54.5 280.5t-160.5 94.5q-217 0 -217 -375z" />
<glyph unicode="&#xc0;" horiz-adv-x="1261" d="M55 0l441 1434h268l442 -1434h-266l-111 377h-450l-111 -377h-213zM428 547h350l-106 360q-59 206 -64 355h-14q-14 -201 -59 -355z" />
<glyph unicode="&#xc1;" horiz-adv-x="1261" d="M55 0l441 1434h268l442 -1434h-266l-111 377h-450l-111 -377h-213zM428 547h350l-106 360q-59 206 -64 355h-14q-14 -201 -59 -355z" />
<glyph unicode="&#xc2;" horiz-adv-x="1261" d="M55 0l441 1434h268l442 -1434h-266l-111 377h-450l-111 -377h-213zM428 547h350l-106 360q-59 206 -64 355h-14q-14 -201 -59 -355z" />
<glyph unicode="&#xc3;" horiz-adv-x="1261" d="M55 0l441 1434h268l442 -1434h-266l-111 377h-450l-111 -377h-213zM428 547h350l-106 360q-59 206 -64 355h-14q-14 -201 -59 -355z" />
<glyph unicode="&#xc4;" horiz-adv-x="1261" d="M55 0l441 1434h268l442 -1434h-266l-111 377h-450l-111 -377h-213zM428 547h350l-106 360q-59 206 -64 355h-14q-14 -201 -59 -355z" />
<glyph unicode="&#xc5;" horiz-adv-x="1261" d="M55 0l441 1434h268l442 -1434h-266l-111 377h-450l-111 -377h-213zM428 547h350l-106 360q-59 206 -64 355h-14q-14 -201 -59 -355z" />
<glyph unicode="&#xc6;" horiz-adv-x="2400" d="M55 0l441 1434h268l442 -1434h-266l-111 377h-450l-111 -377h-213zM428 547h350l-106 360q-59 206 -64 355h-14q-14 -201 -59 -355zM1464 0v1434h809v-183h-559v-420h510v-180h-510v-469h572v-182h-822z" />
<glyph unicode="&#xc7;" horiz-adv-x="1277" d="M131 713q0 370 144 559.5t417 189.5q219 0 348.5 -115t139.5 -323l-250 -49q-6 148 -68.5 223.5t-173.5 75.5q-150 0 -221.5 -135t-71.5 -420q0 -286 71.5 -421.5t219.5 -135.5q115 0 178.5 79t67.5 232l250 -51q-10 -216 -140 -333.5t-352 -117.5q-559 0 -559 742z" />
<glyph unicode="&#xc8;" horiz-adv-x="1136" d="M203 0v1434h809v-183h-559v-420h510v-180h-510v-469h571v-182h-821z" />
<glyph unicode="&#xc9;" horiz-adv-x="1136" d="M203 0v1434h809v-183h-559v-420h510v-180h-510v-469h571v-182h-821z" />
<glyph unicode="&#xca;" horiz-adv-x="1136" d="M203 0v1434h809v-183h-559v-420h510v-180h-510v-469h571v-182h-821z" />
<glyph unicode="&#xcb;" horiz-adv-x="1136" d="M203 0v1434h809v-183h-559v-420h510v-180h-510v-469h571v-182h-821z" />
<glyph unicode="&#xcc;" horiz-adv-x="655" d="M203 0v1434h250v-1434h-250z" />
<glyph unicode="&#xcd;" horiz-adv-x="655" d="M203 0v1434h250v-1434h-250z" />
<glyph unicode="&#xce;" horiz-adv-x="655" d="M203 0v1434h250v-1434h-250z" />
<glyph unicode="&#xcf;" horiz-adv-x="655" d="M203 0v1434h250v-1434h-250z" />
<glyph unicode="&#xd0;" horiz-adv-x="1357" d="M203 0v1434h411q615 0 615 -717t-615 -717h-411zM453 180h151q101 0 171.5 35t112 105.5t59.5 166.5t18 230q0 269 -81.5 401.5t-279.5 132.5h-151v-1071z" />
<glyph unicode="&#xd1;" horiz-adv-x="1417" d="M203 0v1434h325l390 -893q75 -189 110 -371h14q-28 172 -28 342v922h200v-1434h-325l-389 889q-83 215 -113 371h-14q30 -184 30 -342v-918h-200z" />
<glyph unicode="&#xd2;" horiz-adv-x="1406" d="M131 717q0 369 145.5 557t425.5 188q281 0 427.5 -188t146.5 -557t-146.5 -557.5t-427.5 -188.5q-280 0 -425.5 188.5t-145.5 557.5zM393 717q0 -289 74 -421t235 -132q163 0 237.5 132t74.5 421q0 290 -74.5 421.5t-237.5 131.5q-161 0 -235 -131.5t-74 -421.5z" />
<glyph unicode="&#xd3;" horiz-adv-x="1406" d="M131 717q0 369 145.5 557t425.5 188q281 0 427.5 -188t146.5 -557t-146.5 -557.5t-427.5 -188.5q-280 0 -425.5 188.5t-145.5 557.5zM393 717q0 -289 74 -421t235 -132q163 0 237.5 132t74.5 421q0 290 -74.5 421.5t-237.5 131.5q-161 0 -235 -131.5t-74 -421.5z" />
<glyph unicode="&#xd4;" horiz-adv-x="1406" d="M131 717q0 369 145.5 557t425.5 188q281 0 427.5 -188t146.5 -557t-146.5 -557.5t-427.5 -188.5q-280 0 -425.5 188.5t-145.5 557.5zM393 717q0 -289 74 -421t235 -132q163 0 237.5 132t74.5 421q0 290 -74.5 421.5t-237.5 131.5q-161 0 -235 -131.5t-74 -421.5z" />
<glyph unicode="&#xd5;" horiz-adv-x="1406" d="M131 717q0 369 145.5 557t425.5 188q281 0 427.5 -188t146.5 -557t-146.5 -557.5t-427.5 -188.5q-280 0 -425.5 188.5t-145.5 557.5zM393 717q0 -289 74 -421t235 -132q163 0 237.5 132t74.5 421q0 290 -74.5 421.5t-237.5 131.5q-161 0 -235 -131.5t-74 -421.5z" />
<glyph unicode="&#xd6;" horiz-adv-x="1406" d="M131 717q0 369 145.5 557t425.5 188q281 0 427.5 -188t146.5 -557t-146.5 -557.5t-427.5 -188.5q-280 0 -425.5 188.5t-145.5 557.5zM393 717q0 -289 74 -421t235 -132q163 0 237.5 132t74.5 421q0 290 -74.5 421.5t-237.5 131.5q-161 0 -235 -131.5t-74 -421.5z" />
<glyph unicode="&#xd8;" horiz-adv-x="1406" d="M131 717q0 369 145.5 557t425.5 188q281 0 427.5 -188t146.5 -557t-146.5 -557.5t-427.5 -188.5q-280 0 -425.5 188.5t-145.5 557.5zM393 717q0 -289 74 -421t235 -132q163 0 237.5 132t74.5 421q0 290 -74.5 421.5t-237.5 131.5q-161 0 -235 -131.5t-74 -421.5z" />
<glyph unicode="&#xd9;" horiz-adv-x="1349" d="M184 551v883h256v-912q0 -181 64.5 -267.5t200.5 -86.5q139 0 200.5 86.5t61.5 267.5v912h198v-883q0 -300 -110.5 -440t-370.5 -140q-268 0 -384 142t-116 438z" />
<glyph unicode="&#xda;" horiz-adv-x="1349" d="M184 551v883h256v-912q0 -181 64.5 -267.5t200.5 -86.5q139 0 200.5 86.5t61.5 267.5v912h198v-883q0 -300 -110.5 -440t-370.5 -140q-268 0 -384 142t-116 438z" />
<glyph unicode="&#xdb;" horiz-adv-x="1349" d="M184 551v883h256v-912q0 -181 64.5 -267.5t200.5 -86.5q139 0 200.5 86.5t61.5 267.5v912h198v-883q0 -300 -110.5 -440t-370.5 -140q-268 0 -384 142t-116 438z" />
<glyph unicode="&#xdc;" horiz-adv-x="1349" d="M184 551v883h256v-912q0 -181 64.5 -267.5t200.5 -86.5q139 0 200.5 86.5t61.5 267.5v912h198v-883q0 -300 -110.5 -440t-370.5 -140q-268 0 -384 142t-116 438z" />
<glyph unicode="&#xdd;" horiz-adv-x="1167" d="M29 1434h278l217 -476q38 -82 54.5 -140t19.5 -136h12q6 80 21 139t53 140l234 473h221l-441 -869v-565h-249v565z" />
<glyph unicode="&#xde;" horiz-adv-x="1220" d="M203 0v1434h452q132 0 231 -33t156 -92.5t84 -133t27 -161.5q0 -91 -27 -166t-84 -135.5t-156 -94.5t-231 -34h-202v-584h-250zM453 762h178q140 0 199 66.5t59 183.5q0 114 -59 177.5t-199 63.5h-178v-491z" />
<glyph unicode="&#xe0;" d="M117 260q0 140 89.5 218.5t266.5 103.5l244 32v64q0 111 -41 163t-131 52q-87 0 -136 -51.5t-55 -147.5l-223 37q13 161 120 245.5t298 84.5q403 0 403 -385v-334q0 -246 35 -342h-242q-16 78 -16 115q0 43 19 147h-15q-29 -145 -104 -218t-213 -73q-137 0 -218 78 t-81 211zM360 276q0 -65 39.5 -100t106.5 -35q96 0 153.5 68t57.5 201v47l-187 -33q-84 -14 -127 -48.5t-43 -99.5z" />
<glyph unicode="&#xe1;" d="M117 260q0 140 89.5 218.5t266.5 103.5l244 32v64q0 111 -41 163t-131 52q-87 0 -136 -51.5t-55 -147.5l-223 37q13 161 120 245.5t298 84.5q403 0 403 -385v-334q0 -246 35 -342h-242q-16 78 -16 115q0 43 19 147h-15q-29 -145 -104 -218t-213 -73q-137 0 -218 78 t-81 211zM360 276q0 -65 39.5 -100t106.5 -35q96 0 153.5 68t57.5 201v47l-187 -33q-84 -14 -127 -48.5t-43 -99.5z" />
<glyph unicode="&#xe2;" d="M117 260q0 140 89.5 218.5t266.5 103.5l244 32v64q0 111 -41 163t-131 52q-87 0 -136 -51.5t-55 -147.5l-223 37q13 161 120 245.5t298 84.5q403 0 403 -385v-334q0 -246 35 -342h-242q-16 78 -16 115q0 43 19 147h-15q-29 -145 -104 -218t-213 -73q-137 0 -218 78 t-81 211zM360 276q0 -65 39.5 -100t106.5 -35q96 0 153.5 68t57.5 201v47l-187 -33q-84 -14 -127 -48.5t-43 -99.5z" />
<glyph unicode="&#xe3;" d="M117 260q0 140 89.5 218.5t266.5 103.5l244 32v64q0 111 -41 163t-131 52q-87 0 -136 -51.5t-55 -147.5l-223 37q13 161 120 245.5t298 84.5q403 0 403 -385v-334q0 -246 35 -342h-242q-16 78 -16 115q0 43 19 147h-15q-29 -145 -104 -218t-213 -73q-137 0 -218 78 t-81 211zM360 276q0 -65 39.5 -100t106.5 -35q96 0 153.5 68t57.5 201v47l-187 -33q-84 -14 -127 -48.5t-43 -99.5z" />
<glyph unicode="&#xe4;" d="M117 260q0 140 89.5 218.5t266.5 103.5l244 32v64q0 111 -41 163t-131 52q-87 0 -136 -51.5t-55 -147.5l-223 37q13 161 120 245.5t298 84.5q403 0 403 -385v-334q0 -246 35 -342h-242q-16 78 -16 115q0 43 19 147h-15q-29 -145 -104 -218t-213 -73q-137 0 -218 78 t-81 211zM360 276q0 -65 39.5 -100t106.5 -35q96 0 153.5 68t57.5 201v47l-187 -33q-84 -14 -127 -48.5t-43 -99.5z" />
<glyph unicode="&#xe5;" d="M117 260q0 140 89.5 218.5t266.5 103.5l244 32v64q0 111 -41 163t-131 52q-87 0 -136 -51.5t-55 -147.5l-223 37q13 161 120 245.5t298 84.5q403 0 403 -385v-334q0 -246 35 -342h-242q-16 78 -16 115q0 43 19 147h-15q-29 -145 -104 -218t-213 -73q-137 0 -218 78 t-81 211zM360 276q0 -65 39.5 -100t106.5 -35q96 0 153.5 68t57.5 201v47l-187 -33q-84 -14 -127 -48.5t-43 -99.5z" />
<glyph unicode="&#xe6;" horiz-adv-x="2195" d="M117 260q0 140 89.5 218.5t266.5 103.5l244 32v64q0 111 -41 163t-131 52q-87 0 -136 -51.5t-55 -147.5l-223 37q13 161 120 245.5t298 84.5q403 0 403 -385v-334q0 -246 35 -342h-242q-16 78 -16 115q0 43 19 147h-15q-29 -145 -104 -218t-213 -73q-137 0 -218 78 t-81 211zM360 276q0 -65 39.5 -100t106.5 -35q96 0 153.5 68t57.5 201v47l-187 -33q-84 -14 -127 -48.5t-43 -99.5zM1227 516q0 258 118 401.5t330 143.5q196 0 305 -123t109 -344q0 -66 -8 -131h-615q4 -159 56.5 -235t156.5 -76q79 0 121.5 40t61.5 132l215 -54 q-29 -146 -130.5 -222.5t-267.5 -76.5q-217 0 -334.5 142t-117.5 403zM1466 610h387q0 150 -43.5 220.5t-134.5 70.5q-97 0 -151.5 -74.5t-57.5 -216.5z" />
<glyph unicode="&#xe7;" horiz-adv-x="1038" d="M111 510q0 258 124 404.5t336 146.5q182 0 283.5 -88t112.5 -248l-226 -39q-19 199 -170 199q-100 0 -158.5 -97t-58.5 -268q0 -176 54.5 -272t156.5 -96q148 0 176 190l224 -51q-65 -320 -404 -320q-221 0 -335.5 141t-114.5 398z" />
<glyph unicode="&#xe8;" horiz-adv-x="1079" d="M111 516q0 258 118 401.5t330 143.5q196 0 305 -123t109 -344q0 -66 -8 -131h-615q4 -159 56.5 -235t156.5 -76q79 0 121 40t61 132l216 -54q-29 -146 -130.5 -222.5t-267.5 -76.5q-217 0 -334.5 142t-117.5 403zM350 610h387q0 150 -43.5 220.5t-134.5 70.5 q-97 0 -151.5 -74.5t-57.5 -216.5z" />
<glyph unicode="&#xe9;" horiz-adv-x="1079" d="M111 516q0 258 118 401.5t330 143.5q196 0 305 -123t109 -344q0 -66 -8 -131h-615q4 -159 56.5 -235t156.5 -76q79 0 121 40t61 132l216 -54q-29 -146 -130.5 -222.5t-267.5 -76.5q-217 0 -334.5 142t-117.5 403zM350 610h387q0 150 -43.5 220.5t-134.5 70.5 q-97 0 -151.5 -74.5t-57.5 -216.5z" />
<glyph unicode="&#xea;" horiz-adv-x="1079" d="M111 516q0 258 118 401.5t330 143.5q196 0 305 -123t109 -344q0 -66 -8 -131h-615q4 -159 56.5 -235t156.5 -76q79 0 121 40t61 132l216 -54q-29 -146 -130.5 -222.5t-267.5 -76.5q-217 0 -334.5 142t-117.5 403zM350 610h387q0 150 -43.5 220.5t-134.5 70.5 q-97 0 -151.5 -74.5t-57.5 -216.5z" />
<glyph unicode="&#xeb;" horiz-adv-x="1079" d="M111 516q0 258 118 401.5t330 143.5q196 0 305 -123t109 -344q0 -66 -8 -131h-615q4 -159 56.5 -235t156.5 -76q79 0 121 40t61 132l216 -54q-29 -146 -130.5 -222.5t-267.5 -76.5q-217 0 -334.5 142t-117.5 403zM350 610h387q0 150 -43.5 220.5t-134.5 70.5 q-97 0 -151.5 -74.5t-57.5 -216.5z" />
<glyph unicode="&#xec;" horiz-adv-x="591" d="M170 1214v252h250v-252h-250zM178 0v1032h236v-1032h-236z" />
<glyph unicode="&#xed;" horiz-adv-x="591" d="M170 1214v252h250v-252h-250zM178 0v1032h236v-1032h-236z" />
<glyph unicode="&#xee;" horiz-adv-x="591" d="M170 1214v252h250v-252h-250zM178 0v1032h236v-1032h-236z" />
<glyph unicode="&#xef;" horiz-adv-x="591" d="M170 1214v252h250v-252h-250zM178 0v1032h236v-1032h-236z" />
<glyph unicode="&#xf1;" horiz-adv-x="1177" d="M178 0v1032h230v-26q0 -118 -37 -285h16q31 177 106 258.5t220 81.5q140 0 218.5 -88.5t78.5 -261.5v-711h-236v651q0 223 -164 223q-100 0 -148 -79t-48 -250v-545h-236z" />
<glyph unicode="&#xf2;" horiz-adv-x="1140" d="M111 516q0 264 118.5 404.5t341.5 140.5q222 0 340.5 -140.5t118.5 -404.5q0 -263 -119 -404t-340 -141q-222 0 -341 141t-119 404zM354 516q0 -373 217 -373q215 0 215 373q0 186 -54.5 280.5t-160.5 94.5q-217 0 -217 -375z" />
<glyph unicode="&#xf3;" horiz-adv-x="1140" d="M111 516q0 264 118.5 404.5t341.5 140.5q222 0 340.5 -140.5t118.5 -404.5q0 -263 -119 -404t-340 -141q-222 0 -341 141t-119 404zM354 516q0 -373 217 -373q215 0 215 373q0 186 -54.5 280.5t-160.5 94.5q-217 0 -217 -375z" />
<glyph unicode="&#xf4;" horiz-adv-x="1140" d="M111 516q0 264 118.5 404.5t341.5 140.5q222 0 340.5 -140.5t118.5 -404.5q0 -263 -119 -404t-340 -141q-222 0 -341 141t-119 404zM354 516q0 -373 217 -373q215 0 215 373q0 186 -54.5 280.5t-160.5 94.5q-217 0 -217 -375z" />
<glyph unicode="&#xf5;" horiz-adv-x="1140" d="M111 516q0 264 118.5 404.5t341.5 140.5q222 0 340.5 -140.5t118.5 -404.5q0 -263 -119 -404t-340 -141q-222 0 -341 141t-119 404zM354 516q0 -373 217 -373q215 0 215 373q0 186 -54.5 280.5t-160.5 94.5q-217 0 -217 -375z" />
<glyph unicode="&#xf6;" horiz-adv-x="1140" d="M111 516q0 264 118.5 404.5t341.5 140.5q222 0 340.5 -140.5t118.5 -404.5q0 -263 -119 -404t-340 -141q-222 0 -341 141t-119 404zM354 516q0 -373 217 -373q215 0 215 373q0 186 -54.5 280.5t-160.5 94.5q-217 0 -217 -375z" />
<glyph unicode="&#xf8;" horiz-adv-x="1140" d="M111 516q0 264 118.5 404.5t341.5 140.5q222 0 340.5 -140.5t118.5 -404.5q0 -263 -119 -404t-340 -141q-222 0 -341 141t-119 404zM354 516q0 -373 217 -373q215 0 215 373q0 186 -54.5 280.5t-160.5 94.5q-217 0 -217 -375z" />
<glyph unicode="&#xf9;" horiz-adv-x="1177" d="M170 322v710h236v-651q0 -223 161 -223q100 0 148.5 79t48.5 250v545h235v-1032h-229v27q0 120 37 284h-16q-31 -177 -106 -258.5t-220 -81.5q-140 0 -217.5 89t-77.5 262z" />
<glyph unicode="&#xfa;" horiz-adv-x="1177" d="M170 322v710h236v-651q0 -223 161 -223q100 0 148.5 79t48.5 250v545h235v-1032h-229v27q0 120 37 284h-16q-31 -177 -106 -258.5t-220 -81.5q-140 0 -217.5 89t-77.5 262z" />
<glyph unicode="&#xfb;" horiz-adv-x="1177" d="M170 322v710h236v-651q0 -223 161 -223q100 0 148.5 79t48.5 250v545h235v-1032h-229v27q0 120 37 284h-16q-31 -177 -106 -258.5t-220 -81.5q-140 0 -217.5 89t-77.5 262z" />
<glyph unicode="&#xfc;" horiz-adv-x="1177" d="M170 322v710h236v-651q0 -223 161 -223q100 0 148.5 79t48.5 250v545h235v-1032h-229v27q0 120 37 284h-16q-31 -177 -106 -258.5t-220 -81.5q-140 0 -217.5 89t-77.5 262z" />
<glyph unicode="&#xfd;" horiz-adv-x="1044" d="M41 -377l76 168q71 -47 133 -47q107 0 143 127l31 92l-369 1069h250l184 -559q49 -144 52 -323h16q6 182 43 299l191 583h204l-401 -1190q-43 -132 -131.5 -206t-208.5 -74q-118 0 -213 61z" />
<glyph unicode="&#xfe;" horiz-adv-x="1185" d="M178 -410v1442h230v-22q0 -98 -37 -250h14q37 150 112 225.5t208 75.5q174 0 272 -142.5t98 -402.5q0 -259 -96.5 -402t-273.5 -143q-137 0 -206 70.5t-110 220.5h-14q39 -165 39 -297v-375h-236zM395 516q0 -179 54.5 -271.5t160.5 -92.5q108 0 164.5 93t56.5 269 q0 179 -56 274t-163 95t-162 -93.5t-55 -273.5z" />
<glyph unicode="&#xff;" horiz-adv-x="1044" d="M41 -377l76 168q71 -47 133 -47q107 0 143 127l31 92l-369 1069h250l184 -559q49 -144 52 -323h16q6 182 43 299l191 583h204l-401 -1190q-43 -132 -131.5 -206t-208.5 -74q-118 0 -213 61z" />
<glyph unicode="&#x152;" horiz-adv-x="2543" d="M131 717q0 369 145.5 557t425.5 188q281 0 427.5 -188t146.5 -557t-146.5 -557.5t-427.5 -188.5q-280 0 -425.5 188.5t-145.5 557.5zM393 717q0 -289 74 -421t235 -132q163 0 237.5 132t74.5 421q0 290 -74.5 421.5t-237.5 131.5q-161 0 -235 -131.5t-74 -421.5zM1610 0 v1434h809v-183h-559v-420h510v-180h-510v-469h571v-182h-821z" />
<glyph unicode="&#x153;" horiz-adv-x="2220" d="M111 516q0 264 118.5 404.5t341.5 140.5q222 0 340.5 -140.5t118.5 -404.5q0 -263 -119 -404t-340 -141q-222 0 -341 141t-119 404zM354 516q0 -373 217 -373q215 0 215 373q0 186 -54.5 280.5t-160.5 94.5q-217 0 -217 -375zM1251 516q0 258 118.5 401.5t330.5 143.5 q196 0 305 -123t109 -344q0 -58 -9 -131h-614q4 -159 56.5 -235t156.5 -76q79 0 121 40t61 132l215 -54q-29 -146 -130 -222.5t-267 -76.5q-217 0 -335 142t-118 403zM1491 610h387q0 150 -43.5 220.5t-134.5 70.5q-97 0 -151.5 -74.5t-57.5 -216.5z" />
<glyph unicode="&#x178;" horiz-adv-x="1167" d="M29 1434h278l217 -476q38 -82 54.5 -140t19.5 -136h12q6 80 21 139t53 140l234 473h221l-441 -869v-565h-249v565z" />
<glyph unicode="&#x2000;" horiz-adv-x="747" />
<glyph unicode="&#x2001;" horiz-adv-x="1495" />
<glyph unicode="&#x2002;" horiz-adv-x="747" />
<glyph unicode="&#x2003;" horiz-adv-x="1495" />
<glyph unicode="&#x2004;" horiz-adv-x="498" />
<glyph unicode="&#x2005;" horiz-adv-x="373" />
<glyph unicode="&#x2006;" horiz-adv-x="249" />
<glyph unicode="&#x2007;" horiz-adv-x="249" />
<glyph unicode="&#x2008;" horiz-adv-x="186" />
<glyph unicode="&#x2009;" horiz-adv-x="299" />
<glyph unicode="&#x200a;" horiz-adv-x="83" />
<glyph unicode="&#x2010;" horiz-adv-x="819" d="M100 461v184h619v-184h-619z" />
<glyph unicode="&#x2011;" horiz-adv-x="819" d="M100 461v184h619v-184h-619z" />
<glyph unicode="&#x2012;" horiz-adv-x="819" d="M100 461v184h619v-184h-619z" />
<glyph unicode="&#x2013;" horiz-adv-x="1224" d="M100 461v184h1024v-184h-1024z" />
<glyph unicode="&#x2014;" horiz-adv-x="2248" d="M100 461v184h2048v-184h-2048z" />
<glyph unicode="&#x202f;" horiz-adv-x="299" />
<glyph unicode="&#x205f;" horiz-adv-x="373" />
<glyph unicode="&#x25fc;" horiz-adv-x="1034" d="M0 0v1034h1034v-1034h-1034z" />
</font>
</defs>
</svg>
