<svg width="28" height="24" viewBox="0 0 28 24" fill="none" xmlns="http://www.w3.org/2000/svg">
<path d="M6.68573 6.40005L12.1714 12L6.68573 17.6M14.9143 17.6H22.2286M3.02858 0.800049H24.9714C25.4564 0.800049 25.9215 0.996715 26.2644 1.34678C26.6074 1.69685 26.8 2.17164 26.8 2.66672V21.3334C26.8 21.8285 26.6074 22.3032 26.2644 22.6533C25.9215 23.0034 25.4564 23.2 24.9714 23.2H3.02858C2.54362 23.2 2.07851 23.0034 1.73559 22.6533C1.39266 22.3032 1.20001 21.8285 1.20001 21.3334V2.66672C1.20001 2.17164 1.39266 1.69685 1.73559 1.34678C2.07851 0.996715 2.54362 0.800049 3.02858 0.800049Z" stroke="white" stroke-opacity="0.8" stroke-width="1.5"/>
</svg>
