<svg width="1440" height="334" viewBox="0 0 1440 334" fill="none" xmlns="http://www.w3.org/2000/svg">
<path d="M329.286 -59.7692L287.519 -83.8846M329.286 -59.7692L329.286 -11.5384M329.286 -59.7692L371.054 -83.8846M287.519 -83.8846L329.286 -108L371.054 -83.8846M287.519 -83.8846L287.518 -35.6538L329.286 -11.5384M371.054 -83.8846V-35.6538L329.286 -11.5384M329.286 111.932L287.519 87.8171M329.286 111.932L329.286 160.163M329.286 111.932L371.054 87.8171M287.519 87.8171L329.286 63.7017L371.054 87.8171M287.519 87.8171L287.518 136.048L329.286 160.163M371.054 87.8171V136.048L329.286 160.163M77.1548 -83.8846V-35.6538L35.387 -11.5384M77.1548 -83.8846L35.387 -108L-6.38091 -83.8846M77.1548 -83.8846L35.387 -59.7692M-6.38091 -83.8846V-35.6538L35.387 -11.5384M-6.38091 -83.8846L35.387 -59.7692M35.387 -11.5384V-59.7692M468.673 -83.8846V-35.6538L426.905 -11.5384M468.673 -83.8846L426.905 -108L385.138 -83.8846M468.673 -83.8846L426.905 -59.7692M385.138 -83.8846V-35.6538L426.905 -11.5384M385.138 -83.8846L426.905 -59.7692M426.905 -11.5384L426.905 -59.7692M77.1548 87.8171V136.048L35.387 160.163M77.1548 87.8171L35.387 63.7017L-6.38091 87.8171M77.1548 87.8171L35.387 111.932M-6.38091 87.8171V136.048L35.387 160.163M-6.38091 87.8171L35.387 111.932M35.387 160.163V111.932M468.673 87.8171V136.048L426.905 160.163M468.673 87.8171L426.905 63.7017L385.138 87.8171M468.673 87.8171L426.905 111.932M385.138 87.8171V136.048L426.905 160.163M385.138 87.8171L426.905 111.932M426.905 160.163L426.905 111.932M174.774 -83.8846V-35.6538L133.006 -11.5384M174.774 -83.8846L133.006 -108L91.2381 -83.8846M174.774 -83.8846L133.006 -59.7692M91.2381 -83.8846V-35.6538L133.006 -11.5384M91.2381 -83.8846L133.006 -59.7692M133.006 -11.5384V-59.7692M566.292 -83.8846V-35.6538L524.524 -11.5384M566.292 -83.8846L524.524 -108L482.757 -83.8846M566.292 -83.8846L524.524 -59.7692M482.757 -83.8846V-35.6538L524.524 -11.5384M482.757 -83.8846L524.524 -59.7692M524.524 -11.5384V-59.7692M174.774 87.8171V136.048L133.006 160.163M174.774 87.8171L133.006 63.7017L91.2381 87.8171M174.774 87.8171L133.006 111.932M91.2381 87.8171V136.048L133.006 160.163M91.2381 87.8171L133.006 111.932M133.006 160.163V111.932M566.292 87.8171V136.048L524.524 160.163M566.292 87.8171L524.524 63.7017L482.757 87.8171M566.292 87.8171L524.524 111.932M482.757 87.8171V136.048L524.524 160.163M482.757 87.8171L524.524 111.932M524.524 160.163V111.932M272.393 -83.8846V-35.6538L230.625 -11.5384M272.393 -83.8846L230.625 -108L188.857 -83.8846M272.393 -83.8846L230.625 -59.7692M188.857 -83.8846V-35.6538L230.625 -11.5384M188.857 -83.8846L230.625 -59.7692M230.625 -11.5384L230.625 -59.7692M663.911 -83.8846V-35.6538L622.143 -11.5384M663.911 -83.8846L622.143 -108L580.376 -83.8846M663.911 -83.8846L622.143 -59.7692M580.376 -83.8846V-35.6538L622.143 -11.5384M580.376 -83.8846L622.143 -59.7692M622.143 -11.5384L622.143 -59.7692M272.393 87.8171V136.048L230.625 160.163M272.393 87.8171L230.625 63.7017L188.857 87.8171M272.393 87.8171L230.625 111.932M188.857 87.8171V136.048L230.625 160.163M188.857 87.8171L230.625 111.932M230.625 160.163L230.625 111.932M663.911 87.8171V136.048L622.143 160.163M663.911 87.8171L622.143 63.7017L580.376 87.8171M663.911 87.8171L622.143 111.932M580.376 87.8171V136.048L622.143 160.163M580.376 87.8171L622.143 111.932M622.143 160.163L622.143 111.932M28.3456 1.71548V49.9463L-13.4223 74.0617M28.3456 1.71548L-13.4223 -22.3999L-55.1902 1.71548M28.3456 1.71548L-13.4223 25.8308M-55.1902 1.71548V49.9463L-13.4223 74.0617M-55.1902 1.71548L-13.4223 25.8308M-13.4223 74.0617L-13.4223 25.8308M320.103 1.71548V49.9463L278.335 74.0617M320.103 1.71548L278.335 -22.3999L236.567 1.71548M320.103 1.71548L278.335 25.8308M236.567 1.71548V49.9463L278.335 74.0617M236.567 1.71548L278.335 25.8308M278.335 74.0617V25.8308M125.964 1.92767V50.1585L84.1965 74.2739M125.964 1.92767L84.1965 -22.1877L42.4286 1.92767M125.964 1.92767L84.1965 26.043M42.4286 1.92767V50.1585L84.1965 74.2739M42.4286 1.92767L84.1965 26.043M84.1965 74.2739L84.1965 26.043M417.722 1.92767V50.1585L375.954 74.2739M417.722 1.92767L375.954 -22.1877L334.187 1.92767M417.722 1.92767L375.954 26.043M334.187 1.92767V50.1585L375.954 74.2739M334.187 1.92767L375.954 26.043M375.954 74.2739L375.954 26.043M612.401 1.92767V50.1585L570.633 74.2739M612.401 1.92767L570.633 -22.1877L528.866 1.92767M612.401 1.92767L570.633 26.043M528.866 1.92767V50.1585L570.633 74.2739M528.866 1.92767L570.633 26.043M570.633 74.2739L570.633 26.043M223.584 1.71548V49.9463L181.816 74.0617M223.584 1.71548L181.816 -22.3999L140.048 1.71548M223.584 1.71548L181.816 25.8308M140.048 1.71548V49.9463L181.816 74.0617M140.048 1.71548L181.816 25.8308M181.816 74.0617L181.816 25.8308M515.341 1.71548V49.9463L473.573 74.0617M515.341 1.71548L473.573 -22.3999L431.805 1.71548M515.341 1.71548L473.573 25.8308M431.805 1.71548V49.9463L473.573 74.0617M431.805 1.71548L473.573 25.8308M473.573 74.0617L473.573 25.8308M710.021 1.71548V49.9463L668.253 74.0617M710.021 1.71548L668.253 -22.3999L626.485 1.71548M710.021 1.71548L668.253 25.8308M626.485 1.71548V49.9463L668.253 74.0617M626.485 1.71548L668.253 25.8308M668.253 74.0617L668.253 25.8308M329.286 283.769L287.519 259.654M329.286 283.769L329.286 332M329.286 283.769L371.054 259.654M287.519 259.654L329.286 235.538L371.054 259.654M287.519 259.654L287.518 307.885L329.286 332M371.054 259.654V307.885L329.286 332M77.1548 259.654V307.885L35.387 332M77.1548 259.654L35.387 235.538L-6.38091 259.654M77.1548 259.654L35.387 283.769M-6.38091 259.654V307.885L35.387 332M-6.38091 259.654L35.387 283.769M35.387 332V283.769M468.673 259.654V307.885L426.905 332M468.673 259.654L426.905 235.538L385.138 259.654M468.673 259.654L426.905 283.769M385.138 259.654V307.885L426.905 332M385.138 259.654L426.905 283.769M426.905 332L426.905 283.769M174.774 259.654V307.885L133.006 332M174.774 259.654L133.006 235.538L91.2381 259.654M174.774 259.654L133.006 283.769M91.2381 259.654V307.885L133.006 332M91.2381 259.654L133.006 283.769M133.006 332V283.769M566.292 259.654V307.885L524.524 332M566.292 259.654L524.524 235.538L482.757 259.654M566.292 259.654L524.524 283.769M482.757 259.654V307.885L524.524 332M482.757 259.654L524.524 283.769M524.524 332V283.769M272.393 259.654V307.885L230.625 332M272.393 259.654L230.625 235.538L188.857 259.654M272.393 259.654L230.625 283.769M188.857 259.654V307.885L230.625 332M188.857 259.654L230.625 283.769M230.625 332V283.769M663.911 259.654V307.885L622.143 332M663.911 259.654L622.143 235.538L580.376 259.654M663.911 259.654L622.143 283.769M580.376 259.654V307.885L622.143 332M580.376 259.654L622.143 283.769M622.143 332L622.143 283.769M28.3453 173.552V221.783L-13.4225 245.898M28.3453 173.552L-13.4225 149.437L-55.1904 173.552M28.3453 173.552L-13.4226 197.668M-55.1904 173.552V221.783L-13.4225 245.898M-55.1904 173.552L-13.4226 197.668M-13.4225 245.898L-13.4226 197.668M320.103 173.552V221.783L278.335 245.898M320.103 173.552L278.335 149.437L236.567 173.552M320.103 173.552L278.335 197.668M236.567 173.552V221.783L278.335 245.898M236.567 173.552L278.335 197.668M278.335 245.898V197.668M125.964 173.764V221.995L84.1965 246.111M125.964 173.764L84.1965 149.649L42.4286 173.764M125.964 173.764L84.1965 197.88M42.4286 173.764V221.995L84.1965 246.111M42.4286 173.764L84.1965 197.88M84.1965 246.111L84.1965 197.88M417.722 173.764V221.995L375.954 246.111M417.722 173.764L375.954 149.649L334.187 173.764M417.722 173.764L375.954 197.88M334.187 173.764V221.995L375.954 246.111M334.187 173.764L375.954 197.88M375.954 246.111L375.954 197.88M612.401 173.764V221.995L570.633 246.111M612.401 173.764L570.633 149.649L528.866 173.764M612.401 173.764L570.633 197.88M528.866 173.764V221.995L570.633 246.111M528.866 173.764L570.633 197.88M570.633 246.111L570.633 197.88M223.584 173.552V221.783L181.816 245.898M223.584 173.552L181.816 149.437L140.048 173.552M223.584 173.552L181.816 197.668M140.048 173.552V221.783L181.816 245.898M140.048 173.552L181.816 197.668M181.816 245.898L181.816 197.668M515.341 173.552V221.783L473.573 245.898M515.341 173.552L473.573 149.437L431.805 173.552M515.341 173.552L473.573 197.668M431.805 173.552V221.783L473.573 245.898M431.805 173.552L473.573 197.668M473.573 245.898L473.573 197.668M710.021 173.552V221.783L668.253 245.898M710.021 173.552L668.253 149.437L626.485 173.552M710.021 173.552L668.253 197.668M626.485 173.552V221.783L668.253 245.898M626.485 173.552L668.253 197.668M668.253 245.898L668.253 197.668M719.771 -59.7692L678.003 -83.8846M719.771 -59.7692L719.771 -11.5384M719.771 -59.7692L761.539 -83.8846M678.003 -83.8846L719.771 -108L761.539 -83.8846M678.003 -83.8846V-35.6538L719.771 -11.5384M761.539 -83.8846V-35.6538L719.771 -11.5384M1111.29 -59.7692L1069.52 -83.8846M1111.29 -59.7692V-11.5384M1111.29 -59.7692L1153.06 -83.8846M1069.52 -83.8846L1111.29 -108L1153.06 -83.8846M1069.52 -83.8846L1069.52 -35.6538L1111.29 -11.5384M1153.06 -83.8846V-35.6538L1111.29 -11.5384M719.771 111.932L678.003 87.8171M719.771 111.932L719.771 160.163M719.771 111.932L761.539 87.8171M678.003 87.8171L719.771 63.7017L761.539 87.8171M678.003 87.8171V136.048L719.771 160.163M761.539 87.8171V136.048L719.771 160.163M1111.29 111.932L1069.52 87.8171M1111.29 111.932V160.163M1111.29 111.932L1153.06 87.8171M1069.52 87.8171L1111.29 63.7017L1153.06 87.8171M1069.52 87.8171L1069.52 136.048L1111.29 160.163M1153.06 87.8171V136.048L1111.29 160.163M859.158 -83.8846V-35.6538L817.39 -11.5384M859.158 -83.8846L817.39 -108L775.622 -83.8846M859.158 -83.8846L817.39 -59.7692M775.622 -83.8846V-35.6538L817.39 -11.5384M775.622 -83.8846L817.39 -59.7692M817.39 -11.5384V-59.7692M1250.68 -83.8846V-35.6538L1208.91 -11.5384M1250.68 -83.8846L1208.91 -108L1167.14 -83.8846M1250.68 -83.8846L1208.91 -59.7692M1167.14 -83.8846V-35.6538L1208.91 -11.5384M1167.14 -83.8846L1208.91 -59.7692M1208.91 -11.5384L1208.91 -59.7692M859.158 87.8171V136.048L817.39 160.163M859.158 87.8171L817.39 63.7017L775.622 87.8171M859.158 87.8171L817.39 111.932M775.622 87.8171V136.048L817.39 160.163M775.622 87.8171L817.39 111.932M817.39 160.163V111.932M1250.68 87.8171V136.048L1208.91 160.163M1250.68 87.8171L1208.91 63.7017L1167.14 87.8171M1250.68 87.8171L1208.91 111.932M1167.14 87.8171V136.048L1208.91 160.163M1167.14 87.8171L1208.91 111.932M1208.91 160.163L1208.91 111.932M956.777 -83.8846V-35.6538L915.009 -11.5384M956.777 -83.8846L915.009 -108L873.241 -83.8846M956.777 -83.8846L915.009 -59.7692M873.241 -83.8846V-35.6538L915.009 -11.5384M873.241 -83.8846L915.009 -59.7692M915.009 -11.5384V-59.7692M1348.3 -83.8846V-35.6538L1306.53 -11.5384M1348.3 -83.8846L1306.53 -108L1264.76 -83.8846M1348.3 -83.8846L1306.53 -59.7692M1264.76 -83.8846V-35.6538L1306.53 -11.5384M1264.76 -83.8846L1306.53 -59.7692M1306.53 -11.5384V-59.7692M956.777 87.8171V136.048L915.009 160.163M956.777 87.8171L915.009 63.7017L873.241 87.8171M956.777 87.8171L915.009 111.932M873.241 87.8171V136.048L915.009 160.163M873.241 87.8171L915.009 111.932M915.009 160.163V111.932M1348.3 87.8171V136.048L1306.53 160.163M1348.3 87.8171L1306.53 63.7017L1264.76 87.8171M1348.3 87.8171L1306.53 111.932M1264.76 87.8171V136.048L1306.53 160.163M1264.76 87.8171L1306.53 111.932M1306.53 160.163V111.932M1054.4 -83.8846V-35.6538L1012.63 -11.5384M1054.4 -83.8846L1012.63 -108L970.861 -83.8846M1054.4 -83.8846L1012.63 -59.7692M970.861 -83.8846V-35.6538L1012.63 -11.5384M970.861 -83.8846L1012.63 -59.7692M1012.63 -11.5384L1012.63 -59.7692M1445.91 -83.8846V-35.6538L1404.15 -11.5384M1445.91 -83.8846L1404.15 -108L1362.38 -83.8846M1445.91 -83.8846L1404.15 -59.7692M1362.38 -83.8846V-35.6538L1404.15 -11.5384M1362.38 -83.8846L1404.15 -59.7692M1404.15 -11.5384L1404.15 -59.7692M1054.4 87.8171V136.048L1012.63 160.163M1054.4 87.8171L1012.63 63.7017L970.861 87.8171M1054.4 87.8171L1012.63 111.932M970.861 87.8171V136.048L1012.63 160.163M970.861 87.8171L1012.63 111.932M1012.63 160.163L1012.63 111.932M1445.91 87.8171V136.048L1404.15 160.163M1445.91 87.8171L1404.15 63.7017L1362.38 87.8171M1445.91 87.8171L1404.15 111.932M1362.38 87.8171V136.048L1404.15 160.163M1362.38 87.8171L1404.15 111.932M1404.15 160.163L1404.15 111.932M810.349 1.71548V49.9463L768.581 74.0617M810.349 1.71548L768.581 -22.3999L726.813 1.71548M810.349 1.71548L768.581 25.8308M726.813 1.71548V49.9463L768.581 74.0617M726.813 1.71548L768.581 25.8308M768.581 74.0617L768.581 25.8308M1102.11 1.71548V49.9463L1060.34 74.0617M1102.11 1.71548L1060.34 -22.3999L1018.57 1.71548M1102.11 1.71548L1060.34 25.8308M1018.57 1.71548V49.9463L1060.34 74.0617M1018.57 1.71548L1060.34 25.8308M1060.34 74.0617V25.8308M907.967 1.92767V50.1585L866.2 74.2739M907.967 1.92767L866.2 -22.1877L824.432 1.92767M907.967 1.92767L866.2 26.043M824.432 1.92767V50.1585L866.2 74.2739M824.432 1.92767L866.2 26.043M866.2 74.2739L866.2 26.043M1199.73 1.92767V50.1585L1157.96 74.2739M1199.73 1.92767L1157.96 -22.1877L1116.19 1.92767M1199.73 1.92767L1157.96 26.043M1116.19 1.92767V50.1585L1157.96 74.2739M1116.19 1.92767L1157.96 26.043M1157.96 74.2739L1157.96 26.043M1394.4 1.92767V50.1585L1352.64 74.2739M1394.4 1.92767L1352.64 -22.1877L1310.87 1.92767M1394.4 1.92767L1352.64 26.043M1310.87 1.92767V50.1585L1352.64 74.2739M1310.87 1.92767L1352.64 26.043M1352.64 74.2739V26.043M1005.59 1.71548V49.9463L963.819 74.0617M1005.59 1.71548L963.819 -22.3999L922.051 1.71548M1005.59 1.71548L963.819 25.8308M922.051 1.71548V49.9463L963.819 74.0617M922.051 1.71548L963.819 25.8308M963.819 74.0617V25.8308M1297.34 1.71548V49.9463L1255.58 74.0617M1297.34 1.71548L1255.58 -22.3999L1213.81 1.71548M1297.34 1.71548L1255.58 25.8308M1213.81 1.71548V49.9463L1255.58 74.0617M1213.81 1.71548L1255.58 25.8308M1255.58 74.0617L1255.58 25.8308M1492.02 1.71548V49.9463L1450.26 74.0617M1492.02 1.71548L1450.26 -22.3999L1408.49 1.71548M1492.02 1.71548L1450.26 25.8308M1408.49 1.71548V49.9463L1450.26 74.0617M1408.49 1.71548L1450.26 25.8308M1450.26 74.0617L1450.26 25.8308M719.771 283.769L678.003 259.654M719.771 283.769L719.771 332M719.771 283.769L761.539 259.654M678.003 259.654L719.771 235.538L761.539 259.654M678.003 259.654V307.885L719.771 332M761.539 259.654V307.885L719.771 332M1111.29 283.769L1069.52 259.654M1111.29 283.769V332M1111.29 283.769L1153.06 259.654M1069.52 259.654L1111.29 235.538L1153.06 259.654M1069.52 259.654L1069.52 307.885L1111.29 332M1153.06 259.654V307.885L1111.29 332M859.158 259.654V307.885L817.39 332M859.158 259.654L817.39 235.538L775.622 259.654M859.158 259.654L817.39 283.769M775.622 259.654V307.885L817.39 332M775.622 259.654L817.39 283.769M817.39 332V283.769M1250.68 259.654V307.885L1208.91 332M1250.68 259.654L1208.91 235.538L1167.14 259.654M1250.68 259.654L1208.91 283.769M1167.14 259.654V307.885L1208.91 332M1167.14 259.654L1208.91 283.769M1208.91 332L1208.91 283.769M956.777 259.654V307.885L915.009 332M956.777 259.654L915.009 235.538L873.241 259.654M956.777 259.654L915.009 283.769M873.241 259.654V307.885L915.009 332M873.241 259.654L915.009 283.769M915.009 332V283.769M1348.3 259.654V307.885L1306.53 332M1348.3 259.654L1306.53 235.538L1264.76 259.654M1348.3 259.654L1306.53 283.769M1264.76 259.654V307.885L1306.53 332M1264.76 259.654L1306.53 283.769M1306.53 332V283.769M1054.4 259.654V307.885L1012.63 332M1054.4 259.654L1012.63 235.538L970.86 259.654M1054.4 259.654L1012.63 283.769M970.86 259.654V307.885L1012.63 332M970.86 259.654L1012.63 283.769M1012.63 332V283.769M1445.91 259.654V307.885L1404.15 332M1445.91 259.654L1404.15 235.538L1362.38 259.654M1445.91 259.654L1404.15 283.769M1362.38 259.654V307.885L1404.15 332M1362.38 259.654L1404.15 283.769M1404.15 332L1404.15 283.769M810.348 173.552V221.783L768.581 245.898M810.348 173.552L768.581 149.437L726.813 173.552M810.348 173.552L768.58 197.668M726.813 173.552V221.783L768.581 245.898M726.813 173.552L768.58 197.668M768.581 245.898L768.58 197.668M1102.11 173.552V221.783L1060.34 245.898M1102.11 173.552L1060.34 149.437L1018.57 173.552M1102.11 173.552L1060.34 197.668M1018.57 173.552V221.783L1060.34 245.898M1018.57 173.552L1060.34 197.668M1060.34 245.898V197.668M907.967 173.764V221.995L866.2 246.111M907.967 173.764L866.2 149.649L824.432 173.764M907.967 173.764L866.2 197.88M824.432 173.764V221.995L866.2 246.111M824.432 173.764L866.2 197.88M866.2 246.111L866.2 197.88M1199.73 173.764V221.995L1157.96 246.111M1199.73 173.764L1157.96 149.649L1116.19 173.764M1199.73 173.764L1157.96 197.88M1116.19 173.764V221.995L1157.96 246.111M1116.19 173.764L1157.96 197.88M1157.96 246.111L1157.96 197.88M1394.4 173.764V221.995L1352.64 246.111M1394.4 173.764L1352.64 149.649L1310.87 173.764M1394.4 173.764L1352.64 197.88M1310.87 173.764V221.995L1352.64 246.111M1310.87 173.764L1352.64 197.88M1352.64 246.111V197.88M1005.59 173.552V221.783L963.819 245.898M1005.59 173.552L963.819 149.437L922.051 173.552M1005.59 173.552L963.819 197.668M922.051 173.552V221.783L963.819 245.898M922.051 173.552L963.819 197.668M963.819 245.898V197.668M1297.34 173.552V221.783L1255.58 245.898M1297.34 173.552L1255.58 149.437L1213.81 173.552M1297.34 173.552L1255.58 197.668M1213.81 173.552V221.783L1255.58 245.898M1213.81 173.552L1255.58 197.668M1255.58 245.898L1255.58 197.668M1492.02 173.552V221.783L1450.26 245.898M1492.02 173.552L1450.26 149.437L1408.49 173.552M1492.02 173.552L1450.26 197.668M1408.49 173.552V221.783L1450.26 245.898M1408.49 173.552L1450.26 197.668M1450.26 245.898L1450.26 197.668" stroke="url(#paint0_linear_8845_8979)" stroke-opacity="0.2" stroke-width="2" stroke-miterlimit="10"/>
<defs>
<linearGradient id="paint0_linear_8845_8979" x1="666.5" y1="0.500027" x2="666.5" y2="327" gradientUnits="userSpaceOnUse">
<stop stop-color="#D453B5"/>
<stop offset="0.3125" stop-color="#5E5EDE"/>
<stop offset="0.953125" stop-color="#242424"/>
</linearGradient>
</defs>
</svg>
