<svg width="49" height="49" viewBox="0 0 49 49" fill="none" xmlns="http://www.w3.org/2000/svg">
<path d="M24.7723 45.7123C19.2028 45.7123 13.8613 43.4998 9.92307 39.5616C5.9848 35.6233 3.77231 30.2819 3.77231 24.7123C3.77231 19.1428 5.9848 13.8014 9.92307 9.8631C13.8613 5.92483 19.2028 3.71234 24.7723 3.71234C30.3419 3.71234 35.6833 5.92483 39.6216 9.8631C43.5598 13.8014 45.7723 19.1428 45.7723 24.7123C45.7723 30.2819 43.5598 35.6233 39.6216 39.5616C35.6833 43.4998 30.3419 45.7123 24.7723 45.7123ZM24.7723 48.7123C31.1375 48.7123 37.242 46.1838 41.7429 41.6829C46.2437 37.182 48.7723 31.0775 48.7723 24.7123C48.7723 18.3471 46.2437 12.2427 41.7429 7.74178C37.242 3.24091 31.1375 0.712341 24.7723 0.712341C18.4071 0.712341 12.3026 3.24091 7.80175 7.74178C3.30087 12.2427 0.772308 18.3471 0.772308 24.7123C0.772308 31.0775 3.30087 37.182 7.80175 41.6829C12.3026 46.1838 18.4071 48.7123 24.7723 48.7123Z" fill="#D1D5DA"/>
<path d="M19.5853 15.8774C19.8307 15.751 20.1061 15.6948 20.3813 15.7149C20.6566 15.735 20.9209 15.8307 21.1453 15.9914L31.6453 23.4914C31.8398 23.6301 31.9983 23.8133 32.1076 24.0257C32.217 24.2381 32.274 24.4735 32.274 24.7124C32.274 24.9512 32.217 25.1867 32.1076 25.399C31.9983 25.6114 31.8398 25.7946 31.6453 25.9334L21.1453 33.4334C20.921 33.5939 20.6568 33.6895 20.3817 33.7096C20.1066 33.7297 19.8313 33.6736 19.586 33.5474C19.3408 33.4212 19.135 33.2298 18.9915 32.9943C18.8479 32.7587 18.7721 32.4882 18.7723 32.2124V17.2124C18.772 16.9366 18.8478 16.6661 18.9912 16.4306C19.1346 16.1951 19.3402 16.0037 19.5853 15.8774Z" fill="#D1D5DA"/>
</svg>
