<svg width="37" height="36" viewBox="0 0 37 36" fill="none" xmlns="http://www.w3.org/2000/svg">
<path fill-rule="evenodd" clip-rule="evenodd" d="M9.61198 33.1466C18.0286 38.0059 28.791 35.1222 33.6503 26.7055C38.5097 18.2889 35.6259 7.52653 27.2093 2.66717C18.7926 -2.19219 8.03028 0.69157 3.17092 9.10822C-1.68843 17.5249 1.19532 28.2872 9.61198 33.1466ZM5.97845 20.7735C5.36808 23.9626 5.51905 26.9255 6.42129 29.2455C3.04456 25.6779 1.45325 20.7796 2.02445 15.9578C2.44029 16.7078 2.97588 17.4808 3.61233 18.2614C4.2859 19.0874 5.07963 19.9307 5.97845 20.7735ZM4.46472 17.5663C3.42224 16.2878 2.71338 15.0892 2.3672 14.0446C2.72967 12.5418 3.31115 11.065 4.1234 9.65814C5.28023 7.65446 6.79389 5.98525 8.53778 4.68444C8.9533 5.43316 9.48809 6.20478 10.1234 6.98391C10.5125 7.46108 10.9416 7.94399 11.408 8.42923C11.4892 8.24945 11.6028 8.08398 11.7449 7.9418C11.8705 7.81626 12.0142 7.71304 12.1698 7.6347C11.7357 7.18141 11.3369 6.73173 10.9758 6.28888C10.3393 5.50833 9.82722 4.75754 9.44608 4.05341C13.1925 1.63346 17.8247 0.801589 22.2355 1.85448C19.1541 2.32872 15.7884 4.32783 12.8578 7.45948C12.8756 7.4589 12.8935 7.4586 12.9115 7.45861L14.3968 7.45861C15.7485 6.13751 17.1707 5.07309 18.5856 4.30111C21.4793 2.72229 24.1855 2.43506 26.2497 3.40561L24.9612 5.63739C25.001 5.67034 25.0395 5.70529 25.0763 5.74215C25.3615 6.02729 25.5314 6.40608 25.5563 6.80622L27.1933 3.97084C28.9787 5.29898 30.0286 7.74226 30.1061 10.9525C30.1564 13.0353 29.7896 15.3727 28.9888 17.7812C27.891 17.4495 26.7411 17.0343 25.5595 16.5383L25.5595 17.7283C27.871 18.6675 30.0703 19.3079 32.0139 19.6224C33.0062 19.783 33.9419 19.8603 34.798 19.8458C34.5434 22.0065 33.8547 24.1519 32.6978 26.1556C31.8856 27.5625 30.8974 28.8045 29.7771 29.8698C28.6994 30.0923 27.3069 30.0777 25.6786 29.8142C24.8648 29.6825 23.9994 29.4898 23.0945 29.2378C23.3878 28.9544 23.6776 28.6598 23.9633 28.3545C23.954 28.3548 23.9446 28.3551 23.9353 28.3552C23.9268 28.3553 23.9183 28.3554 23.9098 28.3554L22.4243 28.3554C22.2437 28.5319 22.0618 28.7038 21.8789 28.8711C20.2545 28.3446 18.5275 27.6421 16.7609 26.7723V27.9945C18.1773 28.6707 19.5703 29.2432 20.9093 29.7061C20.0283 30.4192 19.1306 31.0244 18.2357 31.5127C15.4168 33.0507 12.7759 33.363 10.733 32.4809L12.0025 30.2821C11.9105 30.2213 11.8241 30.151 11.7449 30.0718C11.5274 29.8543 11.3768 29.5822 11.3066 29.2877L9.7717 31.9463C7.89909 30.644 6.79474 28.1567 6.71517 24.8613C6.69057 23.8422 6.76582 22.7621 6.9429 21.6426C7.60436 22.2161 8.31235 22.7866 9.06205 23.3485L9.06205 22.3063C9.06205 22.1972 9.07265 22.0905 9.09288 21.9873C8.41368 21.4566 7.77514 20.9209 7.18126 20.3854C7.40365 19.377 7.70548 18.3442 8.08811 17.3017C7.80963 17.2276 7.55286 17.0812 7.3456 16.8739C7.27596 16.8043 7.21319 16.729 7.15773 16.6493C6.79219 17.6126 6.49168 18.5716 6.25592 19.516C5.58525 18.8584 4.98568 18.2053 4.46472 17.5663ZM14.5859 33.9593C19.3638 35.0998 24.4015 34.0287 28.2916 31.1232C27.4342 31.1381 26.497 31.0608 25.5029 30.8999C24.4507 30.7296 23.3235 30.4638 22.1442 30.1068C19.6876 32.2299 17.0462 33.5806 14.5859 33.9593ZM32.1896 18.5367C33.1838 18.6976 34.09 18.7657 34.8903 18.7437C35.1129 14.2893 33.5172 9.86179 30.4001 6.56834C31.5839 9.61247 31.4743 13.7635 30.0485 18.0798C30.7935 18.274 31.5096 18.4266 32.1896 18.5367Z" fill="url(#paint0_linear_4_166)"/>
<path d="M10.6309 13.4378H8.43126L8.43112 13.5666L8.43112 15.6376L10.6309 15.6375L10.6309 13.4378H12.8306V22.2365H10.6309L10.6308 24.4362L12.8306 24.4362V28.8355H15.0302V22.2365H17.2299V20.0369L21.6292 20.0368V26.6358H23.8289V24.4362L26.0284 24.4362L26.0285 22.2365H28.2282V20.0368L26.0285 20.0368L26.0285 22.2365H23.8289L23.8289 6.83887H21.6292V9.03853L19.4296 9.03853V11.2382H17.2299V13.4378L19.4294 13.4379L19.4296 11.2382H21.6063L21.6291 11.2382L21.6291 13.3983L21.6292 13.4378V17.8372H17.2299L17.2299 20.0369L15.0302 20.0368L15.0302 9.03853H12.8306V11.2382H10.6309V13.4378Z" fill="#E5E1E6"/>
<defs>
<linearGradient id="paint0_linear_4_166" x1="5.79745" y1="5.20567" x2="31.1998" y2="30.6081" gradientUnits="userSpaceOnUse">
<stop stop-color="#FFE27D"/>
<stop offset="0.505208" stop-color="#64E3FF"/>
<stop offset="1" stop-color="#9192FF"/>
</linearGradient>
</defs>
</svg>
