<svg width="72" height="44" viewBox="0 0 72 44" fill="none" xmlns="http://www.w3.org/2000/svg">
<g clip-path="url(#clip0_8837_4597)">
<path d="M42.636 0L34.716 4.576V15.62L45.804 22L34.716 28.424V39.468L42.636 44.044L71.192 27.544V16.5L42.636 0ZM36.476 14.608V6.6L46.508 12.408H46.552L54.516 16.984L47.608 20.988L36.476 14.608ZM41.756 41.448L36.476 38.412V30.448L41.756 33.484V41.448ZM37.356 28.908L57.992 16.984L37.356 5.104L42.636 2.068L68.552 17.028L42.636 31.988L37.356 28.908ZM69.432 26.488L43.516 41.448V33.484L69.432 18.524V26.488Z" fill="#D453B5"/>
<path d="M36.476 15.62V4.576L28.556 0L0 16.5V27.544L28.556 44L36.476 39.424V28.38L25.388 22L36.476 15.62ZM27.676 41.448L1.76 26.488V18.524L27.676 33.484V41.448ZM34.716 38.412L29.436 41.448V33.484L34.716 30.448V38.412ZM28.556 31.944L2.64 16.984L28.556 2.024L33.836 5.06L13.2 16.984L33.836 28.908L28.556 31.944ZM16.72 16.984L24.684 12.408H24.728L34.672 6.644L34.716 6.6V14.564L23.628 20.988L16.72 16.984Z" fill="#5E5EDD"/>
</g>
<defs>
<clipPath id="clip0_8837_4597">
<rect width="71.192" height="44" fill="white"/>
</clipPath>
</defs>
</svg>
