<svg width="200" height="124" viewBox="0 0 200 124" fill="none" xmlns="http://www.w3.org/2000/svg">
<g clip-path="url(#clip0_8845_9973)">
<path d="M119.777 0L97.5278 12.8554V43.8813L128.677 61.8047L97.5278 79.8517V110.878L119.777 123.733L200 77.3795V46.3535L119.777 0ZM102.472 41.0383V18.5414L130.655 34.8578H130.779L153.152 47.7132L133.745 58.9617L102.472 41.0383ZM117.305 116.44L102.472 107.911V85.5377L117.305 94.0667V116.44ZM104.944 81.2114L162.917 47.7132L104.944 14.3387L119.777 5.80964L192.583 47.8368L119.777 89.864L104.944 81.2114ZM195.056 74.4128L122.25 116.44V94.0667L195.056 52.0396V74.4128Z" fill="#D453B5"/>
<path d="M102.472 43.8813V12.8554L80.2225 0L0 46.3535V77.3795L80.2225 123.609L102.472 110.754V79.7281L71.3226 61.8047L102.472 43.8813ZM77.7503 116.44L4.94438 74.4128V52.0396L77.7503 94.0667V116.44ZM97.5278 107.911L82.6947 116.44V94.0667L97.5278 85.5377V107.911ZM80.2225 89.7404L7.41656 47.7132L80.2225 5.68603L95.0556 14.2151L37.0828 47.7132L95.0556 81.2114L80.2225 89.7404ZM46.9716 47.7132L69.3449 34.8578H69.4685L97.4042 18.665L97.5278 18.5414V40.9147L66.3783 58.9617L46.9716 47.7132Z" fill="#5E5EDD"/>
</g>
<defs>
<clipPath id="clip0_8845_9973">
<rect width="200" height="123.609" fill="white"/>
</clipPath>
</defs>
</svg>
