<svg width="115" height="16" viewBox="0 0 115 16" fill="none" xmlns="http://www.w3.org/2000/svg">
<g clip-path="url(#clip0_8837_4586)">
<path d="M37.3435 3.37183C35.6742 3.37183 34.1543 3.90957 33.0253 4.77789V3.7024H31.0485V15.9999H33.0253V12.2137C34.1543 13.082 35.6698 13.6198 37.3435 13.6198C40.8138 13.6198 43.634 11.3233 43.634 8.498C43.634 5.67265 40.8138 3.37183 37.3435 3.37183ZM37.3435 11.6363C34.9625 11.6363 33.0253 10.2258 33.0253 8.498C33.0253 6.77017 34.9625 5.3597 37.3435 5.3597C39.7244 5.3597 41.6572 6.77017 41.6572 8.498C41.6572 10.2258 39.7244 11.6363 37.3435 11.6363Z" fill="white"/>
<path d="M22.1223 3.37183C20.453 3.37183 18.9331 3.90957 17.8042 4.77789V3.7024H15.8274V15.9999H17.8042V12.2137C18.9331 13.082 20.4487 13.6198 22.1223 13.6198C25.5927 13.6198 28.4129 11.3233 28.4129 8.498C28.4129 5.67265 25.5927 3.37183 22.1223 3.37183ZM22.1223 11.6363C19.7414 11.6363 17.8042 10.2258 17.8042 8.498C17.8042 6.77017 19.7414 5.3597 22.1223 5.3597C24.5032 5.3597 26.4361 6.77017 26.4361 8.498C26.4361 10.2258 24.5032 11.6363 22.1223 11.6363Z" fill="white"/>
<path d="M111.473 7.35199H108.644C107.717 7.35199 107.071 6.81866 107.071 6.34263C107.071 5.86218 107.717 5.32885 108.644 5.32885H114.012V3.37183H108.644C106.698 3.37183 105.116 4.70296 105.116 6.34263C105.116 7.97789 106.698 9.30902 108.644 9.30902H111.473C112.404 9.30902 113.05 9.84235 113.05 10.3184C113.05 10.7944 112.404 11.3277 111.473 11.3277H105.779V13.2892H111.473C113.419 13.2892 115.004 11.9581 115.004 10.3184C115 8.68312 113.419 7.35199 111.473 7.35199Z" fill="white"/>
<path d="M71.959 13.6197C68.4887 13.6197 65.6641 11.3233 65.6641 8.49798C65.6641 5.67264 68.4887 3.37622 71.959 3.37622C75.4293 3.37622 78.2495 5.67264 78.2495 8.49798C78.2495 11.3233 75.4293 13.6197 71.959 13.6197ZM71.959 5.35528C69.5781 5.35528 67.6408 6.76575 67.6408 8.49358C67.6408 10.2214 69.5781 11.6319 71.959 11.6319C74.3399 11.6319 76.2728 10.2214 76.2728 8.49358C76.2728 6.76575 74.3399 5.35528 71.959 5.35528Z" fill="white"/>
<path d="M63.2524 0.991699H61.2756V13.2892H63.2524V0.991699Z" fill="white"/>
<path d="M89.2931 11.0589C88.5859 11.4203 87.7293 11.6363 86.798 11.6363C84.4171 11.6363 82.4798 10.2258 82.4798 8.498C82.4798 6.77017 84.4171 5.35971 86.798 5.35971C87.7293 5.35971 88.5859 5.57568 89.2931 5.94152V5.93712L91.1908 4.83519C90.0575 3.93161 88.5068 3.37183 86.798 3.37183C83.3276 3.37183 80.5031 5.66825 80.5031 8.49359C80.5031 11.3189 83.3276 13.6154 86.798 13.6154C88.5068 13.6154 90.0575 13.0556 91.1908 12.152L89.2931 11.0589Z" fill="white"/>
<path d="M58.8596 8.49804C58.8596 5.67269 56.035 3.37627 52.569 3.37627C50.8998 3.37627 49.3798 3.91401 48.2509 4.78233V0.991699H46.2741V13.2892H48.2509V12.2137C49.3798 13.0821 50.8954 13.6198 52.569 13.6198C56.035 13.6198 58.8596 11.3234 58.8596 8.49804ZM56.8828 8.49804C56.8828 10.2303 54.9456 11.6363 52.569 11.6363C50.1881 11.6363 48.2509 10.2259 48.2509 8.49804C48.2509 6.77021 50.1881 5.35974 52.569 5.35974C54.9456 5.35534 56.8828 6.7658 56.8828 8.49804Z" fill="white"/>
<path d="M103.065 3.70244H100.271L97.2134 6.7658L95.8121 8.16746L95.4738 8.50685V0.991699H93.4971V13.2892H95.4738V11.3146L97.2134 9.57352L100.917 13.2892H103.71L98.6103 8.16746L103.065 3.70244Z" fill="white"/>
<path d="M6.62439 4.59725L10.9557 13.2893H13.2444L6.62439 0L0 13.2893H2.28867L6.62439 4.59725Z" fill="white"/>
</g>
<defs>
<clipPath id="clip0_8837_4586">
<rect width="115" height="16" fill="white"/>
</clipPath>
</defs>
</svg>
