<svg width="52" height="68" viewBox="0 0 52 68" fill="none" xmlns="http://www.w3.org/2000/svg">
<rect y="12" width="4" height="4" fill="#D453B5"/>
<rect y="16" width="4" height="4" fill="#D453B5"/>
<rect x="4" y="8" width="4" height="4" fill="#D453B5"/>
<rect x="8" y="4" width="4" height="4" fill="#D453B5"/>
<rect x="12" width="4" height="4" fill="#D453B5"/>
<rect x="16" width="4" height="4" fill="#D453B5"/>
<rect x="20" width="4" height="4" fill="#D453B5"/>
<rect x="24" y="4" width="4" height="4" fill="#D453B5"/>
<rect x="28" y="8" width="4" height="4" fill="#D453B5"/>
<rect x="32" y="12" width="4" height="4" fill="#D453B5"/>
<rect x="32" y="16" width="4" height="8" fill="#D453B5"/>
<rect x="28" y="24" width="4" height="4" fill="#D453B5"/>
<rect x="24" y="28" width="4" height="4" fill="#D453B5"/>
<rect x="20" y="32" width="4" height="4" fill="#D453B5"/>
<rect x="16" y="36" width="4" height="4" fill="#D453B5"/>
<rect x="16" y="40" width="4" height="4" fill="#D453B5"/>
<rect x="16" y="53" width="4" height="4" fill="#D453B5"/>
<rect x="16" y="23" width="4" height="4" fill="#5E5EDD"/>
<rect x="16" y="27" width="4" height="4" fill="#5E5EDD"/>
<rect x="20" y="19" width="4" height="4" fill="#5E5EDD"/>
<rect x="24" y="15" width="4" height="4" fill="#5E5EDD"/>
<rect x="28" y="11" width="4" height="4" fill="#5E5EDD"/>
<rect x="32" y="11" width="4" height="4" fill="#5E5EDD"/>
<rect x="36" y="11" width="4" height="4" fill="#5E5EDD"/>
<rect x="40" y="15" width="4" height="4" fill="#5E5EDD"/>
<rect x="44" y="19" width="4" height="4" fill="#5E5EDD"/>
<rect x="48" y="23" width="4" height="4" fill="#5E5EDD"/>
<rect x="48" y="27" width="4" height="8" fill="#5E5EDD"/>
<rect x="44" y="35" width="4" height="4" fill="#5E5EDD"/>
<rect x="40" y="39" width="4" height="4" fill="#5E5EDD"/>
<rect x="36" y="43" width="4" height="4" fill="#5E5EDD"/>
<rect x="32" y="47" width="4" height="4" fill="#5E5EDD"/>
<rect x="32" y="51" width="4" height="4" fill="#5E5EDD"/>
<rect x="32" y="64" width="4" height="4" fill="#5E5EDD"/>
</svg>
