<svg width="52" height="52" viewBox="0 0 52 52" fill="none" xmlns="http://www.w3.org/2000/svg">
<rect x="20" width="12" height="4" fill="#FFAF45"/>
<rect x="20" y="48" width="12" height="4" fill="#FFAF45"/>
<rect x="52" y="24" width="4" height="4" transform="rotate(90 52 24)" fill="#FFAF45"/>
<rect x="52" y="28" width="4" height="4" transform="rotate(90 52 28)" fill="#FFAF45"/>
<rect x="48" y="32" width="8" height="4" transform="rotate(90 48 32)" fill="#FFAF45"/>
<rect x="44" y="40" width="4" height="4" transform="rotate(90 44 40)" fill="#FFAF45"/>
<rect x="28" y="32" width="4" height="4" transform="rotate(90 28 32)" fill="#FFAF45"/>
<rect x="24" y="32" width="4" height="4" transform="rotate(90 24 32)" fill="#FFAF45"/>
<rect x="32" y="32" width="4" height="4" transform="rotate(90 32 32)" fill="#FFAF45"/>
<rect x="36" y="28" width="4" height="4" transform="rotate(90 36 28)" fill="#FFAF45"/>
<rect x="36" y="16" width="4" height="4" transform="rotate(90 36 16)" fill="#FFAF45"/>
<rect x="20" y="16" width="4" height="4" transform="rotate(90 20 16)" fill="#FFAF45"/>
<rect x="20" y="28" width="4" height="4" transform="rotate(90 20 28)" fill="#FFAF45"/>
<rect x="40" y="44" width="4" height="8" transform="rotate(90 40 44)" fill="#FFAF45"/>
<rect x="52" y="20" width="4" height="4" transform="rotate(90 52 20)" fill="#FFAF45"/>
<rect x="48" y="12" width="8" height="4" transform="rotate(90 48 12)" fill="#FFAF45"/>
<rect x="44" y="8" width="4" height="4" transform="rotate(90 44 8)" fill="#FFAF45"/>
<rect x="40" y="4" width="4" height="8" transform="rotate(90 40 4)" fill="#FFAF45"/>
<rect width="4" height="4" transform="matrix(4.37114e-08 1 1 -4.37114e-08 0 24)" fill="#FFAF45"/>
<rect width="4" height="4" transform="matrix(4.37114e-08 1 1 -4.37114e-08 0 28)" fill="#FFAF45"/>
<rect width="8" height="4" transform="matrix(4.37114e-08 1 1 -4.37114e-08 4 32)" fill="#FFAF45"/>
<rect width="4" height="4" transform="matrix(4.37114e-08 1 1 -4.37114e-08 8 40)" fill="#FFAF45"/>
<rect width="4" height="8" transform="matrix(4.37114e-08 1 1 -4.37114e-08 12 44)" fill="#FFAF45"/>
<rect width="4" height="4" transform="matrix(4.37114e-08 1 1 -4.37114e-08 0 20)" fill="#FFAF45"/>
<rect width="8" height="4" transform="matrix(4.37114e-08 1 1 -4.37114e-08 4 12)" fill="#FFAF45"/>
<rect width="4" height="4" transform="matrix(4.37114e-08 1 1 -4.37114e-08 8 8)" fill="#FFAF45"/>
<rect width="4" height="8" transform="matrix(4.37114e-08 1 1 -4.37114e-08 12 4)" fill="#FFAF45"/>
</svg>
