<svg width="28" height="28" viewBox="0 0 28 28" fill="none" xmlns="http://www.w3.org/2000/svg">
<rect x="24" y="4" width="4" height="4" transform="rotate(90 24 4)" fill="#FFAF45"/>
<rect x="20" y="12" width="4" height="4" transform="rotate(90 20 12)" fill="#FFAF45"/>
<rect x="28" y="12" width="4" height="4" transform="rotate(90 28 12)" fill="#FFAF45"/>
<rect x="16" y="16" width="4" height="4" transform="rotate(90 16 16)" fill="#FFAF45"/>
<rect x="16" y="24" width="4" height="4" transform="rotate(90 16 24)" fill="#FFAF45"/>
<rect x="16" y="8" width="4" height="4" transform="rotate(90 16 8)" fill="#FFAF45"/>
<rect x="16" width="4" height="4" transform="rotate(90 16 0)" fill="#FFAF45"/>
<rect x="12" y="12" width="4" height="4" transform="rotate(90 12 12)" fill="#FFAF45"/>
<rect x="4" y="12" width="4" height="4" transform="rotate(90 4 12)" fill="#FFAF45"/>
<rect x="8" y="4" width="4" height="4" transform="rotate(90 8 4)" fill="#FFAF45"/>
<rect x="24" y="20" width="4" height="4" transform="rotate(90 24 20)" fill="#FFAF45"/>
<rect x="8" y="20" width="4" height="4" transform="rotate(90 8 20)" fill="#FFAF45"/>
</svg>
